{
.appVersion = "1352";
copyright = "Copyright 2016-2021 The Hurricane Project Authors (https://github.com/googlefonts/hurricane)";
customParameters = (
{
name = licenseURL;
value = "https://scripts.sil.org/OFL";
},
{
name = license;
value = "This Font Software is licensed under the SIL Open Font License, Version 1.1. This license is available with a FAQ at: https://scripts.sil.org/OFL";
},
{
name = vendorID;
value = GOOG;
},
{
name = "Disable Subroutines";
value = 1;
},
{
name = glyphOrder;
value = (
.notdef,
CR,
NULL,
space,
nbspace
);
},
{
name = fsType;
value = (
);
},
{
name = "Use Typo Metrics";
value = 1;
},
{
name = Axes;
value = (
{
Name = Weight;
Tag = wght;
}
);
}
);
date = "2021-09-01 20:23:05 +0000";
designer = "Robert E. Leuschke";
designerURL = www.typesetit.com;
familyName = Hurricane;
featurePrefixes = (
{
automatic = 1;
code = "languagesystem DFLT dflt;\012\012languagesystem latn dflt;\012languagesystem latn AZE;\012languagesystem latn CRT;\012languagesystem latn KAZ;\012languagesystem latn TAT;\012languagesystem latn TRK;\012languagesystem latn ROM;\012languagesystem latn MOL;\012languagesystem latn CAT;\012";
name = Languagesystems;
}
);
features = (
{
automatic = 1;
code = "feature locl;\012feature sups;\012feature frac;\012feature ordn;\012feature ornm;\012feature salt;\012feature ss01;\012feature ss02;\012feature ss03;\012feature ss04;\012feature ss05;\012feature ss06;\012";
name = aalt;
},
{
automatic = 1;

glyphs = (
{
color = 3;
glyphname = NULL;
lastChange = "2021-08-24 17:13:33 +0000";
layers = (
{
layerId = "5B3E1226-E0D0-4C23-AF14-DEF1E2C801D3";
paths = (
{
closed = 1;
nodes = (
"49 0 LINE",
"436 0 LINE",
"444 9 LINE",
"444 573 LINE",
"436 582 LINE",
"49 582 LINE",
"40 573 LINE",
"40 9 LINE"
);
},
{
closed = 1;
nodes = (
"56 566 LINE",
"430 566 LINE",
"430 16 LINE",
"56 16 LINE"
);
},
{
closed = 1;
nodes = (
"87 45 LINE",
"397 45 LINE",
"397 533 LINE",
"87 533 LINE"
);
},
{
closed = 1;
nodes = (
"136 139 LINE",
"219 292 LINE",
"136 443 LINE",
"153 476 LINE",
"236 324 LINE",
"321 476 LINE",
"340 443 LINE",
"254 290 LINE",
"340 139 LINE",
"321 107 LINE",
"236 257 LINE",
"153 107 LINE"
);
}
);
width = 484;
}
);
note = NULL;
},
{
glyphname = A;
lastChange = "2021-08-24 17:12:24 +0000";
layers = (
{
hints = (
{
horizontal = 1;
place = "{542, 33}";
type = Stem;
},
{
place = "{344, 29}";
type = Stem;
}
);
layerId = "5B3E1226-E0D0-4C23-AF14-DEF1E2C801D3";
paths = (
{
closed = 1;
nodes = (
"485 218 OFFCURVE",
"615 504 OFFCURVE",
"615 547 CURVE SMOOTH",
"615 568 OFFCURVE",
"570 575 OFFCURVE",
"555 575 CURVE SMOOTH",
"446 575 OFFCURVE",
"188 341 OFFCURVE",
"118 254 CURVE",
"88 246 OFFCURVE",
"-28 255 OFFCURVE",
"-38 226 CURVE",
"-36 218 OFFCURVE",
"-25 211 OFFCURVE",
"-17 211 CURVE SMOOTH",
"17 211 OFFCURVE",
"52 212 OFFCURVE",
"86 212 CURVE",
"41 155 OFFCURVE",
"-39 23 OFFCURVE",
"-39 -49 CURVE SMOOTH",
"-39 -56 OFFCURVE",
"-28 -75 OFFCURVE",
"-20 -75 CURVE SMOOTH",
"-16 -75 OFFCURVE",
"-15 -70 OFFCURVE",
"-15 -67 CURVE",
"5 12 OFFCURVE",
"104 214 OFFCURVE",
"169 214 CURVE SMOOTH",
"216 214 OFFCURVE",
"405 219 OFFCURVE",
"405 245 CURVE SMOOTH",
"405 257 OFFCURVE",
"329 259 OFFCURVE",
"318 259 CURVE SMOOTH",
"177 259 LINE",
"284 383 OFFCURVE",
"384 479 OFFCURVE",
"540 542 CURVE",
"527 485 OFFCURVE",
"450 242 OFFCURVE",
"408 133 CURVE SMOOTH",
"375 47 OFFCURVE",
"335 -59 OFFCURVE",
"382 -78 CURVE SMOOTH",
"386 -80 OFFCURVE",
"395 -74 OFFCURVE",
"394 -72 CURVE SMOOTH",
"381 -48 OFFCURVE",
"389 -6 OFFCURVE",
"432 98 CURVE SMOOTH"
);
}
);
width = 469;
}
);
note = A;
unicode = 0041;
},
{
glyphname = AE;
lastChange = "2021-08-24 17:12:24 +0000";
layers = (
{
hints = (
{
horizontal = 1;
place = "{-26, 50}";
type = Stem;
},
{
horizontal = 1;
place = "{542, 33}";
type = Stem;
},
{
place = "{344, 29}";
type = Stem;
},
{
horizontal = 1;
place = "{549, 35}";
type = Stem;
}
);
layerId = "5B3E1226-E0D0-4C23-AF14-DEF1E2C801D3";
paths = (
{
closed = 1;
nodes = (
"997 501 OFFCURVE",
"1032 559 OFFCURVE",
"978 575 CURVE",
"930 583 OFFCURVE",
"881 584 OFFCURVE",
"834 584 CURVE SMOOTH",
"799 584 OFFCURVE",
"668 585 OFFCURVE",
"605 562 CURVE",
"591 571 OFFCURVE",
"565 575 OFFCURVE",
"555 575 CURVE SMOOTH",
"446 575 OFFCURVE",
"188 341 OFFCURVE",
"118 254 CURVE",
"88 246 OFFCURVE",
"-28 255 OFFCURVE",
"-38 226 CURVE",
"-36 218 OFFCURVE",
"-25 211 OFFCURVE",
"-17 211 CURVE SMOOTH",
"17 211 OFFCURVE",
"52 212 OFFCURVE",
"86 212 CURVE",
"41 155 OFFCURVE",
"-39 23 OFFCURVE",
"-39 -49 CURVE SMOOTH",
"-39 -56 OFFCURVE",
"-28 -75 OFFCURVE",
"-20 -75 CURVE SMOOTH",
"-16 -75 OFFCURVE",
"-15 -70 OFFCURVE",
"-15 -67 CURVE",
"5 12 OFFCURVE",
"102 207 OFFCURVE",
"193 216 CURVE SMOOTH",
"210 217 OFFCURVE",
"350 223 OFFCURVE",
"424 237 CURVE",
"401 188 OFFCURVE",
"379 133 OFFCURVE",
"385 85 CURVE SMOOTH",
"395 4 OFFCURVE",
"452 -26 OFFCURVE",
"526 -26 CURVE SMOOTH",
"630 -26 OFFCURVE",
"902 65 OFFCURVE",
"955 142 CURVE SMOOTH",
"961 151 OFFCURVE",
"962 160 OFFCURVE",
"948 153 CURVE SMOOTH",
"849 98 OFFCURVE",
"656 40 OFFCURVE",
"536 25 CURVE SMOOTH",
"380 5 OFFCURVE",
"469 208 OFFCURVE",
"487 247 CURVE",
"553 255 OFFCURVE",
"714 252 OFFCURVE",
"829 271 CURVE SMOOTH",
"839 273 OFFCURVE",
"888 290 OFFCURVE",
"854 294 CURVE SMOOTH",
"818 298 OFFCURVE",
"780 297 OFFCURVE",
"744 297 CURVE SMOOTH",
"667 297 OFFCURVE",
"591 286 OFFCURVE",
"514 288 CURVE",
"537 319 OFFCURVE",
"668 506 OFFCURVE",
"694 523 CURVE SMOOTH",
"723 543 OFFCURVE",
"856 549 OFFCURVE",
"896 549 CURVE SMOOTH",
"917 549 OFFCURVE",
"954 550 OFFCURVE",
"975 541 CURVE"
);
},
{
closed = 1;
nodes = (
"344 267 OFFCURVE",
"238 265 OFFCURVE",
"195 265 CURVE",
"302 389 OFFCURVE",
"384 479 OFFCURVE",
"540 542 CURVE",
"576 544 LINE",
"573 540 OFFCURVE",
"571 534 OFFCURVE",
"572 529 CURVE SMOOTH",
"575 505 OFFCURVE",
"588 517 OFFCURVE",
"595 504 CURVE",
"558 451 OFFCURVE",
"513 410 OFFCURVE",
"457 302 CURVE SMOOTH",
"438 265 LINE",
"418 267 OFFCURVE",
"394 267 OFFCURVE",
"388 267 CURVE SMOOTH"
);
}
);
width = 887;
}
);
note = AE;
unicode = 00C6;
},
{
glyphname = B;
lastChange = "2021-08-24 17:12:24 +0000";
layers = (
{
hints = (
{
horizontal = 1;
place = "{258, 25}";
type = Stem;
},
{
horizontal = 1;
place = "{552, 50}";
type = Stem;
},
{
place = "{562, 44}";
type = Stem;
},
{
place = "{697, 26}";
type = Stem;
}
);
layerId = "5B3E1226-E0D0-4C23-AF14-DEF1E2C801D3";
paths = (
{
closed = 1;
nodes = (
"710 574 OFFCURVE",
"429 602 OFFCURVE",
"331 602 CURVE SMOOTH",
"300 602 OFFCURVE",
"166 587 OFFCURVE",
"171 537 CURVE SMOOTH",
"171 533 OFFCURVE",
"181 533 OFFCURVE",
"182 533 CURVE SMOOTH",
"196 533 OFFCURVE",
"210 538 OFFCURVE",
"223 542 CURVE SMOOTH",
"256 553 OFFCURVE",
"311 553 OFFCURVE",
"346 553 CURVE SMOOTH",
"364 553 OFFCURVE",
"381 553 OFFCURVE",
"398 552 CURVE",
"312 457 OFFCURVE",
"123 163 OFFCURVE",
"137 27 CURVE SMOOTH",
"137 22 OFFCURVE",
"139 15 OFFCURVE",
"141 7 CURVE",
"114 10 LINE SMOOTH",
"97 12 OFFCURVE",
"80 13 OFFCURVE",
"63 13 CURVE SMOOTH",
"60 13 OFFCURVE",
"45 13 OFFCURVE",
"46 7 CURVE SMOOTH",
"48 -18 OFFCURVE",
"143 -22 OFFCURVE",
"163 -24 CURVE SMOOTH",
"165 -24 LINE SMOOTH",
"314 -37 OFFCURVE",
"616 31 OFFCURVE",
"605 141 CURVE SMOOTH",
"598 209 OFFCURVE",
"533 264 OFFCURVE",
"469 281 CURVE",
"536 313 OFFCURVE",
"732 347 OFFCURVE",
"723 446 CURVE SMOOTH"
);
},
{
closed = 1;
nodes = (
"167 99 OFFCURVE",
"220 190 OFFCURVE",
"267 262 CURVE",
"267 251 OFFCURVE",
"278 231 OFFCURVE",
"291 231 CURVE SMOOTH",
"314 231 OFFCURVE",
"365 258 OFFCURVE",
"407 258 CURVE SMOOTH",
"456 258 OFFCURVE",
"555 231 OFFCURVE",
"561 169 CURVE SMOOTH",
"570 78 OFFCURVE",
"325 7 OFFCURVE",
"169 6 CURVE"
);
},
{
closed = 1;
nodes = (
"705 370 OFFCURVE",
"375 283 OFFCURVE",
"302 283 CURVE SMOOTH",
"278 283 LINE",
"317 368 OFFCURVE",
"383 437 OFFCURVE",
"440 510 CURVE SMOOTH",
"443 514 OFFCURVE",
"446 519 OFFCURVE",
"445 525 CURVE SMOOTH",
"444 534 OFFCURVE",
"437 542 OFFCURVE",
"432 549 CURVE",
"487 550 OFFCURVE",
"690 521 OFFCURVE",
"696 454 CURVE SMOOTH"
);
}
);
width = 594;
}
);
note = B;
unicode = 0042;
},
{
glyphname = C;
lastChange = "2021-08-24 17:12:24 +0000";
layers = (
{
hints = (
{
horizontal = 1;
place = "{-32, 29}";
type = Stem;
},
{
horizontal = 1;
place = "{565, 24}";
type = Stem;
},
{
place = "{45, 56}";
type = Stem;
},
{
place = "{543, 40}";
type = Stem;
}
);
layerId = "5B3E1226-E0D0-4C23-AF14-DEF1E2C801D3";
paths = (
{
closed = 1;
nodes = (
"358 -35 OFFCURVE",
"539 71 OFFCURVE",
"625 159 CURVE SMOOTH",
"637 171 OFFCURVE",
"635 187 OFFCURVE",
"629 182 CURVE SMOOTH",
"581 145 OFFCURVE",
"371 -6 OFFCURVE",
"215 -4 CURVE SMOOTH",
"161 -3 OFFCURVE",
"107 26 OFFCURVE",
"101 85 CURVE SMOOTH",
"86 251 OFFCURVE",
"331 569 OFFCURVE",
"501 565 CURVE SMOOTH",
"523 565 OFFCURVE",
"541 555 OFFCURVE",
"543 532 CURVE SMOOTH",
"549 471 OFFCURVE",
"502 463 OFFCURVE",
"492 440 CURVE",
"493 433 OFFCURVE",
"505 432 OFFCURVE",
"510 432 CURVE SMOOTH",
"554 431 OFFCURVE",
"587 466 OFFCURVE",
"583 511 CURVE SMOOTH",
"579 558 OFFCURVE",
"539 588 OFFCURVE",
"494 589 CURVE SMOOTH",
"315 592 OFFCURVE",
"29 299 OFFCURVE",
"45 117 CURVE SMOOTH",
"54 15 OFFCURVE",
"132 -31 OFFCURVE",
"226 -32 CURVE SMOOTH"
);
}
);
width = 554;
}
);
note = C;
unicode = 0043;
},
{
glyphname = D;
lastChange = "2021-08-24 17:12:24 +0000";
layers = (
{
hints = (
{
horizontal = 1;
place = "{-22, 39}";
type = Stem;
},
{
horizontal = 1;
place = "{557, 39}";
type = Stem;
}
);
layerId = "5B3E1226-E0D0-4C23-AF14-DEF1E2C801D3";
paths = (
{
closed = 1;
nodes = (
"649 569 OFFCURVE",
"424 596 OFFCURVE",
"269 596 CURVE SMOOTH",
"240 596 OFFCURVE",
"86 584 OFFCURVE",
"92 537 CURVE SMOOTH",
"92 533 OFFCURVE",
"102 533 OFFCURVE",
"103 533 CURVE SMOOTH",
"117 533 OFFCURVE",
"131 538 OFFCURVE",
"144 542 CURVE SMOOTH",
"189 557 OFFCURVE",
"244 557 OFFCURVE",
"293 557 CURVE SMOOTH",
"419 557 OFFCURVE",
"617 555 OFFCURVE",
"636 383 CURVE SMOOTH",
"654 214 OFFCURVE",
"346 34 OFFCURVE",
"197 34 CURVE SMOOTH",
"192 34 OFFCURVE",
"146 34 OFFCURVE",
"147 23 CURVE SMOOTH",
"148 11 OFFCURVE",
"203 -1 OFFCURVE",
"217 -1 CURVE SMOOTH",
"402 -1 OFFCURVE",
"694 157 OFFCURVE",
"671 367 CURVE SMOOTH"
);
},
{
closed = 1;
nodes = (
"72 176 OFFCURVE",
"384 490 OFFCURVE",
"382 507 CURVE SMOOTH",
"380 522 OFFCURVE",
"348 538 OFFCURVE",
"335 538 CURVE SMOOTH",
"261 538 OFFCURVE",
"44 117 OFFCURVE",
"53 33 CURVE SMOOTH",
"55 14 OFFCURVE",
"68 -22 OFFCURVE",
"92 -22 CURVE SMOOTH",
"115 -22 OFFCURVE",
"134 3 OFFCURVE",
"132 26 CURVE",
"132 26 OFFCURVE",
"131 31 OFFCURVE",
"129 31 CURVE SMOOTH",
"125 31 OFFCURVE",
"113 18 OFFCURVE",
"99 18 CURVE SMOOTH",
"90 18 OFFCURVE",
"88 24 OFFCURVE",
"87 32 CURVE SMOOTH"
);
}
);
width = 587;
}
);
note = D;
unicode = 0044;
},
{
glyphname = Eth;
lastChange = "2021-08-24 17:12:24 +0000";
layers = (
{
hints = (
{
horizontal = 1;
place = "{-22, 39}";
type = Stem;
},
{
horizontal = 1;
place = "{557, 39}";
type = Stem;
}
);
layerId = "5B3E1226-E0D0-4C23-AF14-DEF1E2C801D3";
paths = (
{
closed = 1;
nodes = (
"649 569 OFFCURVE",
"424 596 OFFCURVE",
"269 596 CURVE SMOOTH",
"240 596 OFFCURVE",
"86 584 OFFCURVE",
"92 537 CURVE SMOOTH",
"92 533 OFFCURVE",
"102 533 OFFCURVE",
"103 533 CURVE SMOOTH",
"117 533 OFFCURVE",
"131 538 OFFCURVE",
"144 542 CURVE SMOOTH",
"189 557 OFFCURVE",
"244 557 OFFCURVE",
"293 557 CURVE SMOOTH",
"419 557 OFFCURVE",
"617 555 OFFCURVE",
"636 383 CURVE SMOOTH",
"654 214 OFFCURVE",
"346 34 OFFCURVE",
"197 34 CURVE SMOOTH",
"192 34 OFFCURVE",
"146 34 OFFCURVE",
"147 23 CURVE SMOOTH",
"148 11 OFFCURVE",
"203 -1 OFFCURVE",
"217 -1 CURVE SMOOTH",
"402 -1 OFFCURVE",
"694 157 OFFCURVE",
"671 367 CURVE SMOOTH"
);
},
{
closed = 1;
nodes = (
"193 176 LINE SMOOTH",
"234 176 OFFCURVE",
"287 185 OFFCURVE",
"287 201 CURVE SMOOTH",
"287 212 OFFCURVE",
"242 213 OFFCURVE",
"225 213 CURVE SMOOTH",
"156 213 LINE",
"244 350 OFFCURVE",
"383 495 OFFCURVE",
"382 507 CURVE SMOOTH",
"380 522 OFFCURVE",
"348 538 OFFCURVE",
"335 538 CURVE SMOOTH",
"287 538 OFFCURVE",
"178 360 OFFCURVE",
"111 213 CURVE",
"70 213 LINE SMOOTH",
"38 213 OFFCURVE",
"-5 176 OFFCURVE",
"28 176 CURVE SMOOTH",
"94 176 LINE",
"67 112 OFFCURVE",
"50 58 OFFCURVE",
"53 33 CURVE SMOOTH",
"55 14 OFFCURVE",
"68 -22 OFFCURVE",
"92 -22 CURVE SMOOTH",
"115 -22 OFFCURVE",
"134 3 OFFCURVE",
"132 26 CURVE",
"132 26 OFFCURVE",
"131 31 OFFCURVE",
"129 31 CURVE SMOOTH",
"125 31 OFFCURVE",
"113 18 OFFCURVE",
"99 18 CURVE SMOOTH",
"90 18 OFFCURVE",
"88 24 OFFCURVE",
"87 32 CURVE SMOOTH",
"83 71 OFFCURVE",
"102 121 OFFCURVE",
"133 176 CURVE"
);
}
);
width = 587;
}
);
note = Eth;
unicode = 00D0;
},
{
glyphname = E;
lastChange = "2021-08-24 17:12:24 +0000";
layers = (
{
hints = (
{
horizontal = 1;
place = "{-26, 50}";
type = Stem;
},
{
horizontal = 1;
place = "{549, 35}";
type = Stem;
}
);
layerId = "5B3E1226-E0D0-4C23-AF14-DEF1E2C801D3";
paths = (
{
closed = 1;
nodes = (
"699 501 OFFCURVE",
"734 559 OFFCURVE",
"680 575 CURVE",
"632 583 OFFCURVE",
"583 584 OFFCURVE",
"536 584 CURVE SMOOTH",
"489 584 OFFCURVE",
"268 586 OFFCURVE",
"274 529 CURVE SMOOTH",
"277 505 OFFCURVE",
"290 517 OFFCURVE",
"297 504 CURVE",
"257 454 OFFCURVE",
"208 339 OFFCURVE",
"133 339 CURVE SMOOTH",
"124 339 OFFCURVE",
"96 347 OFFCURVE",
"98 330 CURVE SMOOTH",
"101 303 OFFCURVE",
"141 303 OFFCURVE",
"159 302 CURVE",
"130 242 OFFCURVE",
"79 157 OFFCURVE",
"87 85 CURVE SMOOTH",
"97 4 OFFCURVE",
"154 -26 OFFCURVE",
"228 -26 CURVE SMOOTH",
"332 -26 OFFCURVE",
"604 65 OFFCURVE",
"657 142 CURVE SMOOTH",
"663 151 OFFCURVE",
"664 160 OFFCURVE",
"650 153 CURVE SMOOTH",
"551 98 OFFCURVE",
"352 13 OFFCURVE",
"231 13 CURVE SMOOTH",
"40 13 OFFCURVE",
"197 261 OFFCURVE",
"215 300 CURVE",
"323 345 OFFCURVE",
"456 324 OFFCURVE",
"571 343 CURVE SMOOTH",
"581 345 OFFCURVE",
"630 362 OFFCURVE",
"596 366 CURVE SMOOTH",
"560 370 OFFCURVE",
"522 369 OFFCURVE",
"486 369 CURVE SMOOTH",
"409 369 OFFCURVE",
"333 358 OFFCURVE",
"256 360 CURVE",
"279 391 OFFCURVE",
"370 506 OFFCURVE",
"396 523 CURVE SMOOTH",
"425 543 OFFCURVE",
"558 549 OFFCURVE",
"598 549 CURVE SMOOTH",
"619 549 OFFCURVE",
"656 550 OFFCURVE",
"677 541 CURVE"
);
}
);
width = 589;
}
);
note = E;
unicode = 0045;
},
{
glyphname = F;
lastChange = "2021-08-24 17:12:24 +0000";
layers = (
{
hints = (
{
horizontal = 1;
place = "{542, 34}";
type = Stem;
},
{
place = "{66, 52}";
type = Stem;
}
);
layerId = "5B3E1226-E0D0-4C23-AF14-DEF1E2C801D3";
paths = (
{
closed = 1;
nodes = (
"816 542 OFFCURVE",
"785 576 OFFCURVE",
"738 576 CURVE SMOOTH",
"663 576 OFFCURVE",
"524 574 OFFCURVE",
"449 571 CURVE SMOOTH",
"376 568 OFFCURVE",
"259 546 OFFCURVE",
"325 495 CURVE",
"280 442 OFFCURVE",
"246 376 OFFCURVE",
"208 318 CURVE",
"192 316 OFFCURVE",
"154 307 OFFCURVE",
"154 287 CURVE SMOOTH",
"154 278 OFFCURVE",
"161 271 OFFCURVE",
"167 266 CURVE",
"133 208 OFFCURVE",
"66 92 OFFCURVE",
"66 27 CURVE SMOOTH",
"66 -31 OFFCURVE",
"149 -25 OFFCURVE",
"105 10 CURVE SMOOTH",
"100 14 OFFCURVE",
"100 25 OFFCURVE",
"100 30 CURVE SMOOTH",
"100 65 OFFCURVE",
"195 253 OFFCURVE",
"219 253 CURVE SMOOTH",
"326 253 OFFCURVE",
"450 267 OFFCURVE",
"554 281 CURVE SMOOTH",
"575 284 OFFCURVE",
"659 314 OFFCURVE",
"580 314 CURVE SMOOTH",
"518 314 OFFCURVE",
"457 308 OFFCURVE",
"394 308 CURVE SMOOTH",
"366 308 OFFCURVE",
"285 308 OFFCURVE",
"261 317 CURVE",
"343 446 OFFCURVE",
"368 520 OFFCURVE",
"532 531 CURVE SMOOTH",
"600 536 OFFCURVE",
"668 542 OFFCURVE",
"736 542 CURVE SMOOTH"
);
}
);
width = 484;
}
);
note = F;
unicode = 0046;
},
{
glyphname = G;
lastChange = "2021-08-24 17:12:24 +0000";
layers = (
{
hints = (
{
horizontal = 1;
place = "{-30, 45}";
type = Stem;
},
{
horizontal = 1;
place = "{227, 34}";
type = Stem;
},
{
horizontal = 1;
place = "{569, 39}";
type = Stem;
},
{
place = "{37, 34}";
type = Stem;
},
{
place = "{523, 44}";
type = Stem;
},
{
place = "{669, 40}";
type = Stem;
}
);
layerId = "5B3E1226-E0D0-4C23-AF14-DEF1E2C801D3";
paths = (
{
closed = 1;
nodes = (
"857 264 OFFCURVE",
"693 261 OFFCURVE",
"674 261 CURVE SMOOTH",
"621 261 OFFCURVE",
"253 256 OFFCURVE",
"253 184 CURVE SMOOTH",
"253 137 OFFCURVE",
"306 175 OFFCURVE",
"407 200 CURVE",
"453 206 OFFCURVE",
"616 237 OFFCURVE",
"652 224 CURVE",
"616 101 OFFCURVE",
"312 15 OFFCURVE",
"198 15 CURVE SMOOTH",
"146 15 OFFCURVE",
"71 27 OFFCURVE",
"71 94 CURVE SMOOTH",
"71 269 OFFCURVE",
"448 569 OFFCURVE",
"613 569 CURVE SMOOTH",
"641 569 OFFCURVE",
"669 559 OFFCURVE",
"669 527 CURVE SMOOTH",
"669 471 OFFCURVE",
"603 426 OFFCURVE",
"603 412 CURVE SMOOTH",
"603 406 OFFCURVE",
"609 404 OFFCURVE",
"614 404 CURVE SMOOTH",
"660 404 OFFCURVE",
"708 462 OFFCURVE",
"708 507 CURVE SMOOTH",
"708 558 OFFCURVE",
"666 608 OFFCURVE",
"613 608 CURVE SMOOTH",
"393 608 OFFCURVE",
"37 337 OFFCURVE",
"37 105 CURVE SMOOTH",
"37 10 OFFCURVE",
"94 -30 OFFCURVE",
"184 -30 CURVE SMOOTH",
"298 -30 OFFCURVE",
"484 41 OFFCURVE",
"578 105 CURVE",
"563 71 OFFCURVE",
"523 18 OFFCURVE",
"523 -18 CURVE SMOOTH",
"523 -36 OFFCURVE",
"531 -57 OFFCURVE",
"552 -57 CURVE SMOOTH",
"557 -57 OFFCURVE",
"563 -55 OFFCURVE",
"568 -53 CURVE",
"552 13 OFFCURVE",
"692 230 OFFCURVE",
"784 230 CURVE SMOOTH",
"797 230 OFFCURVE",
"857 221 OFFCURVE",
"857 237 CURVE SMOOTH"
);
}
);
width = 750;
}
);
note = G;
unicode = 0047;
},
{
glyphname = H;
lastChange = "2021-08-24 17:12:24 +0000";
layers = (
{
hints = (
{
horizontal = 1;
place = "{-46, 17}";
type = Stem;
},
{
horizontal = 1;
place = "{599, -20}";
target = down;
type = TopGhost;
},
{
place = "{10, 72}";
type = Stem;
},
{
place = "{428, 27}";
type = Stem;
}
);
layerId = "5B3E1226-E0D0-4C23-AF14-DEF1E2C801D3";
paths = (
{
closed = 1;
nodes = (
"633 358 OFFCURVE",
"710 464 OFFCURVE",
"798 546 CURVE SMOOTH",
"802 550 OFFCURVE",
"805 554 OFFCURVE",
"805 560 CURVE SMOOTH",
"805 576 OFFCURVE",
"788 598 OFFCURVE",
"771 598 CURVE SMOOTH",
"722 598 OFFCURVE",
"537 304 OFFCURVE",
"520 262 CURVE",
"408 269 OFFCURVE",
"293 263 OFFCURVE",
"181 259 CURVE",
"244 368 OFFCURVE",
"330 469 OFFCURVE",
"410 566 CURVE",
"409 580 OFFCURVE",
"392 599 OFFCURVE",
"377 599 CURVE SMOOTH",
"331 599 OFFCURVE",
"157 313 OFFCURVE",
"125 262 CURVE",
"107 260 OFFCURVE",
"47 243 OFFCURVE",
"47 218 CURVE SMOOTH",
"47 204 OFFCURVE",
"71 203 OFFCURVE",
"80 203 CURVE SMOOTH",
"93 204 LINE",
"64 153 OFFCURVE",
"10 54 OFFCURVE",
"10 -4 CURVE SMOOTH",
"10 -29 OFFCURVE",
"21 -46 OFFCURVE",
"47 -46 CURVE SMOOTH",
"64 -46 OFFCURVE",
"82 -28 OFFCURVE",
"82 -12 CURVE SMOOTH",
"82 -11 OFFCURVE",
"81 -10 OFFCURVE",
"80 -10 CURVE SMOOTH",
"76 -10 OFFCURVE",
"58 -29 OFFCURVE",
"45 -29 CURVE SMOOTH",
"38 -29 OFFCURVE",
"37 -22 OFFCURVE",
"37 -17 CURVE SMOOTH",
"37 19 OFFCURVE",
"86 108 OFFCURVE",
"104 140 CURVE SMOOTH",
"148 217 OFFCURVE",
"156 210 OFFCURVE",
"245 220 CURVE SMOOTH",
"321 228 OFFCURVE",
"400 234 OFFCURVE",
"476 234 CURVE SMOOTH",
"486 234 OFFCURVE",
"496 235 OFFCURVE",
"506 232 CURVE",
"479 167 OFFCURVE",
"428 79 OFFCURVE",
"428 8 CURVE SMOOTH",
"428 -21 OFFCURVE",
"438 -37 OFFCURVE",
"469 -37 CURVE SMOOTH",
"482 -37 OFFCURVE",
"489 -22 OFFCURVE",
"463 -22 CURVE SMOOTH",
"456 -22 OFFCURVE",
"455 -14 OFFCURVE",
"455 -9 CURVE SMOOTH",
"455 28 OFFCURVE",
"513 155 OFFCURVE",
"533 190 CURVE SMOOTH",
"548 217 OFFCURVE",
"604 228 OFFCURVE",
"604 237 CURVE SMOOTH",
"604 250 OFFCURVE",
"577 255 OFFCURVE",
"568 257 CURVE"
);
}
);
width = 593;
}
);
note = H;
unicode = 0048;
},
{
glyphname = I;
lastChange = "2021-08-24 17:12:24 +0000";
layers = (
{
hints = (
{
horizontal = 1;
place = "{33, 25}";
type = Stem;
},
{
horizontal = 1;
place = "{612, -20}";
target = down;
type = TopGhost;
}
);
layerId = "5B3E1226-E0D0-4C23-AF14-DEF1E2C801D3";
paths = (
{
closed = 1;
nodes = (
"708 578 OFFCURVE",
"698 579 OFFCURVE",
"694 579 CURVE SMOOTH",
"646 583 OFFCURVE",
"596 584 OFFCURVE",
"549 584 CURVE",
"539 594 OFFCURVE",
"520 612 OFFCURVE",
"505 612 CURVE SMOOTH",
"495 612 OFFCURVE",
"484 588 OFFCURVE",
"475 584 CURVE SMOOTH",
"449 570 OFFCURVE",
"281 576 OFFCURVE",
"285 533 CURVE SMOOTH",
"285 523 OFFCURVE",
"296 509 OFFCURVE",
"307 509 CURVE SMOOTH",
"341 509 OFFCURVE",
"395 543 OFFCURVE",
"443 542 CURVE",
"349 462 OFFCURVE",
"205 174 OFFCURVE",
"172 52 CURVE",
"138 49 OFFCURVE",
"1 46 OFFCURVE",
"5 -1 CURVE SMOOTH",
"6 -10 OFFCURVE",
"13 -15 OFFCURVE",
"21 -15 CURVE SMOOTH",
"25 -15 OFFCURVE",
"28 -14 OFFCURVE",
"31 -14 CURVE",
"140 11 OFFCURVE",
"256 24 OFFCURVE",
"368 33 CURVE SMOOTH",
"376 34 OFFCURVE",
"407 38 OFFCURVE",
"406 50 CURVE SMOOTH",
"406 58 OFFCURVE",
"381 58 OFFCURVE",
"379 58 CURVE SMOOTH",
"321 58 OFFCURVE",
"264 55 OFFCURVE",
"206 56 CURVE",
"247 180 OFFCURVE",
"386 409 OFFCURVE",
"482 498 CURVE SMOOTH",
"554 565 OFFCURVE",
"696 545 OFFCURVE",
"709 571 CURVE"
);
}
);
width = 407;
}
);
note = I;
unicode = 0049;
},
{
glyphname = J;
lastChange = "2021-08-24 17:12:24 +0000";
layers = (
{
hints = (
{
horizontal = 1;
place = "{-53, 23}";
type = Stem;
},
{
horizontal = 1;
place = "{609, -20}";
target = down;
type = TopGhost;
},
{
place = "{36, 40}";
type = Stem;
},
{
place = "{279, 135}";
type = Stem;
}
);
layerId = "5B3E1226-E0D0-4C23-AF14-DEF1E2C801D3";
paths = (
{
closed = 1;
nodes = (
"6 160 OFFCURVE",
"9 -53 OFFCURVE",
"130 -53 CURVE SMOOTH",
"314 -53 OFFCURVE",
"534 399 OFFCURVE",
"624 543 CURVE",
"651 544 OFFCURVE",
"678 545 OFFCURVE",
"705 545 CURVE SMOOTH",
"710 545 OFFCURVE",
"778 538 OFFCURVE",
"778 549 CURVE SMOOTH",
"778 578 OFFCURVE",
"646 578 OFFCURVE",
"623 583 CURVE",
"615 590 OFFCURVE",
"596 609 OFFCURVE",
"585 609 CURVE SMOOTH",
"570 609 OFFCURVE",
"555 588 OFFCURVE",
"548 578 CURVE",
"491 572 OFFCURVE",
"279 571 OFFCURVE",
"279 489 CURVE SMOOTH",
"279 444 OFFCURVE",
"322 420 OFFCURVE",
"363 420 CURVE SMOOTH",
"370 420 OFFCURVE",
"414 422 OFFCURVE",
"414 435 CURVE SMOOTH",
"414 452 OFFCURVE",
"305 451 OFFCURVE",
"305 477 CURVE SMOOTH",
"305 520 OFFCURVE",
"505 537 OFFCURVE",
"540 539 CURVE",
"504 417 OFFCURVE",
"271 -29 OFFCURVE",
"136 -29 CURVE SMOOTH",
"56 -29 OFFCURVE",
"57 176 OFFCURVE",
"125 230 CURVE SMOOTH",
"136 239 OFFCURVE",
"123 254 OFFCURVE",
"113 246 CURVE SMOOTH"
);
}
);
width = 484;
}
);
note = J;
unicode = 004A;
},
{
glyphname = K;
lastChange = "2021-08-24 17:12:24 +0000";
layers = (
{
hints = (
{
horizontal = 1;
place = "{-15, 23}";
type = Stem;
},
{
horizontal = 1;
place = "{592, -20}";
target = down;
type = TopGhost;
},
{
place = "{51, 33}";
type = Stem;
},
{
place = "{548, 36}";
type = Stem;
}
);
layerId = "5B3E1226-E0D0-4C23-AF14-DEF1E2C801D3";
paths = (
{
closed = 1;
nodes = (
"378 325 OFFCURVE",
"752 540 OFFCURVE",
"750 573 CURVE SMOOTH",
"749 580 OFFCURVE",
"742 583 OFFCURVE",
"736 583 CURVE SMOOTH",
"726 583 OFFCURVE",
"718 578 OFFCURVE",
"710 573 CURVE SMOOTH",
"538 460 OFFCURVE",
"369 339 OFFCURVE",
"181 250 CURVE",
"227 355 OFFCURVE",
"294 449 OFFCURVE",
"354 546 CURVE SMOOTH",
"359 554 OFFCURVE",
"365 564 OFFCURVE",
"365 574 CURVE SMOOTH",
"364 589 OFFCURVE",
"347 592 OFFCURVE",
"336 592 CURVE SMOOTH",
"326 592 OFFCURVE",
"307 590 OFFCURVE",
"300 581 CURVE SMOOTH",
"280 556 OFFCURVE",
"264 520 OFFCURVE",
"247 492 CURVE SMOOTH",
"194 399 OFFCURVE",
"43 135 OFFCURVE",
"51 29 CURVE SMOOTH",
"53 4 OFFCURVE",
"64 -15 OFFCURVE",
"91 -15 CURVE SMOOTH",
"105 -15 OFFCURVE",
"104 8 OFFCURVE",
"96 8 CURVE SMOOTH",
"87 8 OFFCURVE",
"85 18 OFFCURVE",
"84 25 CURVE SMOOTH",
"78 112 OFFCURVE",
"189 224 OFFCURVE",
"263 250 CURVE",
"298 187 OFFCURVE",
"386 48 OFFCURVE",
"434 0 CURVE SMOOTH",
"451 -16 OFFCURVE",
"471 -27 OFFCURVE",
"494 -27 CURVE SMOOTH",
"545 -27 OFFCURVE",
"587 22 OFFCURVE",
"584 72 CURVE SMOOTH",
"583 86 OFFCURVE",
"570 127 OFFCURVE",
"553 127 CURVE SMOOTH",
"545 127 OFFCURVE",
"548 116 OFFCURVE",
"548 112 CURVE SMOOTH",
"550 80 OFFCURVE",
"546 0 OFFCURVE",
"502 0 CURVE SMOOTH",
"442 0 OFFCURVE",
"334 234 OFFCURVE",
"322 286 CURVE"
);
}
);
width = 586;
}
);
note = K;
unicode = 004B;
},
{
glyphname = L;
lastChange = "2021-08-24 17:12:24 +0000";
layers = (
{
hints = (
{
horizontal = 1;
place = "{0, 37}";
type = Stem;
},
{
horizontal = 1;
place = "{549, 57}";
type = Stem;
}
);
layerId = "5B3E1226-E0D0-4C23-AF14-DEF1E2C801D3";
paths = (
{
closed = 1;
nodes = (
"527 568 OFFCURVE",
"471 606 OFFCURVE",
"446 606 CURVE SMOOTH",
"311 606 OFFCURVE",
"50 165 OFFCURVE",
"47 31 CURVE",
"15 32 OFFCURVE",
"15 13 OFFCURVE",
"17 -12 CURVE SMOOTH",
"18 -23 OFFCURVE",
"22 -27 OFFCURVE",
"34 -27 CURVE SMOOTH",
"42 -27 OFFCURVE",
"138 -3 OFFCURVE",
"160 0 CURVE SMOOTH",
"260 15 OFFCURVE",
"291 19 OFFCURVE",
"393 19 CURVE SMOOTH",
"402 19 OFFCURVE",
"507 10 OFFCURVE",
"506 25 CURVE SMOOTH",
"503 56 OFFCURVE",
"403 56 OFFCURVE",
"372 56 CURVE SMOOTH",
"273 56 OFFCURVE",
"172 53 OFFCURVE",
"75 38 CURVE",
"90 163 OFFCURVE",
"352 549 OFFCURVE",
"483 549 CURVE SMOOTH",
"508 549 OFFCURVE",
"508 539 OFFCURVE",
"525 530 CURVE",
"530 530 OFFCURVE",
"530 538 OFFCURVE",
"529 541 CURVE"
);
}
);
width = 515;
}
);
note = L;
unicode = 004C;
},
{
color = 11;
glyphname = Lslash;
lastChange = "2021-08-24 17:20:19 +0000";
layers = (
{
hints = (
{
horizontal = 1;
place = "{0, 37}";
type = Stem;
},
{
horizontal = 1;
place = "{549, 57}";
type = Stem;
}
);
layerId = "5B3E1226-E0D0-4C23-AF14-DEF1E2C801D3";
paths = (
{
closed = 1;
nodes = (
"185 194 LINE SMOOTH",
"226 203 OFFCURVE",
"280 225 OFFCURVE",
"276 238 CURVE SMOOTH",
"274 247 OFFCURVE",
"227 236 OFFCURVE",
"210 231 CURVE SMOOTH",
"152 216 LINE",
"244 370 OFFCURVE",
"393 549 OFFCURVE",
"483 549 CURVE SMOOTH",
"508 549 OFFCURVE",
"508 539 OFFCURVE",
"525 530 CURVE",
"530 530 OFFCURVE",
"530 538 OFFCURVE",
"529 541 CURVE",
"527 568 OFFCURVE",
"471 606 OFFCURVE",
"446 606 CURVE SMOOTH",
"349 606 OFFCURVE",
"189 381 OFFCURVE",
"104 204 CURVE",
"79 197 OFFCURVE",
"71 195 OFFCURVE",
"50 190 CURVE SMOOTH",
"17 181 OFFCURVE",
"-20 140 OFFCURVE",
"14 149 CURVE SMOOTH",
"87 168 LINE",
"63 112 OFFCURVE",
"47 62 OFFCURVE",
"47 31 CURVE",
"15 32 OFFCURVE",
"15 13 OFFCURVE",
"17 -12 CURVE SMOOTH",
"18 -23 OFFCURVE",
"22 -27 OFFCURVE",
"34 -27 CURVE SMOOTH",
"42 -27 OFFCURVE",
"138 -3 OFFCURVE",
"160 0 CURVE SMOOTH",
"260 15 OFFCURVE",
"291 19 OFFCURVE",
"393 19 CURVE SMOOTH",
"402 19 OFFCURVE",
"507 10 OFFCURVE",
"506 25 CURVE SMOOTH",
"503 56 OFFCURVE",
"403 56 OFFCURVE",
"372 56 CURVE SMOOTH",
"273 56 OFFCURVE",
"172 53 OFFCURVE",
"75 38 CURVE",
"79 71 OFFCURVE",
"100 122 OFFCURVE",
"131 179 CURVE"
);
}
);
width = 515;
}
);
note = Lslash;
unicode = 0141;
},
{
glyphname = M;
lastChange = "2021-08-24 17:12:24 +0000";
layers = (
{
hints = (
{
horizontal = 1;
place = "{-9, 33}";
type = Stem;
},
{
horizontal = 1;
place = "{153, 30}";
type = Stem;
},
{
horizontal = 1;
place = "{599, -20}";
target = down;
type = TopGhost;
},
{
place = "{369, 57}";
type = Stem;
},
{
place = "{728, 34}";
type = Stem;
}
);
layerId = "5B3E1226-E0D0-4C23-AF14-DEF1E2C801D3";
paths = (
{
closed = 1;
nodes = (
"763 216 OFFCURVE",
"1013 553 OFFCURVE",
"1013 565 CURVE SMOOTH",
"1013 579 OFFCURVE",
"982 592 OFFCURVE",
"971 592 CURVE SMOOTH",
"895 592 OFFCURVE",
"728 139 OFFCURVE",
"728 50 CURVE SMOOTH",
"728 27 OFFCURVE",
"734 -9 OFFCURVE",
"763 -9 CURVE SMOOTH",
"788 -9 OFFCURVE",
"794 24 OFFCURVE",
"774 24 CURVE SMOOTH",
"761 24 OFFCURVE",
"763 43 OFFCURVE",
"763 52 CURVE SMOOTH"
);
},
{
closed = 1;
nodes = (
"600 153 OFFCURVE",
"824 414 OFFCURVE",
"874 509 CURVE",
"876 511 OFFCURVE",
"885 530 OFFCURVE",
"877 530 CURVE SMOOTH",
"855 530 OFFCURVE",
"569 183 OFFCURVE",
"463 183 CURVE SMOOTH",
"391 183 OFFCURVE",
"445 448 OFFCURVE",
"451 483 CURVE SMOOTH",
"455 507 OFFCURVE",
"463 536 OFFCURVE",
"463 560 CURVE SMOOTH",
"463 574 OFFCURVE",
"425 599 OFFCURVE",
"412 599 CURVE SMOOTH",
"341 599 OFFCURVE",
"32 86 OFFCURVE",
"32 -2 CURVE SMOOTH",
"32 -13 OFFCURVE",
"35 -41 OFFCURVE",
"51 -41 CURVE SMOOTH",
"61 -41 OFFCURVE",
"65 -33 OFFCURVE",
"66 -25 CURVE SMOOTH",
"98 149 OFFCURVE",
"270 377 OFFCURVE",
"391 503 CURVE",
"388 483 OFFCURVE",
"379 431 OFFCURVE",
"377 402 CURVE SMOOTH",
"368 295 OFFCURVE",
"368 153 OFFCURVE",
"486 153 CURVE SMOOTH"
);
}
);
width = 820;
}
);
note = M;
unicode = 004D;
},
{
glyphname = N;
lastChange = "2021-08-24 17:12:24 +0000";
layers = (
{
hints = (
{
horizontal = 1;
place = "{-37, 17}";
type = Stem;
},
{
horizontal = 1;
place = "{-6, 45}";
type = Stem;
},
{
horizontal = 1;
place = "{577, 36}";
type = Stem;
},
{
place = "{18, 28}";
type = Stem;
},
{
place = "{291, 52}";
type = Stem;
},
{
place = "{681, 52}";
type = Stem;
}
);
layerId = "5B3E1226-E0D0-4C23-AF14-DEF1E2C801D3";
paths = (
{
closed = 1;
nodes = (
"560 -6 OFFCURVE",
"858 613 OFFCURVE",
"676 613 CURVE SMOOTH",
"659 613 OFFCURVE",
"613 596 OFFCURVE",
"613 577 CURVE SMOOTH",
"613 571 OFFCURVE",
"621 570 OFFCURVE",
"625 570 CURVE SMOOTH",
"638 570 OFFCURVE",
"649 577 OFFCURVE",
"660 577 CURVE SMOOTH",
"719 577 OFFCURVE",
"636 334 OFFCURVE",
"604 264 CURVE SMOOTH",
"551 147 OFFCURVE",
"477 39 OFFCURVE",
"410 39 CURVE SMOOTH",
"272 39 OFFCURVE",
"386 478 OFFCURVE",
"401 539 CURVE",
"402 541 OFFCURVE",
"403 545 OFFCURVE",
"403 547 CURVE SMOOTH",
"403 569 OFFCURVE",
"381 590 OFFCURVE",
"360 590 CURVE SMOOTH",
"343 590 OFFCURVE",
"250 502 OFFCURVE",
"250 490 CURVE SMOOTH",
"250 483 OFFCURVE",
"261 481 OFFCURVE",
"265 480 CURVE",
"197 390 OFFCURVE",
"18 109 OFFCURVE",
"18 6 CURVE SMOOTH",
"18 -25 OFFCURVE",
"31 -37 OFFCURVE",
"61 -37 CURVE SMOOTH",
"76 -37 OFFCURVE",
"82 -21 OFFCURVE",
"56 -21 CURVE SMOOTH",
"47 -21 OFFCURVE",
"46 -11 OFFCURVE",
"46 -4 CURVE SMOOTH",
"46 122 OFFCURVE",
"273 399 OFFCURVE",
"357 494 CURVE",
"330 420 OFFCURVE",
"210 -6 OFFCURVE",
"380 -6 CURVE SMOOTH"
);
}
);
width = 578;
}
);
note = N;
unicode = 004E;
},
{
color = 3;
glyphname = Eng;
lastChange = "2021-08-24 17:21:09 +0000";
layers = (
{
hints = (
{
horizontal = 1;
place = "{-37, 17}";
type = Stem;
},
{
horizontal = 1;
place = "{-6, 45}";
type = Stem;
},
{
horizontal = 1;
place = "{577, 36}";
type = Stem;
},
{
place = "{18, 28}";
type = Stem;
},
{
place = "{291, 52}";
type = Stem;
},
{
place = "{681, 52}";
type = Stem;
},
{
horizontal = 1;
place = "{-53, 23}";
type = Stem;
},
{
horizontal = 1;
place = "{609, -20}";
target = down;
type = TopGhost;
},
{
place = "{614, 40}";
type = Stem;
},
{
place = "{857, 135}";
type = Stem;
}
);
layerId = "5B3E1226-E0D0-4C23-AF14-DEF1E2C801D3";
paths = (
{
closed = 1;
nodes = (
"659 613 OFFCURVE",
"613 596 OFFCURVE",
"613 577 CURVE SMOOTH",
"613 571 OFFCURVE",
"621 570 OFFCURVE",
"625 570 CURVE SMOOTH",
"638 570 OFFCURVE",
"649 577 OFFCURVE",
"660 577 CURVE SMOOTH",
"719 577 OFFCURVE",
"636 334 OFFCURVE",
"604 264 CURVE SMOOTH",
"579 212 LINE SMOOTH",
"529 117 OFFCURVE",
"467 39 OFFCURVE",
"410 39 CURVE SMOOTH",
"272 39 OFFCURVE",
"386 478 OFFCURVE",
"401 539 CURVE",
"402 541 OFFCURVE",
"403 545 OFFCURVE",
"403 547 CURVE SMOOTH",
"403 569 OFFCURVE",
"381 590 OFFCURVE",
"360 590 CURVE SMOOTH",
"343 590 OFFCURVE",
"250 502 OFFCURVE",
"250 490 CURVE SMOOTH",
"250 483 OFFCURVE",
"261 481 OFFCURVE",
"265 480 CURVE",
"197 390 OFFCURVE",
"18 109 OFFCURVE",
"18 6 CURVE SMOOTH",
"18 -25 OFFCURVE",
"31 -37 OFFCURVE",
"61 -37 CURVE SMOOTH",
"76 -37 OFFCURVE",
"82 -21 OFFCURVE",
"56 -21 CURVE SMOOTH",
"47 -21 OFFCURVE",
"46 -11 OFFCURVE",
"46 -4 CURVE SMOOTH",
"46 122 OFFCURVE",
"273 399 OFFCURVE",
"357 494 CURVE",
"330 420 OFFCURVE",
"210 -6 OFFCURVE",
"380 -6 CURVE SMOOTH",
"419 -6 OFFCURVE",
"463 23 OFFCURVE",
"506 67 CURVE",
"414 -111 OFFCURVE",
"286 -326 OFFCURVE",
"193 -326 CURVE SMOOTH",
"113 -326 OFFCURVE",
"114 -121 OFFCURVE",
"182 -67 CURVE SMOOTH",
"193 -58 OFFCURVE",
"180 -43 OFFCURVE",
"170 -51 CURVE SMOOTH",
"63 -137 OFFCURVE",
"66 -350 OFFCURVE",
"187 -350 CURVE SMOOTH",
"366 -350 OFFCURVE",
"586 79 OFFCURVE",
"692 368 CURVE SMOOTH",
"744 498 OFFCURVE",
"754 613 OFFCURVE",
"676 613 CURVE SMOOTH"
);
}
);
width = 578;
}
);
unicode = 014A;
},
{
glyphname = O;
lastChange = "2021-08-24 17:12:24 +0000";
layers = (
{
hints = (
{
horizontal = 1;
place = "{-25, 33}";
type = Stem;
},
{
horizontal = 1;
place = "{560, 31}";
type = Stem;
},
{
place = "{100, 35}";
type = Stem;
},
{
place = "{756, 46}";
type = Stem;
}
);
layerId = "5B3E1226-E0D0-4C23-AF14-DEF1E2C801D3";
paths = (
{
closed = 1;
nodes = (
"802 530 OFFCURVE",
"666 591 OFFCURVE",
"532 591 CURVE SMOOTH",
"396 591 OFFCURVE",
"228 527 OFFCURVE",
"145 416 CURVE SMOOTH",
"131 398 OFFCURVE",
"141 384 OFFCURVE",
"161 402 CURVE SMOOTH",
"213 449 OFFCURVE",
"274 488 OFFCURVE",
"340 511 CURVE",
"235 421 OFFCURVE",
"100 284 OFFCURVE",
"100 136 CURVE SMOOTH",
"100 30 OFFCURVE",
"155 -25 OFFCURVE",
"260 -25 CURVE SMOOTH",
"451 -25 OFFCURVE",
"802 161 OFFCURVE",
"802 377 CURVE SMOOTH"
);
},
{
closed = 1;
nodes = (
"755 218 OFFCURVE",
"439 8 OFFCURVE",
"252 8 CURVE SMOOTH",
"175 8 OFFCURVE",
"135 48 OFFCURVE",
"135 126 CURVE SMOOTH",
"135 264 OFFCURVE",
"329 447 OFFCURVE",
"453 486 CURVE SMOOTH",
"459 488 OFFCURVE",
"464 492 OFFCURVE",
"464 499 CURVE SMOOTH",
"464 523 OFFCURVE",
"427 535 OFFCURVE",
"409 538 CURVE",
"455 553 OFFCURVE",
"503 560 OFFCURVE",
"551 560 CURVE SMOOTH",
"640 560 OFFCURVE",
"755 531 OFFCURVE",
"755 421 CURVE SMOOTH"
);
}
);
width = 698;
}
);
note = O;
unicode = 004F;
},
{
glyphname = Oslash;
lastChange = "2021-08-24 17:12:24 +0000";
layers = (
{
hints = (
{
horizontal = 1;
place = "{-25, 33}";
type = Stem;
},
{
horizontal = 1;
place = "{560, 31}";
type = Stem;
},
{
place = "{59, 35}";
type = Stem;
},
{
place = "{715, 46}";
type = Stem;
}
);
layerId = "5B3E1226-E0D0-4C23-AF14-DEF1E2C801D3";
paths = (
{
closed = 1;
nodes = (
"4 -96 LINE SMOOTH",
"-15 -116 OFFCURVE",
"36 -111 OFFCURVE",
"48 -98 CURVE SMOOTH",
"132 -7 LINE",
"155 -19 OFFCURVE",
"184 -25 OFFCURVE",
"219 -25 CURVE SMOOTH",
"410 -25 OFFCURVE",
"761 161 OFFCURVE",
"761 377 CURVE SMOOTH",
"761 464 OFFCURVE",
"717 521 OFFCURVE",
"654 554 CURVE",
"724 629 LINE SMOOTH",
"755 661 OFFCURVE",
"673 662 OFFCURVE",
"654 639 CURVE SMOOTH",
"596 577 LINE",
"562 587 OFFCURVE",
"527 591 OFFCURVE",
"491 591 CURVE SMOOTH",
"355 591 OFFCURVE",
"187 527 OFFCURVE",
"104 416 CURVE SMOOTH",
"90 398 OFFCURVE",
"100 384 OFFCURVE",
"120 402 CURVE SMOOTH",
"172 449 OFFCURVE",
"233 488 OFFCURVE",
"299 511 CURVE",
"194 421 OFFCURVE",
"59 284 OFFCURVE",
"59 136 CURVE SMOOTH",
"59 80 OFFCURVE",
"74 38 OFFCURVE",
"104 11 CURVE"
);
},
{
closed = 1;
nodes = (
"714 218 OFFCURVE",
"398 8 OFFCURVE",
"211 8 CURVE SMOOTH",
"189 8 OFFCURVE",
"170 11 OFFCURVE",
"155 17 CURVE",
"637 536 LINE",
"681 515 OFFCURVE",
"714 479 OFFCURVE",
"714 421 CURVE SMOOTH"
);
},
{
closed = 1;
nodes = (
"94 264 OFFCURVE",
"288 447 OFFCURVE",
"412 486 CURVE SMOOTH",
"418 488 OFFCURVE",
"423 492 OFFCURVE",
"423 499 CURVE SMOOTH",
"423 523 OFFCURVE",
"386 535 OFFCURVE",
"368 538 CURVE",
"414 553 OFFCURVE",
"462 560 OFFCURVE",
"510 560 CURVE SMOOTH",
"531 560 OFFCURVE",
"553 558 OFFCURVE",
"575 554 CURVE",
"425 390 OFFCURVE",
"287 215 OFFCURVE",
"126 35 CURVE",
"104 55 OFFCURVE",
"94 85 OFFCURVE",
"94 126 CURVE SMOOTH"
);
}
);
width = 657;
}
);
note = Oslash;
unicode = 00D8;
},
{
glyphname = OE;
lastChange = "2021-08-24 17:12:24 +0000";
layers = (
{
hints = (
{
horizontal = 1;
place = "{-25, 33}";
type = Stem;
},
{
horizontal = 1;
place = "{549, 35}";
type = Stem;
},
{
place = "{59, 35}";
type = Stem;
},
{
place = "{715, 46}";
type = Stem;
},
{
horizontal = 1;
place = "{560, 31}";
type = Stem;
},
{
horizontal = 1;
place = "{-26, 50}";
type = Stem;
}
);
layerId = "5B3E1226-E0D0-4C23-AF14-DEF1E2C801D3";
paths = (
{
closed = 1;
nodes = (
"1168 501 OFFCURVE",
"1203 559 OFFCURVE",
"1149 575 CURVE",
"1101 583 OFFCURVE",
"1052 584 OFFCURVE",
"1005 584 CURVE SMOOTH",
"958 584 OFFCURVE",
"737 586 OFFCURVE",
"743 529 CURVE SMOOTH",
"746 505 OFFCURVE",
"759 517 OFFCURVE",
"766 504 CURVE",
"758 494 OFFCURVE",
"750 481 OFFCURVE",
"741 467 CURVE",
"699 555 OFFCURVE",
"595 591 OFFCURVE",
"491 591 CURVE SMOOTH",
"355 591 OFFCURVE",
"187 527 OFFCURVE",
"104 416 CURVE SMOOTH",
"90 398 OFFCURVE",
"100 384 OFFCURVE",
"120 402 CURVE SMOOTH",
"172 449 OFFCURVE",
"233 488 OFFCURVE",
"299 511 CURVE",
"194 421 OFFCURVE",
"59 284 OFFCURVE",
"59 136 CURVE SMOOTH",
"59 30 OFFCURVE",
"114 -25 OFFCURVE",
"219 -25 CURVE SMOOTH",
"313 -25 OFFCURVE",
"445 20 OFFCURVE",
"555 91 CURVE",
"555 89 OFFCURVE",
"556 87 OFFCURVE",
"556 85 CURVE SMOOTH",
"566 4 OFFCURVE",
"623 -26 OFFCURVE",
"697 -26 CURVE SMOOTH",
"801 -26 OFFCURVE",
"1073 65 OFFCURVE",
"1126 142 CURVE SMOOTH",
"1132 151 OFFCURVE",
"1133 160 OFFCURVE",
"1119 153 CURVE SMOOTH",
"1020 98 OFFCURVE",
"828 25 OFFCURVE",
"707 25 CURVE SMOOTH",
"516 25 OFFCURVE",
"666 261 OFFCURVE",
"684 300 CURVE",
"792 345 OFFCURVE",
"925 324 OFFCURVE",
"1040 343 CURVE SMOOTH",
"1050 345 OFFCURVE",
"1099 362 OFFCURVE",
"1065 366 CURVE SMOOTH",
"1029 370 OFFCURVE",
"991 369 OFFCURVE",
"955 369 CURVE SMOOTH",
"878 369 OFFCURVE",
"802 358 OFFCURVE",
"725 360 CURVE",
"748 391 OFFCURVE",
"839 506 OFFCURVE",
"865 523 CURVE SMOOTH",
"894 543 OFFCURVE",
"1027 549 OFFCURVE",
"1067 549 CURVE SMOOTH",
"1088 549 OFFCURVE",
"1125 550 OFFCURVE",
"1146 541 CURVE"
);
},
{
closed = 1;
nodes = (
"134 8 OFFCURVE",
"94 48 OFFCURVE",
"94 126 CURVE SMOOTH",
"94 264 OFFCURVE",
"288 447 OFFCURVE",
"412 486 CURVE SMOOTH",
"418 488 OFFCURVE",
"423 492 OFFCURVE",
"423 499 CURVE SMOOTH",
"423 523 OFFCURVE",
"386 535 OFFCURVE",
"368 538 CURVE",
"414 553 OFFCURVE",
"462 560 OFFCURVE",
"510 560 CURVE SMOOTH",
"597 560 OFFCURVE",
"710 532 OFFCURVE",
"714 426 CURVE",
"684 382 OFFCURVE",
"647 339 OFFCURVE",
"602 339 CURVE SMOOTH",
"593 339 OFFCURVE",
"565 347 OFFCURVE",
"567 330 CURVE SMOOTH",
"570 303 OFFCURVE",
"610 303 OFFCURVE",
"628 302 CURVE",
"609 263 OFFCURVE",
"582 215 OFFCURVE",
"566 166 CURVE",
"459 73 OFFCURVE",
"315 8 OFFCURVE",
"211 8 CURVE SMOOTH"
);
}
);
width = 1058;
}
);
note = OE;
unicode = 0152;
},
{
glyphname = P;
lastChange = "2021-08-24 17:12:24 +0000";
layers = (
{
hints = (
{
horizontal = 1;
place = "{569, 27}";
type = Stem;
},
{
place = "{48, 33}";
type = Stem;
},
{
place = "{592, 39}";
type = Stem;
}
);
layerId = "5B3E1226-E0D0-4C23-AF14-DEF1E2C801D3";
paths = (
{
closed = 1;
nodes = (
"418 569 OFFCURVE",
"584 554 OFFCURVE",
"591 457 CURVE SMOOTH",
"601 324 OFFCURVE",
"337 263 OFFCURVE",
"224 248 CURVE SMOOTH",
"209 246 OFFCURVE",
"192 239 OFFCURVE",
"221 229 CURVE SMOOTH",
"234 225 OFFCURVE",
"252 225 OFFCURVE",
"260 225 CURVE SMOOTH",
"383 225 OFFCURVE",
"643 286 OFFCURVE",
"630 449 CURVE SMOOTH",
"621 574 OFFCURVE",
"434 596 OFFCURVE",
"344 596 CURVE SMOOTH",
"293 596 OFFCURVE",
"-11 568 OFFCURVE",
"-5 487 CURVE SMOOTH",
"-5 478 OFFCURVE",
"4 482 OFFCURVE",
"9 484 CURVE SMOOTH",
"100 529 OFFCURVE",
"246 569 OFFCURVE",
"351 569 CURVE SMOOTH"
);
},
{
closed = 1;
nodes = (
"64 206 OFFCURVE",
"369 502 OFFCURVE",
"368 524 CURVE SMOOTH",
"367 536 OFFCURVE",
"356 547 OFFCURVE",
"344 554 CURVE SMOOTH",
"315 572 OFFCURVE",
"291 519 OFFCURVE",
"276 499 CURVE SMOOTH",
"178 370 OFFCURVE",
"39 140 OFFCURVE",
"48 26 CURVE SMOOTH",
"49 14 OFFCURVE",
"58 -24 OFFCURVE",
"75 -24 CURVE SMOOTH",
"82 -24 OFFCURVE",
"81 -14 OFFCURVE",
"81 -10 CURVE SMOOTH"
);
}
);
width = 461;
}
);
note = P;
unicode = 0050;
},
{
glyphname = Thorn;
lastChange = "2021-08-24 17:12:24 +0000";
layers = (
{
hints = (
{
horizontal = 1;
place = "{569, 27}";
type = Stem;
},
{
place = "{48, 33}";
type = Stem;
},
{
place = "{592, 39}";
type = Stem;
}
);
layerId = "5B3E1226-E0D0-4C23-AF14-DEF1E2C801D3";
paths = (
{
closed = 1;
nodes = (
"70 130 OFFCURVE",
"243 383 OFFCURVE",
"366 549 CURVE",
"442 542 OFFCURVE",
"545 516 OFFCURVE",
"551 440 CURVE SMOOTH",
"561 307 OFFCURVE",
"297 246 OFFCURVE",
"184 231 CURVE SMOOTH",
"169 229 OFFCURVE",
"152 222 OFFCURVE",
"181 212 CURVE SMOOTH",
"194 208 OFFCURVE",
"212 208 OFFCURVE",
"220 208 CURVE SMOOTH",
"343 208 OFFCURVE",
"603 269 OFFCURVE",
"590 432 CURVE SMOOTH",
"583 526 OFFCURVE",
"475 561 OFFCURVE",
"384 573 CURVE",
"441 650 OFFCURVE",
"484 705 OFFCURVE",
"484 712 CURVE SMOOTH",
"483 724 OFFCURVE",
"472 735 OFFCURVE",
"460 742 CURVE SMOOTH",
"431 760 OFFCURVE",
"407 707 OFFCURVE",
"392 687 CURVE SMOOTH",
"372 661 OFFCURVE",
"346 623 OFFCURVE",
"317 579 CURVE",
"304 579 LINE SMOOTH",
"253 579 OFFCURVE",
"148 557 OFFCURVE",
"151 514 CURVE SMOOTH",
"151 509 OFFCURVE",
"156 511 OFFCURVE",
"159 512 CURVE SMOOTH",
"203 534 OFFCURVE",
"261 549 OFFCURVE",
"299 551 CURVE",
"186 374 OFFCURVE",
"41 112 OFFCURVE",
"48 26 CURVE SMOOTH",
"49 14 OFFCURVE",
"58 -24 OFFCURVE",
"75 -24 CURVE SMOOTH",
"82 -24 OFFCURVE",
"81 -14 OFFCURVE",
"81 -10 CURVE SMOOTH"
);
}
);
width = 461;
}
);
note = Thorn;
unicode = 00DE;
},
{
glyphname = Q;
lastChange = "2021-08-24 17:12:24 +0000";
layers = (
{
hints = (
{
horizontal = 1;
place = "{-110, 35}";
type = Stem;
},
{
horizontal = 1;
place = "{-30, 37}";
type = Stem;
},
{
horizontal = 1;
place = "{107, 75}";
type = Stem;
},
{
horizontal = 1;
place = "{558, 34}";
type = Stem;
},
{
place = "{24, 32}";
type = Stem;
},
{
place = "{171, 272}";
type = Stem;
},
{
place = "{679, 30}";
type = Stem;
},
{
place = "{718, 37}";
type = Stem;
}
);
layerId = "5B3E1226-E0D0-4C23-AF14-DEF1E2C801D3";
paths = (
{
closed = 1;
nodes = (
"755 511 OFFCURVE",
"613 592 OFFCURVE",
"475 592 CURVE SMOOTH",
"411 592 OFFCURVE",
"171 530 OFFCURVE",
"171 446 CURVE SMOOTH",
"171 440 OFFCURVE",
"173 435 OFFCURVE",
"176 431 CURVE",
"104 353 OFFCURVE",
"24 235 OFFCURVE",
"24 125 CURVE SMOOTH",
"24 19 OFFCURVE",
"98 -30 OFFCURVE",
"197 -30 CURVE SMOOTH",
"245 -30 OFFCURVE",
"294 -21 OFFCURVE",
"340 -8 CURVE SMOOTH",
"395 7 LINE",
"401 7 OFFCURVE",
"556 -110 OFFCURVE",
"644 -110 CURVE SMOOTH",
"680 -110 OFFCURVE",
"709 -89 OFFCURVE",
"709 -51 CURVE SMOOTH",
"709 -26 OFFCURVE",
"679 11 OFFCURVE",
"679 -40 CURVE SMOOTH",
"679 -68 OFFCURVE",
"664 -75 OFFCURVE",
"639 -75 CURVE SMOOTH",
"575 -75 OFFCURVE",
"489 -13 OFFCURVE",
"444 29 CURVE",
"564 72 OFFCURVE",
"755 218 OFFCURVE",
"755 359 CURVE SMOOTH"
);
},
{
closed = 1;
nodes = (
"718 269 OFFCURVE",
"513 91 OFFCURVE",
"414 55 CURVE",
"380 84 OFFCURVE",
"276 182 OFFCURVE",
"236 182 CURVE SMOOTH",
"211 182 OFFCURVE",
"200 161 OFFCURVE",
"200 139 CURVE SMOOTH",
"200 98 OFFCURVE",
"213 103 OFFCURVE",
"236 117 CURVE",
"281 104 OFFCURVE",
"320 64 OFFCURVE",
"357 36 CURVE",
"301 23 OFFCURVE",
"251 7 OFFCURVE",
"193 7 CURVE SMOOTH",
"124 7 OFFCURVE",
"56 31 OFFCURVE",
"56 112 CURVE SMOOTH",
"56 219 OFFCURVE",
"139 345 OFFCURVE",
"221 410 CURVE SMOOTH",
"281 457 OFFCURVE",
"352 489 OFFCURVE",
"423 516 CURVE SMOOTH",
"429 518 OFFCURVE",
"443 522 OFFCURVE",
"443 532 CURVE SMOOTH",
"443 541 OFFCURVE",
"427 549 OFFCURVE",
"418 552 CURVE",
"435 554 OFFCURVE",
"454 558 OFFCURVE",
"472 558 CURVE SMOOTH",
"576 558 OFFCURVE",
"718 505 OFFCURVE",
"718 381 CURVE SMOOTH"
);
}
);
width = 694;
}
);
note = Q;
unicode = 0051;
},
{
glyphname = R;
lastChange = "2021-08-24 17:12:24 +0000";
layers = (
{
hints = (
{
horizontal = 1;
place = "{-59, 23}";
type = Stem;
},
{
horizontal = 1;
place = "{-27, 27}";
type = Stem;
},
{
horizontal = 1;
place = "{569, 27}";
type = Stem;
},
{
place = "{59, 33}";
type = Stem;
},
{
place = "{540, 36}";
type = Stem;
},
{
place = "{601, 39}";
type = Stem;
}
);
layerId = "5B3E1226-E0D0-4C23-AF14-DEF1E2C801D3";
paths = (
{
closed = 1;
nodes = (
"87 47 OFFCURVE",
"165 174 OFFCURVE",
"188 218 CURVE SMOOTH",
"240 320 OFFCURVE",
"301 405 OFFCURVE",
"361 502 CURVE",
"367 510 OFFCURVE",
"373 520 OFFCURVE",
"372 530 CURVE SMOOTH",
"371 545 OFFCURVE",
"354 548 OFFCURVE",
"344 548 CURVE SMOOTH",
"334 548 OFFCURVE",
"314 546 OFFCURVE",
"308 537 CURVE SMOOTH",
"288 512 OFFCURVE",
"271 476 OFFCURVE",
"255 448 CURVE SMOOTH",
"201 355 OFFCURVE",
"51 91 OFFCURVE",
"59 -15 CURVE SMOOTH",
"60 -40 OFFCURVE",
"72 -59 OFFCURVE",
"99 -59 CURVE SMOOTH",
"112 -59 OFFCURVE",
"112 -36 OFFCURVE",
"104 -36 CURVE SMOOTH",
"95 -36 OFFCURVE",
"92 -26 OFFCURVE",
"92 -19 CURVE SMOOTH"
);
},
{
closed = 1;
nodes = (
"428 569 OFFCURVE",
"593 554 OFFCURVE",
"601 457 CURVE SMOOTH",
"611 323 OFFCURVE",
"346 263 OFFCURVE",
"234 248 CURVE SMOOTH",
"218 246 OFFCURVE",
"202 239 OFFCURVE",
"230 229 CURVE SMOOTH",
"240 226 OFFCURVE",
"254 225 OFFCURVE",
"263 225 CURVE",
"300 160 OFFCURVE",
"380 46 OFFCURVE",
"427 0 CURVE SMOOTH",
"444 -16 OFFCURVE",
"463 -27 OFFCURVE",
"487 -27 CURVE SMOOTH",
"537 -27 OFFCURVE",
"580 22 OFFCURVE",
"576 72 CURVE SMOOTH",
"575 86 OFFCURVE",
"563 127 OFFCURVE",
"545 127 CURVE SMOOTH",
"538 127 OFFCURVE",
"540 116 OFFCURVE",
"540 112 CURVE SMOOTH",
"543 80 OFFCURVE",
"539 0 OFFCURVE",
"494 0 CURVE SMOOTH",
"442 0 OFFCURVE",
"357 154 OFFCURVE",
"328 229 CURVE",
"460 244 OFFCURVE",
"650 308 OFFCURVE",
"640 449 CURVE SMOOTH",
"630 574 OFFCURVE",
"444 596 OFFCURVE",
"354 596 CURVE SMOOTH",
"302 596 OFFCURVE",
"-2 568 OFFCURVE",
"4 487 CURVE SMOOTH",
"5 478 OFFCURVE",
"14 482 OFFCURVE",
"18 484 CURVE SMOOTH",
"109 529 OFFCURVE",
"256 569 OFFCURVE",
"360 569 CURVE SMOOTH"
);
}
);
width = 554;
}
);
note = R;
unicode = 0052;
},
{
glyphname = S;
lastChange = "2021-08-24 17:12:24 +0000";
layers = (
{
hints = (
{
horizontal = 1;
place = "{-44, 55}";
type = Stem;
},
{
horizontal = 1;
place = "{540, 42}";
type = Stem;
},
{
place = "{153, 32}";
type = Stem;
},
{
place = "{336, 49}";
type = Stem;
},
{
place = "{581, 37}";
type = Stem;
}
);
layerId = "5B3E1226-E0D0-4C23-AF14-DEF1E2C801D3";
paths = (
{
closed = 1;
nodes = (
"621 546 OFFCURVE",
"537 573 OFFCURVE",
"483 579 CURVE SMOOTH",
"350 596 OFFCURVE",
"158 536 OFFCURVE",
"154 378 CURVE SMOOTH",
"149 230 OFFCURVE",
"337 112 OFFCURVE",
"336 66 CURVE SMOOTH",
"334 7 OFFCURVE",
"220 8 OFFCURVE",
"179 13 CURVE SMOOTH",
"154 16 OFFCURVE",
"133 31 OFFCURVE",
"111 33 CURVE SMOOTH",
"106 34 OFFCURVE",
"101 33 OFFCURVE",
"101 27 CURVE SMOOTH",
"100 -10 OFFCURVE",
"203 -40 OFFCURVE",
"228 -43 CURVE SMOOTH",
"273 -48 OFFCURVE",
"383 -41 OFFCURVE",
"385 18 CURVE SMOOTH",
"388 106 OFFCURVE",
"183 235 OFFCURVE",
"185 330 CURVE SMOOTH",
"189 463 OFFCURVE",
"392 553 OFFCURVE",
"508 539 CURVE SMOOTH",
"534 535 OFFCURVE",
"583 525 OFFCURVE",
"582 489 CURVE SMOOTH",
"580 416 OFFCURVE",
"469 340 OFFCURVE",
"456 310 CURVE",
"456 307 OFFCURVE",
"458 306 OFFCURVE",
"461 305 CURVE",
"465 305 OFFCURVE",
"469 306 OFFCURVE",
"473 308 CURVE SMOOTH",
"535 333 OFFCURVE",
"616 400 OFFCURVE",
"619 475 CURVE SMOOTH"
);
}
);
width = 448;
}
);
note = S;
unicode = 0053;
},
{
color = 3;
glyphname = Germandbls;
lastChange = "2021-08-24 17:21:09 +0000";
layers = (
{
hints = (
{
horizontal = 1;
place = "{-44, 55}";
type = Stem;
},
{
horizontal = 1;
place = "{540, 42}";
type = Stem;
},
{
place = "{153, 32}";
type = Stem;
},
{
place = "{336, 49}";
type = Stem;
},
{
place = "{581, 37}";
type = Stem;
},
{
horizontal = 1;
place = "{-44, 55}";
type = Stem;
},
{
horizontal = 1;
place = "{540, 42}";
type = Stem;
},
{
place = "{656, 32}";
type = Stem;
},
{
place = "{839, 49}";
type = Stem;
},
{
place = "{1084, 37}";
type = Stem;
},
{
horizontal = 1;
place = "{-241, 31}";
type = Stem;
},
{
horizontal = 1;
place = "{-33, 24}";
type = Stem;
},
{
horizontal = 1;
place = "{541, 29}";
type = Stem;
},
{
place = "{145, 29}";
type = Stem;
},
{
place = "{317, 43}";
type = Stem;
},
{
place = "{402, 64}";
type = Stem;
},
{
place = "{526, 34}";
type = Stem;
}
);
layerId = "5B3E1226-E0D0-4C23-AF14-DEF1E2C801D3";
paths = (
{
closed = 1;
nodes = (
"190 68 OFFCURVE",
"238 95 OFFCURVE",
"256 109 CURVE SMOOTH",
"279 127 OFFCURVE",
"264 124 OFFCURVE",
"244 117 CURVE SMOOTH",
"218 107 OFFCURVE",
"160 78 OFFCURVE",
"160 43 CURVE SMOOTH",
"160 6 OFFCURVE",
"190 -18 OFFCURVE",
"226 -25 CURVE SMOOTH",
"391 -56 OFFCURVE",
"520 14 OFFCURVE",
"469 147 CURVE SMOOTH",
"451 193 OFFCURVE",
"434 206 OFFCURVE",
"402 263 CURVE SMOOTH",
"368 322 OFFCURVE",
"413 349 OFFCURVE",
"460 370 CURVE SMOOTH",
"557 414 OFFCURVE",
"624 481 OFFCURVE",
"624 525 CURVE SMOOTH",
"624 591 OFFCURVE",
"471 617 OFFCURVE",
"405 574 CURVE SMOOTH",
"358 544 OFFCURVE",
"133 160 OFFCURVE",
"48 -29 CURVE SMOOTH",
"-3 -141 OFFCURVE",
"43 -123 OFFCURVE",
"58 -85 CURVE SMOOTH",
"186 152 OFFCURVE",
"291 380 OFFCURVE",
"416 521 CURVE SMOOTH",
"448 557 OFFCURVE",
"480 570 OFFCURVE",
"514 570 CURVE SMOOTH",
"610 570 OFFCURVE",
"576 448 OFFCURVE",
"451 387 CURVE SMOOTH",
"392 358 OFFCURVE",
"338 346 OFFCURVE",
"338 291 CURVE SMOOTH",
"338 207 OFFCURVE",
"418 181 OFFCURVE",
"418 92 CURVE SMOOTH",
"418 -5 OFFCURVE",
"190 -47 OFFCURVE",
"190 38 CURVE SMOOTH"
);
}
);
width = 518;
}
);
unicode = 1E9E;
},
{
glyphname = Schwa;
lastChange = "2021-08-24 17:34:20 +0000";
layers = (
{
hints = (
{
horizontal = 1;
place = "{607, -29}";
type = Stem;
},
{
horizontal = 1;
place = "{10, -24}";
type = Stem;
},
{
place = "{509, -56}";
type = Stem;
},
{
place = "{11, -40}";
type = Stem;
}
);
layerId = "5B3E1226-E0D0-4C23-AF14-DEF1E2C801D3";
paths = (
{
closed = 1;
nodes = (
"308 610 OFFCURVE",
"127 504 OFFCURVE",
"41 416 CURVE SMOOTH",
"29 404 OFFCURVE",
"31 388 OFFCURVE",
"37 393 CURVE SMOOTH",
"85 430 OFFCURVE",
"295 581 OFFCURVE",
"451 579 CURVE SMOOTH",
"505 578 OFFCURVE",
"559 549 OFFCURVE",
"565 490 CURVE SMOOTH",
"580 324 OFFCURVE",
"335 6 OFFCURVE",
"165 10 CURVE SMOOTH",
"143 10 OFFCURVE",
"125 20 OFFCURVE",
"123 43 CURVE SMOOTH",
"117 104 OFFCURVE",
"229 317 OFFCURVE",
"549 340 CURVE",
"548 347 OFFCURVE",
"570 362 OFFCURVE",
"565 362 CURVE SMOOTH",
"173 362 OFFCURVE",
"79 109 OFFCURVE",
"83 64 CURVE SMOOTH",
"87 17 OFFCURVE",
"127 -13 OFFCURVE",
"172 -14 CURVE SMOOTH",
"351 -17 OFFCURVE",
"637 276 OFFCURVE",
"621 458 CURVE SMOOTH",
"612 560 OFFCURVE",
"534 606 OFFCURVE",
"440 607 CURVE SMOOTH"
);
}
);
width = 554;
}
);
unicode = 018F;
},
{
glyphname = T;
lastChange = "2021-08-24 17:12:24 +0000";
layers = (
{
hints = (
{
horizontal = 1;
place = "{-75, 23}";
type = Stem;
},
{
horizontal = 1;
place = "{552, 35}";
type = Stem;
},
{
place = "{93, 33}";
type = Stem;
}
);
layerId = "5B3E1226-E0D0-4C23-AF14-DEF1E2C801D3";
paths = (
{
closed = 1;
nodes = (
"751 558 OFFCURVE",
"715 565 OFFCURVE",
"707 567 CURVE SMOOTH",
"592 589 OFFCURVE",
"461 587 OFFCURVE",
"344 587 CURVE SMOOTH",
"306 587 OFFCURVE",
"15 587 OFFCURVE",
"15 531 CURVE SMOOTH",
"15 506 OFFCURVE",
"26 495 OFFCURVE",
"52 495 CURVE SMOOTH",
"74 495 OFFCURVE",
"191 516 OFFCURVE",
"196 538 CURVE",
"297 550 OFFCURVE",
"401 552 OFFCURVE",
"502 552 CURVE SMOOTH",
"559 552 OFFCURVE",
"618 552 OFFCURVE",
"673 543 CURVE SMOOTH",
"690 540 OFFCURVE",
"708 537 OFFCURVE",
"725 537 CURVE SMOOTH",
"728 537 OFFCURVE",
"751 536 OFFCURVE",
"751 545 CURVE SMOOTH"
);
},
{
closed = 1;
nodes = (
"122 31 OFFCURVE",
"199 158 OFFCURVE",
"222 202 CURVE SMOOTH",
"274 304 OFFCURVE",
"336 389 OFFCURVE",
"396 486 CURVE SMOOTH",
"401 494 OFFCURVE",
"407 504 OFFCURVE",
"407 515 CURVE SMOOTH",
"406 529 OFFCURVE",
"389 532 OFFCURVE",
"378 532 CURVE SMOOTH",
"368 532 OFFCURVE",
"349 530 OFFCURVE",
"342 521 CURVE SMOOTH",
"322 496 OFFCURVE",
"305 460 OFFCURVE",
"289 432 CURVE SMOOTH",
"236 340 OFFCURVE",
"85 75 OFFCURVE",
"93 -31 CURVE SMOOTH",
"95 -56 OFFCURVE",
"106 -75 OFFCURVE",
"133 -75 CURVE SMOOTH",
"146 -75 OFFCURVE",
"146 -52 OFFCURVE",
"138 -52 CURVE SMOOTH",
"129 -52 OFFCURVE",
"127 -42 OFFCURVE",
"126 -35 CURVE SMOOTH"
);
}
);
width = 390;
}
);
note = T;
unicode = 0054;
},
{
glyphname = U;
lastChange = "2021-08-24 17:12:24 +0000";
layers = (
{
hints = (
{
horizontal = 1;
place = "{-3, 31}";
type = Stem;
},
{
horizontal = 1;
place = "{596, -20}";
target = down;
type = TopGhost;
},
{
place = "{22, 39}";
type = Stem;
},
{
place = "{405, 47}";
type = Stem;
}
);
layerId = "5B3E1226-E0D0-4C23-AF14-DEF1E2C801D3";
paths = (
{
closed = 1;
nodes = (
"425 40 OFFCURVE",
"453 212 OFFCURVE",
"558 415 CURVE SMOOTH",
"605 506 OFFCURVE",
"651 569 OFFCURVE",
"651 576 CURVE SMOOTH",
"651 592 OFFCURVE",
"619 596 OFFCURVE",
"609 596 CURVE SMOOTH",
"592 596 OFFCURVE",
"578 592 OFFCURVE",
"568 577 CURVE SMOOTH",
"546 544 OFFCURVE",
"530 499 OFFCURVE",
"512 463 CURVE SMOOTH",
"445 329 OFFCURVE",
"273 28 OFFCURVE",
"101 28 CURVE SMOOTH",
"68 28 OFFCURVE",
"61 58 OFFCURVE",
"61 84 CURVE SMOOTH",
"61 215 OFFCURVE",
"206 423 OFFCURVE",
"273 518 CURVE SMOOTH",
"291 543 OFFCURVE",
"336 583 OFFCURVE",
"275 583 CURVE SMOOTH",
"225 583 OFFCURVE",
"210 540 OFFCURVE",
"183 500 CURVE SMOOTH",
"133 419 OFFCURVE",
"22 184 OFFCURVE",
"22 95 CURVE SMOOTH",
"22 41 OFFCURVE",
"51 -3 OFFCURVE",
"108 -3 CURVE SMOOTH",
"204 -3 OFFCURVE",
"352 148 OFFCURVE",
"413 217 CURVE",
"408 179 OFFCURVE",
"404 141 OFFCURVE",
"404 102 CURVE SMOOTH",
"404 65 OFFCURVE",
"414 -65 OFFCURVE",
"469 -65 CURVE SMOOTH",
"474 -65 OFFCURVE",
"480 -62 OFFCURVE",
"478 -57 CURVE"
);
}
);
width = 492;
}
);
note = U;
unicode = 0055;
},
{
glyphname = V;
lastChange = "2021-08-24 17:12:24 +0000";
layers = (
{
hints = (
{
horizontal = 1;
place = "{616, -20}";
target = down;
type = TopGhost;
},
{
place = "{120, 50}";
type = Stem;
}
);
layerId = "5B3E1226-E0D0-4C23-AF14-DEF1E2C801D3";
paths = (
{
closed = 1;
nodes = (
"119 -10 OFFCURVE",
"159 16 OFFCURVE",
"165 33 CURVE SMOOTH",
"197 126 OFFCURVE",
"336 323 OFFCURVE",
"458 457 CURVE SMOOTH",
"475 475 OFFCURVE",
"640 616 OFFCURVE",
"586 616 CURVE SMOOTH",
"534 616 OFFCURVE",
"207 199 OFFCURVE",
"159 129 CURVE",
"169 179 OFFCURVE",
"170 234 OFFCURVE",
"170 285 CURVE SMOOTH",
"170 330 OFFCURVE",
"154 591 OFFCURVE",
"97 596 CURVE SMOOTH",
"85 597 OFFCURVE",
"44 570 OFFCURVE",
"51 560 CURVE SMOOTH",
"139 439 OFFCURVE",
"126 245 OFFCURVE",
"106 104 CURVE SMOOTH",
"102 74 OFFCURVE",
"90 36 OFFCURVE",
"90 7 CURVE SMOOTH",
"90 -2 OFFCURVE",
"89 -10 OFFCURVE",
"100 -10 CURVE SMOOTH"
);
}
);
width = 336;
}
);
note = V;
unicode = 0056;
},
{
glyphname = W;
lastChange = "2021-08-24 17:12:24 +0000";
layers = (
{
hints = (
{
horizontal = 1;
place = "{0, 28}";
type = Stem;
},
{
horizontal = 1;
place = "{597, -20}";
target = down;
type = TopGhost;
},
{
place = "{22, 38}";
type = Stem;
},
{
place = "{480, 48}";
type = Stem;
},
{
place = "{916, 55}";
type = Stem;
}
);
layerId = "5B3E1226-E0D0-4C23-AF14-DEF1E2C801D3";
paths = (
{
closed = 1;
nodes = (
"967 397 OFFCURVE",
"1016 597 OFFCURVE",
"882 597 CURVE SMOOTH",
"874 597 OFFCURVE",
"857 597 OFFCURVE",
"857 585 CURVE SMOOTH",
"857 573 OFFCURVE",
"871 574 OFFCURVE",
"878 573 CURVE SMOOTH",
"954 557 OFFCURVE",
"895 382 OFFCURVE",
"880 346 CURVE SMOOTH",
"821 201 OFFCURVE",
"698 28 OFFCURVE",
"593 28 CURVE SMOOTH",
"537 28 OFFCURVE",
"528 89 OFFCURVE",
"528 132 CURVE SMOOTH",
"528 237 OFFCURVE",
"563 326 OFFCURVE",
"592 421 CURVE SMOOTH",
"597 438 OFFCURVE",
"614 472 OFFCURVE",
"601 488 CURVE SMOOTH",
"592 500 OFFCURVE",
"572 504 OFFCURVE",
"559 504 CURVE SMOOTH",
"530 504 OFFCURVE",
"514 447 OFFCURVE",
"500 425 CURVE SMOOTH",
"454 349 OFFCURVE",
"393 273 OFFCURVE",
"328 205 CURVE SMOOTH",
"283 158 OFFCURVE",
"156 30 OFFCURVE",
"94 30 CURVE SMOOTH",
"67 30 OFFCURVE",
"60 57 OFFCURVE",
"60 79 CURVE SMOOTH",
"60 160 OFFCURVE",
"105 250 OFFCURVE",
"160 332 CURVE SMOOTH",
"251 467 OFFCURVE",
"329 542 OFFCURVE",
"372 578 CURVE SMOOTH",
"406 606 OFFCURVE",
"332 587 OFFCURVE",
"315 577 CURVE SMOOTH",
"184 506 OFFCURVE",
"22 226 OFFCURVE",
"22 94 CURVE SMOOTH",
"22 51 OFFCURVE",
"34 -9 OFFCURVE",
"89 -9 CURVE SMOOTH",
"162 -9 OFFCURVE",
"264 87 OFFCURVE",
"352 180 CURVE SMOOTH",
"406 237 OFFCURVE",
"456 293 OFFCURVE",
"490 325 CURVE",
"487 275 OFFCURVE",
"480 226 OFFCURVE",
"480 176 CURVE SMOOTH",
"480 95 OFFCURVE",
"496 0 OFFCURVE",
"597 0 CURVE SMOOTH",
"714 0 OFFCURVE",
"865 176 OFFCURVE",
"935 327 CURVE SMOOTH"
);
}
);
width = 867;
}
);
note = W;
unicode = 0057;
},
{
glyphname = X;
lastChange = "2021-08-24 17:12:24 +0000";
layers = (
{
hints = (
{
horizontal = 1;
place = "{-6, 55}";
type = Stem;
},
{
horizontal = 1;
place = "{596, -20}";
target = down;
type = TopGhost;
},
{
place = "{4, 41}";
type = Stem;
}
);
layerId = "5B3E1226-E0D0-4C23-AF14-DEF1E2C801D3";
paths = (
{
closed = 1;
nodes = (
"359 384 OFFCURVE",
"439 451 OFFCURVE",
"522 513 CURVE SMOOTH",
"552 536 OFFCURVE",
"585 556 OFFCURVE",
"615 579 CURVE SMOOTH",
"625 586 OFFCURVE",
"630 596 OFFCURVE",
"613 596 CURVE SMOOTH",
"601 596 OFFCURVE",
"571 587 OFFCURVE",
"543 569 CURVE SMOOTH",
"451 509 OFFCURVE",
"309 374 OFFCURVE",
"276 345 CURVE",
"263 415 OFFCURVE",
"250 495 OFFCURVE",
"234 562 CURVE SMOOTH",
"231 575 OFFCURVE",
"226 581 OFFCURVE",
"212 581 CURVE SMOOTH",
"191 581 OFFCURVE",
"175 575 OFFCURVE",
"175 551 CURVE SMOOTH",
"175 525 OFFCURVE",
"219 337 OFFCURVE",
"228 301 CURVE",
"173 251 OFFCURVE",
"4 96 OFFCURVE",
"4 19 CURVE SMOOTH",
"4 0 OFFCURVE",
"10 -18 OFFCURVE",
"32 -18 CURVE SMOOTH",
"37 -18 OFFCURVE",
"48 -7 OFFCURVE",
"50 -4 CURVE",
"47 2 OFFCURVE",
"45 10 OFFCURVE",
"45 17 CURVE SMOOTH",
"45 91 OFFCURVE",
"182 216 OFFCURVE",
"235 268 CURVE",
"252 195 OFFCURVE",
"296 -6 OFFCURVE",
"397 -6 CURVE SMOOTH",
"449 -6 OFFCURVE",
"565 101 OFFCURVE",
"565 148 CURVE SMOOTH",
"565 151 OFFCURVE",
"563 155 OFFCURVE",
"559 155 CURVE SMOOTH",
"543 155 OFFCURVE",
"514 93 OFFCURVE",
"474 64 CURVE SMOOTH",
"462 55 OFFCURVE",
"443 40 OFFCURVE",
"429 40 CURVE SMOOTH",
"344 40 OFFCURVE",
"297 251 OFFCURVE",
"283 314 CURVE"
);
}
);
width = 531;
}
);
note = X;
unicode = 0058;
},
{
glyphname = Y;
lastChange = "2021-08-24 17:12:24 +0000";
layers = (
{
hints = (
{
horizontal = 1;
place = "{600, -20}";
target = down;
type = TopGhost;
},
{
place = "{137, 35}";
type = Stem;
}
);
layerId = "5B3E1226-E0D0-4C23-AF14-DEF1E2C801D3";
paths = (
{
closed = 1;
nodes = (
"171 143 OFFCURVE",
"487 458 OFFCURVE",
"611 544 CURVE SMOOTH",
"617 548 OFFCURVE",
"621 553 OFFCURVE",
"621 561 CURVE SMOOTH",
"621 579 OFFCURVE",
"601 600 OFFCURVE",
"583 600 CURVE SMOOTH",
"560 600 OFFCURVE",
"505 554 OFFCURVE",
"502 529 CURVE",
"420 453 OFFCURVE",
"352 362 OFFCURVE",
"280 277 CURVE",
"275 348 OFFCURVE",
"186 591 OFFCURVE",
"102 591 CURVE SMOOTH",
"85 591 OFFCURVE",
"61 580 OFFCURVE",
"61 560 CURVE SMOOTH",
"61 554 OFFCURVE",
"65 550 OFFCURVE",
"70 546 CURVE SMOOTH",
"154 486 OFFCURVE",
"163 372 OFFCURVE",
"172 455 CURVE",
"206 407 OFFCURVE",
"244 342 OFFCURVE",
"244 281 CURVE SMOOTH",
"244 266 OFFCURVE",
"231 247 OFFCURVE",
"231 241 CURVE SMOOTH",
"231 233 OFFCURVE",
"235 228 OFFCURVE",
"235 220 CURVE SMOOTH",
"235 214 OFFCURVE",
"137 58 OFFCURVE",
"137 -11 CURVE SMOOTH",
"137 -39 OFFCURVE",
"149 -54 OFFCURVE",
"178 -57 CURVE SMOOTH",
"197 -59 OFFCURVE",
"213 -34 OFFCURVE",
"192 -33 CURVE SMOOTH",
"171 -33 OFFCURVE",
"171 -34 OFFCURVE",
"171 -7 CURVE SMOOTH"
);
}
);
width = 336;
}
);
note = Y;
unicode = 0059;
},
{
glyphname = Z;
lastChange = "2021-08-24 17:12:24 +0000";
layers = (
{
hints = (
{
horizontal = 1;
place = "{-4, 28}";
type = Stem;
},
{
horizontal = 1;
place = "{537, 57}";
type = Stem;
},
{
place = "{617, 43}";
type = Stem;
}
);
layerId = "5B3E1226-E0D0-4C23-AF14-DEF1E2C801D3";
paths = (
{
closed = 1;
nodes = (
"116 72 LINE",
"236 166 OFFCURVE",
"360 280 OFFCURVE",
"480 373 CURVE SMOOTH",
"538 419 OFFCURVE",
"599 457 OFFCURVE",
"660 499 CURVE SMOOTH",
"665 502 OFFCURVE",
"666 510 OFFCURVE",
"666 515 CURVE SMOOTH",
"666 541 OFFCURVE",
"650 561 OFFCURVE",
"627 571 CURVE SMOOTH",
"583 588 OFFCURVE",
"423 594 OFFCURVE",
"373 594 CURVE SMOOTH",
"305 594 OFFCURVE",
"157 575 OFFCURVE",
"117 509 CURVE SMOOTH",
"97 475 OFFCURVE",
"131 490 OFFCURVE",
"148 499 CURVE SMOOTH",
"211 533 OFFCURVE",
"285 539 OFFCURVE",
"356 539 CURVE SMOOTH",
"391 539 OFFCURVE",
"561 530 OFFCURVE",
"586 507 CURVE",
"438 384 OFFCURVE",
"292 257 OFFCURVE",
"137 142 CURVE SMOOTH",
"98 113 OFFCURVE",
"-11 44 OFFCURVE",
"11 15 CURVE SMOOTH",
"18 5 OFFCURVE",
"28 -3 OFFCURVE",
"40 -3 CURVE SMOOTH",
"53 -3 OFFCURVE",
"63 4 OFFCURVE",
"74 9 CURVE SMOOTH",
"92 18 OFFCURVE",
"136 17 OFFCURVE",
"155 17 CURVE SMOOTH",
"282 17 OFFCURVE",
"409 -4 OFFCURVE",
"534 -4 CURVE SMOOTH",
"594 -4 OFFCURVE",
"660 24 OFFCURVE",
"660 94 CURVE SMOOTH",
"660 157 OFFCURVE",
"597 210 OFFCURVE",
"536 210 CURVE SMOOTH",
"532 210 OFFCURVE",
"524 209 OFFCURVE",
"524 203 CURVE SMOOTH",
"524 189 OFFCURVE",
"618 146 OFFCURVE",
"618 82 CURVE SMOOTH",
"618 33 OFFCURVE",
"556 24 OFFCURVE",
"518 24 CURVE SMOOTH",
"392 24 OFFCURVE",
"255 78 OFFCURVE",
"129 73 CURVE SMOOTH"
);
}
);
width = 649;
}
);
note = Z;
unicode = 005A;
},
{
glyphname = A.ornm;
lastChange = "2021-08-24 19:21:21 +0000";
layers = (
{
hints = (
{
horizontal = 1;
place = "{-393, 21}";
target = up;
type = BottomGhost;
},
{
horizontal = 1;
place = "{550, 10}";
type = Stem;
},
{
horizontal = 1;
place = "{596, 10}";
type = Stem;
},
{
horizontal = 1;
place = "{665, 10}";
type = Stem;
},
{
place = "{0, 10}";
type = Stem;
},
{
place = "{69, 10}";
type = Stem;
},
{
place = "{115, 10}";
type = Stem;
}
);
layerId = "5B3E1226-E0D0-4C23-AF14-DEF1E2C801D3";
paths = (
{
closed = 1;
nodes = (
"0 596 LINE",
"69 596 LINE",
"69 -393 LINE",
"79 -393 LINE",
"79 596 LINE",
"385 596 LINE",
"385 606 LINE",
"79 606 LINE",
"79 675 LINE",
"0 675 LINE"
);
},
{
closed = 1;
nodes = (
"125 -393 LINE",
"125 550 LINE",
"385 550 LINE",
"385 560 LINE",
"115 560 LINE",
"115 -393 LINE"
);
},
{
closed = 1;
nodes = (
"10 665 LINE",
"69 665 LINE",
"69 606 LINE",
"10 606 LINE"
);
}
);
width = 384;
}
);
note = A;
},
{
glyphname = B.ornm;
lastChange = "2021-08-24 19:21:21 +0000";
layers = (
{
layerId = "5B3E1226-E0D0-4C23-AF14-DEF1E2C801D3";
paths = (
{
closed = 1;
nodes = (
"385 606 LINE",
"-1 606 LINE",
"-1 596 LINE",
"385 596 LINE"
);
},
{
closed = 1;
nodes = (
"385 560 LINE",
"-1 560 LINE",
"-1 550 LINE",
"385 550 LINE"
);
}
);
width = 384;
}
);
note = B;
},
{
glyphname = C.ornm;
lastChange = "2021-08-24 19:21:21 +0000";
layers = (
{
hints = (
{
horizontal = 1;
place = "{-393, 21}";
target = up;
type = BottomGhost;
},
{
horizontal = 1;
place = "{550, 10}";
type = Stem;
},
{
horizontal = 1;
place = "{596, 10}";
type = Stem;
},
{
horizontal = 1;
place = "{665, 10}";
type = Stem;
},
{
place = "{259, 10}";
type = Stem;
},
{
place = "{305, 10}";
type = Stem;
},
{
place = "{374, 10}";
type = Stem;
}
);
layerId = "5B3E1226-E0D0-4C23-AF14-DEF1E2C801D3";
paths = (
{
closed = 1;
nodes = (
"384 675 LINE",
"305 675 LINE",
"305 606 LINE",
"-1 606 LINE",
"-1 596 LINE",
"305 596 LINE",
"305 -393 LINE",
"315 -393 LINE",
"315 596 LINE",
"384 596 LINE"
);
},
{
closed = 1;
nodes = (
"269 -393 LINE",
"269 560 LINE",
"-1 560 LINE",
"-1 550 LINE",
"259 550 LINE",
"259 -393 LINE"
);
},
{
closed = 1;
nodes = (
"315 665 LINE",
"374 665 LINE",
"374 606 LINE",
"315 606 LINE"
);
}
);
width = 384;
}
);
note = C;
},
{
glyphname = D.ornm;
lastChange = "2021-08-24 19:21:21 +0000";
layers = (
{
hints = (
{
horizontal = 1;
place = "{-277, 10}";
type = Stem;
},
{
horizontal = 1;
place = "{-208, 10}";
type = Stem;
},
{
horizontal = 1;
place = "{-162, 10}";
type = Stem;
},
{
place = "{0, 10}";
type = Stem;
},
{
place = "{69, 10}";
type = Stem;
},
{
place = "{115, 10}";
type = Stem;
}
);
layerId = "5B3E1226-E0D0-4C23-AF14-DEF1E2C801D3";
paths = (
{
closed = 1;
nodes = (
"0 -277 LINE",
"79 -277 LINE",
"79 -208 LINE",
"385 -208 LINE",
"385 -198 LINE",
"79 -198 LINE",
"79 783 LINE",
"69 783 LINE",
"69 -198 LINE",
"0 -198 LINE"
);
},
{
closed = 1;
nodes = (
"115 783 LINE",
"115 -162 LINE",
"385 -162 LINE",
"385 -152 LINE",
"125 -152 LINE",
"125 783 LINE"
);
},
{
closed = 1;
nodes = (
"10 -208 LINE",
"69 -208 LINE",
"69 -267 LINE",
"10 -267 LINE"
);
}
);
width = 384;
}
);
note = D;
},
{
glyphname = E.ornm;
lastChange = "2021-08-24 19:21:21 +0000";
layers = (
{
hints = (
{
horizontal = 1;
place = "{-208, 10}";
type = Stem;
},
{
horizontal = 1;
place = "{-162, 10}";
type = Stem;
},
{
place = "{-1, 386}";
type = Stem;
}
);
layerId = "5B3E1226-E0D0-4C23-AF14-DEF1E2C801D3";
paths = (
{
closed = 1;
nodes = (
"385 -198 LINE",
"-1 -198 LINE",
"-1 -208 LINE",
"385 -208 LINE"
);
},
{
closed = 1;
nodes = (
"385 -152 LINE",
"-1 -152 LINE",
"-1 -162 LINE",
"385 -162 LINE"
);
}
);
width = 384;
}
);
note = E;
},
{
glyphname = F.ornm;
lastChange = "2021-08-24 19:21:21 +0000";
layers = (
{
hints = (
{
horizontal = 1;
place = "{-277, 10}";
type = Stem;
},
{
horizontal = 1;
place = "{-208, 10}";
type = Stem;
},
{
horizontal = 1;
place = "{-162, 10}";
type = Stem;
},
{
place = "{259, 10}";
type = Stem;
},
{
place = "{305, 10}";
type = Stem;
},
{
place = "{374, 10}";
type = Stem;
}
);
layerId = "5B3E1226-E0D0-4C23-AF14-DEF1E2C801D3";
paths = (
{
closed = 1;
nodes = (
"384 -198 LINE",
"315 -198 LINE",
"315 783 LINE",
"305 783 LINE",
"305 -198 LINE",
"-1 -198 LINE",
"-1 -208 LINE",
"305 -208 LINE",
"305 -277 LINE",
"384 -277 LINE"
);
},
{
closed = 1;
nodes = (
"259 783 LINE",
"259 -152 LINE",
"-1 -152 LINE",
"-1 -162 LINE",
"269 -162 LINE",
"269 783 LINE"
);
},
{
closed = 1;
nodes = (
"315 -208 LINE",
"374 -208 LINE",
"374 -267 LINE",
"315 -267 LINE"
);
}
);
width = 384;
}
);
note = F;
},
{
glyphname = G.ornm;
lastChange = "2021-08-24 19:21:21 +0000";
layers = (
{
hints = (
{
horizontal = 1;
place = "{550, 10}";
type = Stem;
},
{
horizontal = 1;
place = "{596, 10}";
type = Stem;
},
{
place = "{-16, 401}";
type = Stem;
}
);
layerId = "5B3E1226-E0D0-4C23-AF14-DEF1E2C801D3";
paths = (
{
closed = 1;
nodes = (
"-16 591 OFFCURVE",
"-9 583 OFFCURVE",
"0 583 CURVE SMOOTH",
"7 583 OFFCURVE",
"14 589 OFFCURVE",
"16 596 CURVE",
"385 596 LINE",
"385 606 LINE",
"16 606 LINE",
"13 612 OFFCURVE",
"7 616 OFFCURVE",
"0 616 CURVE SMOOTH",
"-9 616 OFFCURVE",
"-16 609 OFFCURVE",
"-16 600 CURVE SMOOTH"
);
},
{
closed = 1;
nodes = (
"-16 545 OFFCURVE",
"-9 537 OFFCURVE",
"0 537 CURVE SMOOTH",
"7 537 OFFCURVE",
"14 543 OFFCURVE",
"16 550 CURVE",
"385 550 LINE",
"385 560 LINE",
"16 560 LINE",
"13 566 OFFCURVE",
"7 570 OFFCURVE",
"0 570 CURVE SMOOTH",
"-9 570 OFFCURVE",
"-16 563 OFFCURVE",
"-16 554 CURVE SMOOTH"
);
}
);
width = 384;
}
);
note = G;
},
{
glyphname = H.ornm;
lastChange = "2021-08-24 19:21:21 +0000";
layers = (
{
hints = (
{
horizontal = 1;
place = "{550, 10}";
type = Stem;
},
{
horizontal = 1;
place = "{596, 10}";
type = Stem;
},
{
place = "{-1, 401}";
type = Stem;
}
);
layerId = "5B3E1226-E0D0-4C23-AF14-DEF1E2C801D3";
paths = (
{
closed = 1;
nodes = (
"400 609 OFFCURVE",
"393 616 OFFCURVE",
"384 616 CURVE SMOOTH",
"377 616 OFFCURVE",
"370 612 OFFCURVE",
"368 606 CURVE",
"-1 606 LINE",
"-1 596 LINE",
"367 596 LINE",
"369 589 OFFCURVE",
"376 583 OFFCURVE",
"384 583 CURVE SMOOTH",
"393 583 OFFCURVE",
"400 591 OFFCURVE",
"400 600 CURVE SMOOTH"
);
},
{
closed = 1;
nodes = (
"400 563 OFFCURVE",
"393 570 OFFCURVE",
"384 570 CURVE SMOOTH",
"377 570 OFFCURVE",
"370 566 OFFCURVE",
"368 560 CURVE",
"-1 560 LINE",
"-1 550 LINE",
"367 550 LINE",
"369 543 OFFCURVE",
"376 537 OFFCURVE",
"384 537 CURVE SMOOTH",
"393 537 OFFCURVE",
"400 545 OFFCURVE",
"400 554 CURVE SMOOTH"
);
}
);
width = 384;
}
);
note = H;
},
{
glyphname = I.ornm;
lastChange = "2021-08-24 19:21:21 +0000";
layers = (
{
hints = (
{
horizontal = 1;
place = "{-208, 10}";
type = Stem;
},
{
horizontal = 1;
place = "{-162, 10}";
type = Stem;
},
{
place = "{-16, 401}";
type = Stem;
}
);
layerId = "5B3E1226-E0D0-4C23-AF14-DEF1E2C801D3";
paths = (
{
closed = 1;
nodes = (
"-16 -211 OFFCURVE",
"-9 -218 OFFCURVE",
"0 -218 CURVE SMOOTH",
"7 -218 OFFCURVE",
"13 -214 OFFCURVE",
"16 -208 CURVE",
"385 -208 LINE",
"385 -198 LINE",
"16 -198 LINE",
"14 -191 OFFCURVE",
"7 -185 OFFCURVE",
"0 -185 CURVE SMOOTH",
"-9 -185 OFFCURVE",
"-16 -193 OFFCURVE",
"-16 -202 CURVE SMOOTH"
);
},
{
closed = 1;
nodes = (
"-16 -165 OFFCURVE",
"-9 -172 OFFCURVE",
"0 -172 CURVE SMOOTH",
"7 -172 OFFCURVE",
"13 -168 OFFCURVE",
"16 -162 CURVE",
"385 -162 LINE",
"385 -152 LINE",
"16 -152 LINE",
"14 -145 OFFCURVE",
"7 -139 OFFCURVE",
"0 -139 CURVE SMOOTH",
"-9 -139 OFFCURVE",
"-16 -147 OFFCURVE",
"-16 -156 CURVE SMOOTH"
);
}
);
width = 384;
}
);
note = I;
},
{
glyphname = J.ornm;
lastChange = "2021-08-24 19:21:21 +0000";
layers = (
{
hints = (
{
horizontal = 1;
place = "{-208, 10}";
type = Stem;
},
{
horizontal = 1;
place = "{-162, 10}";
type = Stem;
},
{
place = "{-1, 401}";
type = Stem;
}
);
layerId = "5B3E1226-E0D0-4C23-AF14-DEF1E2C801D3";
paths = (
{
closed = 1;
nodes = (
"400 -193 OFFCURVE",
"393 -185 OFFCURVE",
"384 -185 CURVE SMOOTH",
"376 -185 OFFCURVE",
"369 -191 OFFCURVE",
"367 -198 CURVE",
"-1 -198 LINE",
"-1 -208 LINE",
"368 -208 LINE",
"370 -214 OFFCURVE",
"377 -218 OFFCURVE",
"384 -218 CURVE SMOOTH",
"393 -218 OFFCURVE",
"400 -211 OFFCURVE",
"400 -202 CURVE SMOOTH"
);
},
{
closed = 1;
nodes = (
"400 -147 OFFCURVE",
"393 -139 OFFCURVE",
"384 -139 CURVE SMOOTH",
"376 -139 OFFCURVE",
"369 -145 OFFCURVE",
"367 -152 CURVE",
"-1 -152 LINE",
"-1 -162 LINE",
"368 -162 LINE",
"370 -168 OFFCURVE",
"377 -172 OFFCURVE",
"384 -172 CURVE SMOOTH",
"393 -172 OFFCURVE",
"400 -165 OFFCURVE",
"400 -156 CURVE SMOOTH"
);
}
);
width = 384;
}
);
note = J;
},
{
glyphname = K.ornm;
lastChange = "2021-08-24 19:21:21 +0000";
layers = (
{
hints = (
{
horizontal = 1;
place = "{-393, 21}";
target = up;
type = BottomGhost;
},
{
horizontal = 1;
place = "{125, 10}";
type = Stem;
},
{
horizontal = 1;
place = "{168, 32}";
type = Stem;
},
{
horizontal = 1;
place = "{233, 10}";
type = Stem;
},
{
place = "{17, 10}";
type = Stem;
},
{
place = "{69, 10}";
type = Stem;
},
{
place = "{115, 10}";
type = Stem;
},
{
place = "{61, 10}";
type = Stem;
}
);
layerId = "5B3E1226-E0D0-4C23-AF14-DEF1E2C801D3";
paths = (
{
closed = 1;
nodes = (
"125 -393 LINE",
"125 135 LINE",
"116 135 LINE SMOOTH",
"91 137 OFFCURVE",
"71 158 OFFCURVE",
"71 184 CURVE SMOOTH",
"71 209 OFFCURVE",
"91 231 OFFCURVE",
"116 233 CURVE SMOOTH",
"125 233 LINE",
"125 783 LINE",
"115 783 LINE",
"115 243 LINE",
"84 240 OFFCURVE",
"61 215 OFFCURVE",
"61 184 CURVE SMOOTH",
"61 152 OFFCURVE",
"84 127 OFFCURVE",
"115 125 CURVE",
"115 -393 LINE"
);
},
{
closed = 1;
nodes = (
"79 -393 LINE",
"79 100 LINE",
"79 100 OFFCURVE",
"73 102 OFFCURVE",
"69 105 CURVE SMOOTH",
"44 122 OFFCURVE",
"27 150 OFFCURVE",
"27 183 CURVE SMOOTH",
"27 215 OFFCURVE",
"44 244 OFFCURVE",
"69 260 CURVE SMOOTH",
"79 266 LINE",
"79 783 LINE",
"69 783 LINE",
"69 272 LINE",
"38 255 OFFCURVE",
"17 221 OFFCURVE",
"17 183 CURVE SMOOTH",
"17 145 OFFCURVE",
"38 111 OFFCURVE",
"69 93 CURVE",
"69 -393 LINE"
);
},
{
closed = 1;
nodes = (
"136 193 OFFCURVE",
"129 200 OFFCURVE",
"120 200 CURVE SMOOTH",
"111 200 OFFCURVE",
"104 193 OFFCURVE",
"104 184 CURVE SMOOTH",
"104 175 OFFCURVE",
"111 168 OFFCURVE",
"120 168 CURVE SMOOTH",
"129 168 OFFCURVE",
"136 175 OFFCURVE",
"136 184 CURVE SMOOTH"
);
}
);
width = 384;
}
);
note = K;
},
{
glyphname = L.ornm;
lastChange = "2021-08-24 19:21:21 +0000";
layers = (
{
hints = (
{
horizontal = 1;
place = "{-393, 21}";
target = up;
type = BottomGhost;
},
{
horizontal = 1;
place = "{125, 10}";
type = Stem;
},
{
horizontal = 1;
place = "{168, 32}";
type = Stem;
},
{
horizontal = 1;
place = "{233, 10}";
type = Stem;
},
{
place = "{259, 10}";
type = Stem;
},
{
place = "{305, 10}";
type = Stem;
},
{
place = "{357, 10}";
type = Stem;
},
{
place = "{313, 10}";
type = Stem;
}
);
layerId = "5B3E1226-E0D0-4C23-AF14-DEF1E2C801D3";
paths = (
{
closed = 1;
nodes = (
"269 -393 LINE",
"269 125 LINE",
"300 127 OFFCURVE",
"323 152 OFFCURVE",
"323 184 CURVE SMOOTH",
"323 215 OFFCURVE",
"300 240 OFFCURVE",
"269 243 CURVE",
"269 783 LINE",
"259 783 LINE",
"259 233 LINE",
"268 233 LINE SMOOTH",
"293 231 OFFCURVE",
"313 209 OFFCURVE",
"313 184 CURVE SMOOTH",
"313 158 OFFCURVE",
"293 137 OFFCURVE",
"268 135 CURVE SMOOTH",
"259 135 LINE",
"259 -393 LINE"
);
},
{
closed = 1;
nodes = (
"315 -393 LINE",
"315 93 LINE",
"346 111 OFFCURVE",
"367 145 OFFCURVE",
"367 183 CURVE SMOOTH",
"367 221 OFFCURVE",
"346 255 OFFCURVE",
"315 272 CURVE",
"315 783 LINE",
"305 783 LINE",
"305 266 LINE",
"315 260 LINE SMOOTH",
"340 244 OFFCURVE",
"357 215 OFFCURVE",
"357 183 CURVE SMOOTH",
"357 150 OFFCURVE",
"340 122 OFFCURVE",
"315 105 CURVE SMOOTH",
"311 102 OFFCURVE",
"305 100 OFFCURVE",
"305 100 CURVE",
"305 -393 LINE"
);
},
{
closed = 1;
nodes = (
"248 175 OFFCURVE",
"255 168 OFFCURVE",
"264 168 CURVE SMOOTH",
"273 168 OFFCURVE",
"280 175 OFFCURVE",
"280 184 CURVE SMOOTH",
"280 193 OFFCURVE",
"273 200 OFFCURVE",
"264 200 CURVE SMOOTH",
"255 200 OFFCURVE",
"248 193 OFFCURVE",
"248 184 CURVE SMOOTH"
);
}
);
width = 384;
}
);
note = L;
},
{
glyphname = M.ornm;
lastChange = "2021-08-24 19:21:21 +0000";
layers = (
{
hints = (
{
horizontal = 1;
place = "{-393, 21}";
target = up;
type = BottomGhost;
},
{
horizontal = 1;
place = "{125, 10}";
type = Stem;
},
{
horizontal = 1;
place = "{168, 32}";
type = Stem;
},
{
horizontal = 1;
place = "{233, 10}";
type = Stem;
},
{
place = "{15, 10}";
type = Stem;
},
{
place = "{69, 10}";
type = Stem;
},
{
place = "{115, 10}";
type = Stem;
}
);
layerId = "5B3E1226-E0D0-4C23-AF14-DEF1E2C801D3";
paths = (
{
closed = 1;
nodes = (
"79 -393 LINE",
"79 135 LINE",
"74 135 LINE SMOOTH",
"47 135 OFFCURVE",
"25 157 OFFCURVE",
"25 184 CURVE SMOOTH",
"25 211 OFFCURVE",
"47 233 OFFCURVE",
"74 233 CURVE SMOOTH",
"79 233 LINE",
"79 783 LINE",
"69 783 LINE",
"69 243 LINE",
"38 240 OFFCURVE",
"15 215 OFFCURVE",
"15 184 CURVE SMOOTH",
"15 152 OFFCURVE",
"38 127 OFFCURVE",
"69 125 CURVE",
"69 -393 LINE"
);
},
{
closed = 1;
nodes = (
"125 233 LINE",
"125 783 LINE",
"115 783 LINE",
"115 233 LINE"
);
},
{
closed = 1;
nodes = (
"125 -393 LINE",
"125 135 LINE",
"115 135 LINE",
"115 -393 LINE"
);
},
{
closed = 1;
nodes = (
"136 193 OFFCURVE",
"129 200 OFFCURVE",
"120 200 CURVE SMOOTH",
"111 200 OFFCURVE",
"104 193 OFFCURVE",
"104 184 CURVE SMOOTH",
"104 175 OFFCURVE",
"111 168 OFFCURVE",
"120 168 CURVE SMOOTH",
"129 168 OFFCURVE",
"136 175 OFFCURVE",
"136 184 CURVE SMOOTH"
);
}
);
width = 384;
}
);
note = M;
},
{
glyphname = N.ornm;
lastChange = "2021-08-24 19:21:21 +0000";
layers = (
{
hints = (
{
horizontal = 1;
place = "{-393, 21}";
target = up;
type = BottomGhost;
},
{
horizontal = 1;
place = "{125, 10}";
type = Stem;
},
{
horizontal = 1;
place = "{168, 32}";
type = Stem;
},
{
horizontal = 1;
place = "{233, 10}";
type = Stem;
},
{
place = "{259, 10}";
type = Stem;
},
{
place = "{305, 10}";
type = Stem;
},
{
place = "{359, 10}";
type = Stem;
}
);
layerId = "5B3E1226-E0D0-4C23-AF14-DEF1E2C801D3";
paths = (
{
closed = 1;
nodes = (
"315 -393 LINE",
"315 125 LINE",
"345 127 OFFCURVE",
"369 152 OFFCURVE",
"369 184 CURVE SMOOTH",
"369 215 OFFCURVE",
"345 240 OFFCURVE",
"315 243 CURVE",
"315 783 LINE",
"305 783 LINE",
"305 233 LINE",
"310 233 LINE",
"314 233 LINE",
"315 233 LINE SMOOTH",
"339 230 OFFCURVE",
"359 209 OFFCURVE",
"359 184 CURVE SMOOTH",
"359 157 OFFCURVE",
"337 135 OFFCURVE",
"310 135 CURVE SMOOTH",
"305 135 LINE",
"305 -393 LINE"
);
},
{
closed = 1;
nodes = (
"269 233 LINE",
"269 783 LINE",
"259 783 LINE",
"259 233 LINE"
);
},
{
closed = 1;
nodes = (
"269 -393 LINE",
"269 135 LINE",
"259 135 LINE",
"259 -393 LINE"
);
},
{
closed = 1;
nodes = (
"248 175 OFFCURVE",
"255 168 OFFCURVE",
"264 168 CURVE SMOOTH",
"273 168 OFFCURVE",
"280 175 OFFCURVE",
"280 184 CURVE SMOOTH",
"280 193 OFFCURVE",
"273 200 OFFCURVE",
"264 200 CURVE SMOOTH",
"255 200 OFFCURVE",
"248 193 OFFCURVE",
"248 184 CURVE SMOOTH"
);
}
);
width = 384;
}
);
note = N;
},
{
glyphname = O.ornm;
lastChange = "2021-08-24 19:21:21 +0000";
layers = (
{
hints = (
{
horizontal = 1;
place = "{-393, 21}";
target = up;
type = BottomGhost;
},
{
horizontal = 1;
place = "{625, 20}";
type = Stem;
},
{
horizontal = 1;
place = "{763, 20}";
type = Stem;
},
{
place = "{0, 20}";
type = Stem;
},
{
place = "{137, 20}";
type = Stem;
},
{
horizontal = 1;
place = "{544, 52}";
type = Stem;
},
{
place = "{190, 52}";
type = Stem;
}
);
layerId = "5B3E1226-E0D0-4C23-AF14-DEF1E2C801D3";
paths = (
{
closed = 1;
nodes = (
"0 625 LINE",
"137 625 LINE",
"137 -393 LINE",
"157 -393 LINE",
"157 625 LINE",
"385 625 LINE",
"385 645 LINE",
"157 645 LINE",
"157 783 LINE",
"0 783 LINE"
);
},
{
closed = 1;
nodes = (
"20 763 LINE",
"137 763 LINE",
"137 645 LINE",
"20 645 LINE"
);
},
{
closed = 1;
nodes = (
"190 556 OFFCURVE",
"202 544 OFFCURVE",
"216 544 CURVE SMOOTH",
"230 544 OFFCURVE",
"242 556 OFFCURVE",
"242 571 CURVE SMOOTH",
"242 585 OFFCURVE",
"230 596 OFFCURVE",
"216 596 CURVE SMOOTH",
"202 596 OFFCURVE",
"190 585 OFFCURVE",
"190 571 CURVE SMOOTH"
);
}
);
width = 384;
}
);
note = O;
},
{
glyphname = P.ornm;
lastChange = "2021-08-24 19:21:21 +0000";
layers = (
{
hints = (
{
horizontal = 1;
place = "{625, 20}";
type = Stem;
},
{
place = "{-1, 386}";
type = Stem;
}
);
layerId = "5B3E1226-E0D0-4C23-AF14-DEF1E2C801D3";
paths = (
{
closed = 1;
nodes = (
"-1 625 LINE",
"385 625 LINE",
"385 645 LINE",
"-1 645 LINE"
);
}
);
width = 384;
}
);
note = P;
},
{
glyphname = Q.ornm;
lastChange = "2021-08-24 19:21:21 +0000";
layers = (
{
hints = (
{
horizontal = 1;
place = "{-393, 21}";
target = up;
type = BottomGhost;
},
{
horizontal = 1;
place = "{625, 20}";
type = Stem;
},
{
horizontal = 1;
place = "{763, 20}";
type = Stem;
},
{
place = "{227, 20}";
type = Stem;
},
{
place = "{364, 20}";
type = Stem;
},
{
horizontal = 1;
place = "{544, 52}";
type = Stem;
},
{
place = "{141, 52}";
type = Stem;
}
);
layerId = "5B3E1226-E0D0-4C23-AF14-DEF1E2C801D3";
paths = (
{
closed = 1;
nodes = (
"384 783 LINE",
"227 783 LINE",
"227 645 LINE",
"-1 645 LINE",
"-1 625 LINE",
"227 625 LINE",
"227 -393 LINE",
"247 -393 LINE",
"247 625 LINE",
"384 625 LINE"
);
},
{
closed = 1;
nodes = (
"247 763 LINE",
"364 763 LINE",
"364 645 LINE",
"247 645 LINE"
);
},
{
closed = 1;
nodes = (
"193 585 OFFCURVE",
"182 596 OFFCURVE",
"168 596 CURVE SMOOTH",
"153 596 OFFCURVE",
"141 585 OFFCURVE",
"141 571 CURVE SMOOTH",
"141 556 OFFCURVE",
"153 544 OFFCURVE",
"168 544 CURVE SMOOTH",
"182 544 OFFCURVE",
"193 556 OFFCURVE",
"193 571 CURVE SMOOTH"
);
}
);
width = 384;
}
);
note = Q;
},
{
glyphname = R.ornm;
lastChange = "2021-08-24 19:21:21 +0000";
layers = (
{
hints = (
{
horizontal = 1;
place = "{-393, 20}";
type = Stem;
},
{
horizontal = 1;
place = "{-255, 20}";
type = Stem;
},
{
place = "{0, 20}";
type = Stem;
},
{
place = "{137, 20}";
type = Stem;
},
{
horizontal = 1;
place = "{-207, 52}";
type = Stem;
},
{
place = "{190, 52}";
type = Stem;
}
);
layerId = "5B3E1226-E0D0-4C23-AF14-DEF1E2C801D3";
paths = (
{
closed = 1;
nodes = (
"0 -393 LINE",
"157 -393 LINE",
"157 -255 LINE",
"385 -255 LINE",
"385 -235 LINE",
"157 -235 LINE",
"157 783 LINE",
"137 783 LINE",
"137 -235 LINE",
"0 -235 LINE"
);
},
{
closed = 1;
nodes = (
"20 -255 LINE",
"137 -255 LINE",
"137 -373 LINE",
"20 -373 LINE"
);
},
{
closed = 1;
nodes = (
"242 -167 OFFCURVE",
"231 -155 OFFCURVE",
"217 -155 CURVE SMOOTH",
"202 -155 OFFCURVE",
"190 -167 OFFCURVE",
"190 -181 CURVE SMOOTH",
"190 -195 OFFCURVE",
"202 -207 OFFCURVE",
"217 -207 CURVE SMOOTH",
"231 -207 OFFCURVE",
"242 -195 OFFCURVE",
"242 -181 CURVE SMOOTH"
);
}
);
width = 384;
}
);
note = R;
},
{
glyphname = S.ornm;
lastChange = "2021-08-24 19:21:21 +0000";
layers = (
{
hints = (
{
horizontal = 1;
place = "{-255, 20}";
type = Stem;
},
{
place = "{-1, 386}";
type = Stem;
}
);
layerId = "5B3E1226-E0D0-4C23-AF14-DEF1E2C801D3";
paths = (
{
closed = 1;
nodes = (
"-1 -255 LINE",
"385 -255 LINE",
"385 -235 LINE",
"-1 -235 LINE"
);
}
);
width = 384;
}
);
note = S;
},
{
glyphname = T.ornm;
lastChange = "2021-08-24 19:21:21 +0000";
layers = (
{
hints = (
{
horizontal = 1;
place = "{-393, 20}";
type = Stem;
},
{
horizontal = 1;
place = "{-255, 20}";
type = Stem;
},
{
place = "{227, 20}";
type = Stem;
},
{
place = "{364, 20}";
type = Stem;
},
{
horizontal = 1;
place = "{-207, 52}";
type = Stem;
},
{
place = "{141, 52}";
type = Stem;
}
);
layerId = "5B3E1226-E0D0-4C23-AF14-DEF1E2C801D3";
paths = (
{
closed = 1;
nodes = (
"227 783 LINE",
"227 -235 LINE",
"-1 -235 LINE",
"-1 -255 LINE",
"227 -255 LINE",
"227 -393 LINE",
"384 -393 LINE",
"384 -235 LINE",
"247 -235 LINE",
"247 783 LINE"
);
},
{
closed = 1;
nodes = (
"247 -255 LINE",
"364 -255 LINE",
"364 -373 LINE",
"247 -373 LINE"
);
},
{
closed = 1;
nodes = (
"193 -167 OFFCURVE",
"182 -155 OFFCURVE",
"168 -155 CURVE SMOOTH",
"153 -155 OFFCURVE",
"141 -167 OFFCURVE",
"141 -181 CURVE SMOOTH",
"141 -195 OFFCURVE",
"153 -207 OFFCURVE",
"168 -207 CURVE SMOOTH",
"182 -207 OFFCURVE",
"193 -195 OFFCURVE",
"193 -181 CURVE SMOOTH"
);
}
);
width = 384;
}
);
note = T;
},
{
glyphname = U.ornm;
lastChange = "2021-08-24 19:21:21 +0000";
layers = (
{
hints = (
{
horizontal = 1;
place = "{-394, 21}";
target = up;
type = BottomGhost;
},
{
horizontal = 1;
place = "{86, 20}";
type = Stem;
},
{
horizontal = 1;
place = "{158, 52}";
type = Stem;
},
{
horizontal = 1;
place = "{264, 20}";
type = Stem;
},
{
place = "{0, 20}";
type = Stem;
},
{
place = "{137, 20}";
type = Stem;
},
{
place = "{78, 52}";
type = Stem;
}
);
layerId = "5B3E1226-E0D0-4C23-AF14-DEF1E2C801D3";
paths = (
{
closed = 1;
nodes = (
"0 86 LINE",
"137 86 LINE",
"137 -394 LINE",
"157 -394 LINE",
"157 106 LINE",
"20 106 LINE",
"20 264 LINE",
"157 264 LINE",
"157 784 LINE",
"137 784 LINE",
"137 284 LINE",
"0 284 LINE"
);
},
{
closed = 1;
nodes = (
"130 199 OFFCURVE",
"119 210 OFFCURVE",
"105 210 CURVE SMOOTH",
"90 210 OFFCURVE",
"78 199 OFFCURVE",
"78 185 CURVE SMOOTH",
"78 170 OFFCURVE",
"90 158 OFFCURVE",
"105 158 CURVE SMOOTH",
"119 158 OFFCURVE",
"130 170 OFFCURVE",
"130 185 CURVE SMOOTH"
);
}
);
width = 384;
}
);
note = U;
},
{
glyphname = V.ornm;
lastChange = "2021-08-24 19:21:21 +0000";
layers = (
{
hints = (
{
horizontal = 1;
place = "{-394, 21}";
target = up;
type = BottomGhost;
},
{
horizontal = 1;
place = "{86, 20}";
type = Stem;
},
{
horizontal = 1;
place = "{158, 52}";
type = Stem;
},
{
horizontal = 1;
place = "{264, 20}";
type = Stem;
},
{
place = "{227, 20}";
type = Stem;
},
{
place = "{364, 20}";
type = Stem;
},
{
place = "{253, 52}";
type = Stem;
}
);
layerId = "5B3E1226-E0D0-4C23-AF14-DEF1E2C801D3";
paths = (
{
closed = 1;
nodes = (
"384 284 LINE",
"247 284 LINE",
"247 784 LINE",
"227 784 LINE",
"227 264 LINE",
"364 264 LINE",
"364 106 LINE",
"227 106 LINE",
"227 -394 LINE",
"247 -394 LINE",
"247 86 LINE",
"384 86 LINE"
);
},
{
closed = 1;
nodes = (
"253 170 OFFCURVE",
"265 158 OFFCURVE",
"279 158 CURVE SMOOTH",
"293 158 OFFCURVE",
"305 170 OFFCURVE",
"305 185 CURVE SMOOTH",
"305 199 OFFCURVE",
"293 210 OFFCURVE",
"279 210 CURVE SMOOTH",
"265 210 OFFCURVE",
"253 199 OFFCURVE",
"253 185 CURVE SMOOTH"
);
}
);
width = 384;
}
);
note = V;
},
{
glyphname = W.ornm;
lastChange = "2021-08-24 19:21:21 +0000";
layers = (
{
hints = (
{
horizontal = 1;
place = "{-394, 21}";
target = up;
type = BottomGhost;
},
{
horizontal = 1;
place = "{66, 20}";
type = Stem;
},
{
horizontal = 1;
place = "{158, 52}";
type = Stem;
},
{
horizontal = 1;
place = "{282, 19}";
type = Stem;
},
{
place = "{29, 20}";
type = Stem;
},
{
place = "{137, 20}";
type = Stem;
},
{
place = "{120, 52}";
type = Stem;
}
);
layerId = "5B3E1226-E0D0-4C23-AF14-DEF1E2C801D3";
paths = (
{
closed = 1;
nodes = (
"157 -394 LINE",
"157 86 LINE",
"147 86 LINE SMOOTH",
"93 86 OFFCURVE",
"49 130 OFFCURVE",
"49 184 CURVE SMOOTH",
"49 238 OFFCURVE",
"93 282 OFFCURVE",
"147 282 CURVE SMOOTH",
"157 282 LINE",
"157 784 LINE",
"137 784 LINE",
"137 301 LINE",
"75 296 OFFCURVE",
"29 246 OFFCURVE",
"29 184 CURVE SMOOTH",
"29 121 OFFCURVE",
"75 71 OFFCURVE",
"137 66 CURVE",
"137 -394 LINE"
);
},
{
closed = 1;
nodes = (
"172 199 OFFCURVE",
"161 210 OFFCURVE",
"147 210 CURVE SMOOTH",
"132 210 OFFCURVE",
"120 199 OFFCURVE",
"120 185 CURVE SMOOTH",
"120 170 OFFCURVE",
"132 158 OFFCURVE",
"147 158 CURVE SMOOTH",
"161 158 OFFCURVE",
"172 170 OFFCURVE",
"172 185 CURVE SMOOTH"
);
}
);
width = 384;
}
);
note = W;
},
{
glyphname = X.ornm;
lastChange = "2021-08-24 19:21:21 +0000";
layers = (
{
hints = (
{
horizontal = 1;
place = "{-394, 21}";
target = up;
type = BottomGhost;
},
{
horizontal = 1;
place = "{66, 20}";
type = Stem;
},
{
horizontal = 1;
place = "{158, 52}";
type = Stem;
},
{
horizontal = 1;
place = "{282, 19}";
type = Stem;
},
{
place = "{227, 20}";
type = Stem;
},
{
place = "{335, 20}";
type = Stem;
},
{
place = "{211, 52}";
type = Stem;
}
);
layerId = "5B3E1226-E0D0-4C23-AF14-DEF1E2C801D3";
paths = (
{
closed = 1;
nodes = (
"247 -394 LINE",
"247 66 LINE",
"308 71 OFFCURVE",
"355 121 OFFCURVE",
"355 184 CURVE SMOOTH",
"355 246 OFFCURVE",
"308 296 OFFCURVE",
"247 301 CURVE",
"247 784 LINE",
"227 784 LINE",
"227 282 LINE",
"237 282 LINE SMOOTH",
"291 282 OFFCURVE",
"335 238 OFFCURVE",
"335 184 CURVE SMOOTH",
"335 130 OFFCURVE",
"291 86 OFFCURVE",
"237 86 CURVE SMOOTH",
"227 86 LINE",
"227 -394 LINE"
);
},
{
closed = 1;
nodes = (
"211 170 OFFCURVE",
"223 158 OFFCURVE",
"237 158 CURVE SMOOTH",
"251 158 OFFCURVE",
"263 170 OFFCURVE",
"263 185 CURVE SMOOTH",
"263 199 OFFCURVE",
"251 210 OFFCURVE",
"237 210 CURVE SMOOTH",
"223 210 OFFCURVE",
"211 199 OFFCURVE",
"211 185 CURVE SMOOTH"
);
}
);
width = 384;
}
);
note = X;
},
{
glyphname = Y.ornm;
lastChange = "2021-08-24 19:21:21 +0000";
layers = (
{
hints = (
{
horizontal = 1;
place = "{-394, 21}";
target = up;
type = BottomGhost;
},
{
horizontal = 1;
place = "{66, 20}";
type = Stem;
},
{
horizontal = 1;
place = "{158, 52}";
type = Stem;
},
{
horizontal = 1;
place = "{282, 19}";
type = Stem;
},
{
place = "{137, 20}";
type = Stem;
},
{
place = "{245, 20}";
type = Stem;
},
{
place = "{121, 52}";
type = Stem;
}
);
layerId = "5B3E1226-E0D0-4C23-AF14-DEF1E2C801D3";
paths = (
{
closed = 1;
nodes = (
"157 -394 LINE",
"157 66 LINE",
"218 71 OFFCURVE",
"265 121 OFFCURVE",
"265 184 CURVE SMOOTH",
"265 246 OFFCURVE",
"218 296 OFFCURVE",
"157 301 CURVE",
"157 784 LINE",
"137 784 LINE",
"137 282 LINE",
"147 282 LINE SMOOTH",
"201 282 OFFCURVE",
"245 238 OFFCURVE",
"245 184 CURVE SMOOTH",
"245 130 OFFCURVE",
"201 86 OFFCURVE",
"147 86 CURVE SMOOTH",
"137 86 LINE",
"137 -394 LINE"
);
},
{
closed = 1;
nodes = (
"121 170 OFFCURVE",
"133 158 OFFCURVE",
"147 158 CURVE SMOOTH",
"161 158 OFFCURVE",
"173 170 OFFCURVE",
"173 185 CURVE SMOOTH",
"173 199 OFFCURVE",
"161 210 OFFCURVE",
"147 210 CURVE SMOOTH",
"133 210 OFFCURVE",
"121 199 OFFCURVE",
"121 185 CURVE SMOOTH"
);
}
);
width = 384;
}
);
note = Y;
},
{
glyphname = Z.ornm;
lastChange = "2021-08-24 19:21:21 +0000";
layers = (
{
hints = (
{
horizontal = 1;
place = "{-394, 21}";
target = up;
type = BottomGhost;
},
{
horizontal = 1;
place = "{66, 20}";
type = Stem;
},
{
horizontal = 1;
place = "{158, 52}";
type = Stem;
},
{
horizontal = 1;
place = "{282, 19}";
type = Stem;
},
{
place = "{119, 20}";
type = Stem;
},
{
place = "{227, 20}";
type = Stem;
},
{
place = "{210, 52}";
type = Stem;
}
);
layerId = "5B3E1226-E0D0-4C23-AF14-DEF1E2C801D3";
paths = (
{
closed = 1;
nodes = (
"247 -394 LINE",
"247 86 LINE",
"237 86 LINE SMOOTH",
"183 86 OFFCURVE",
"139 130 OFFCURVE",
"139 184 CURVE SMOOTH",
"139 238 OFFCURVE",
"183 282 OFFCURVE",
"237 282 CURVE SMOOTH",
"247 282 LINE",
"247 784 LINE",
"227 784 LINE",
"227 301 LINE",
"165 296 OFFCURVE",
"119 246 OFFCURVE",
"119 184 CURVE SMOOTH",
"119 121 OFFCURVE",
"165 71 OFFCURVE",
"227 66 CURVE",
"227 -394 LINE"
);
},
{
closed = 1;
nodes = (
"262 199 OFFCURVE",
"251 210 OFFCURVE",
"237 210 CURVE SMOOTH",
"222 210 OFFCURVE",
"210 199 OFFCURVE",
"210 185 CURVE SMOOTH",
"210 170 OFFCURVE",
"222 158 OFFCURVE",
"237 158 CURVE SMOOTH",
"251 158 OFFCURVE",
"262 170 OFFCURVE",
"262 185 CURVE SMOOTH"
);
}
);
width = 384;
}
);
note = Z;
},
{
glyphname = A.ss01;
lastChange = "2021-08-24 18:22:36 +0000";
layers = (
{
hints = (
{
horizontal = 1;
place = "{192, 38}";
type = Stem;
}
);
layerId = "5B3E1226-E0D0-4C23-AF14-DEF1E2C801D3";
paths = (
{
closed = 1;
nodes = (
"290 -111 OFFCURVE",
"487 59 OFFCURVE",
"621 191 CURVE",
"773 148 LINE",
"764 125 OFFCURVE",
"751 100 OFFCURVE",
"745 80 CURVE SMOOTH",
"696 -61 OFFCURVE",
"736 -110 OFFCURVE",
"797 -110 CURVE SMOOTH",
"836 -110 OFFCURVE",
"846 -68 OFFCURVE",
"832 -76 CURVE SMOOTH",
"811 -88 OFFCURVE",
"792 -86 OFFCURVE",
"782 -81 CURVE",
"752 -58 OFFCURVE",
"775 26 OFFCURVE",
"822 135 CURVE",
"886 120 OFFCURVE",
"995 99 OFFCURVE",
"995 180 CURVE SMOOTH",
"995 202 OFFCURVE",
"961 227 OFFCURVE",
"942 236 CURVE SMOOTH",
"926 242 OFFCURVE",
"931 233 OFFCURVE",
"938 226 CURVE SMOOTH",
"944 220 OFFCURVE",
"972 190 OFFCURVE",
"969 175 CURVE SMOOTH",
"963 146 OFFCURVE",
"905 151 OFFCURVE",
"834 167 CURVE",
"842 185 OFFCURVE",
"852 205 OFFCURVE",
"862 224 CURVE SMOOTH",
"914 319 OFFCURVE",
"983 428 OFFCURVE",
"1052 511 CURVE SMOOTH",
"1069 531 OFFCURVE",
"1087 550 OFFCURVE",
"1105 570 CURVE SMOOTH",
"1112 577 OFFCURVE",
"1121 587 OFFCURVE",
"1121 598 CURVE SMOOTH",
"1121 611 OFFCURVE",
"1108 615 OFFCURVE",
"1098 615 CURVE SMOOTH",
"1089 615 OFFCURVE",
"1080 612 OFFCURVE",
"1072 609 CURVE SMOOTH",
"918 550 OFFCURVE",
"742 339 OFFCURVE",
"612 220 CURVE",
"564 232 OFFCURVE",
"511 246 OFFCURVE",
"458 257 CURVE",
"471 278 LINE SMOOTH",
"516 352 OFFCURVE",
"507 442 OFFCURVE",
"403 442 CURVE SMOOTH",
"275 442 OFFCURVE",
"124 302 OFFCURVE",
"59 201 CURVE SMOOTH",
"28 153 OFFCURVE",
"7 88 OFFCURVE",
"7 31 CURVE SMOOTH",
"7 -57 OFFCURVE",
"56 -111 OFFCURVE",
"145 -111 CURVE SMOOTH"
);
},
{
closed = 1;
nodes = (
"84 -87 OFFCURVE",
"44 -29 OFFCURVE",
"44 37 CURVE SMOOTH",
"44 84 OFFCURVE",
"62 136 OFFCURVE",
"84 178 CURVE SMOOTH",
"101 211 OFFCURVE",
"121 242 OFFCURVE",
"145 271 CURVE SMOOTH",
"198 336 OFFCURVE",
"295 413 OFFCURVE",
"383 413 CURVE SMOOTH",
"465 413 OFFCURVE",
"458 340 OFFCURVE",
"425 264 CURVE",
"374 274 OFFCURVE",
"323 281 OFFCURVE",
"280 281 CURVE SMOOTH",
"233 281 OFFCURVE",
"165 261 OFFCURVE",
"206 201 CURVE SMOOTH",
"220 183 OFFCURVE",
"234 172 OFFCURVE",
"242 173 CURVE SMOOTH",
"260 176 OFFCURVE",
"222 231 OFFCURVE",
"235 245 CURVE",
"252 268 OFFCURVE",
"331 260 OFFCURVE",
"416 243 CURVE",
"397 204 OFFCURVE",
"373 166 OFFCURVE",
"353 138 CURVE SMOOTH",
"347 129 OFFCURVE",
"357 114 OFFCURVE",
"386 152 CURVE SMOOTH",
"402 173 OFFCURVE",
"426 208 OFFCURVE",
"444 236 CURVE",
"498 224 OFFCURVE",
"549 211 OFFCURVE",
"589 200 CURVE",
"582 193 OFFCURVE",
"575 187 OFFCURVE",
"568 182 CURVE",
"486 105 OFFCURVE",
"270 -87 OFFCURVE",
"154 -87 CURVE SMOOTH"
);
},
{
closed = 1;
nodes = (
"722 191 OFFCURVE",
"664 206 OFFCURVE",
"641 212 CURVE",
"752 330 OFFCURVE",
"861 454 OFFCURVE",
"1012 537 CURVE",
"937 452 OFFCURVE",
"844 304 OFFCURVE",
"785 178 CURVE"
);
}
);
width = 932;
}
);
note = A;
},
{
glyphname = AE.ss01;
lastChange = "2021-08-24 18:22:36 +0000";
layers = (
{
background = {
hints = (
{
horizontal = 1;
place = "{-26, 50}";
type = Stem;
},
{
horizontal = 1;
place = "{542, 33}";
type = Stem;
},
{
place = "{344, 29}";
type = Stem;
},
{
horizontal = 1;
place = "{549, 35}";
type = Stem;
}
);
paths = (
{
closed = 1;
nodes = (
"-16 -75 OFFCURVE",
"-15 -70 OFFCURVE",
"-15 -67 CURVE",
"5 12 OFFCURVE",
"102 207 OFFCURVE",
"193 216 CURVE SMOOTH",
"210 217 OFFCURVE",
"350 223 OFFCURVE",
"424 237 CURVE",
"401 188 OFFCURVE",
"379 133 OFFCURVE",
"385 85 CURVE SMOOTH",
"395 4 OFFCURVE",
"452 -26 OFFCURVE",
"526 -26 CURVE SMOOTH",
"630 -26 OFFCURVE",
"902 65 OFFCURVE",
"955 142 CURVE SMOOTH",
"961 151 OFFCURVE",
"962 160 OFFCURVE",
"948 153 CURVE SMOOTH",
"849 98 OFFCURVE",
"656 40 OFFCURVE",
"536 25 CURVE SMOOTH",
"380 5 OFFCURVE",
"469 208 OFFCURVE",
"487 247 CURVE",
"553 255 OFFCURVE",
"714 252 OFFCURVE",
"829 271 CURVE SMOOTH",
"839 273 OFFCURVE",
"888 290 OFFCURVE",
"854 294 CURVE SMOOTH",
"818 298 OFFCURVE",
"780 297 OFFCURVE",
"744 297 CURVE SMOOTH",
"667 297 OFFCURVE",
"591 286 OFFCURVE",
"514 288 CURVE",
"537 319 OFFCURVE",
"668 506 OFFCURVE",
"694 523 CURVE SMOOTH",
"723 543 OFFCURVE",
"856 549 OFFCURVE",
"896 549 CURVE SMOOTH",
"917 549 OFFCURVE",
"954 550 OFFCURVE",
"975 541 CURVE",
"997 501 OFFCURVE",
"1032 559 OFFCURVE",
"978 575 CURVE",
"930 583 OFFCURVE",
"881 584 OFFCURVE",
"834 584 CURVE SMOOTH",
"799 584 OFFCURVE",
"668 585 OFFCURVE",
"605 562 CURVE",
"591 571 OFFCURVE",
"565 575 OFFCURVE",
"555 575 CURVE SMOOTH",
"446 575 OFFCURVE",
"188 341 OFFCURVE",
"118 254 CURVE",
"88 246 OFFCURVE",
"-28 255 OFFCURVE",
"-38 226 CURVE",
"-36 218 OFFCURVE",
"-25 211 OFFCURVE",
"-17 211 CURVE SMOOTH",
"17 211 OFFCURVE",
"52 212 OFFCURVE",
"86 212 CURVE",
"41 155 OFFCURVE",
"-39 23 OFFCURVE",
"-39 -49 CURVE SMOOTH",
"-39 -56 OFFCURVE",
"-28 -75 OFFCURVE",
"-20 -75 CURVE SMOOTH"
);
},
{
closed = 1;
nodes = (
"302 389 OFFCURVE",
"384 479 OFFCURVE",
"540 542 CURVE",
"576 544 LINE",
"573 540 OFFCURVE",
"571 534 OFFCURVE",
"572 529 CURVE SMOOTH",
"575 505 OFFCURVE",
"588 517 OFFCURVE",
"595 504 CURVE",
"558 451 OFFCURVE",
"513 410 OFFCURVE",
"457 302 CURVE SMOOTH",
"438 265 LINE",
"418 267 OFFCURVE",
"394 267 OFFCURVE",
"388 267 CURVE SMOOTH",
"344 267 OFFCURVE",
"238 265 OFFCURVE",
"195 265 CURVE"
);
}
);
};
hints = (
{
horizontal = 1;
place = "{192, 38}";
type = Stem;
},
{
horizontal = 1;
place = "{-110, 33}";
type = Stem;
},
{
horizontal = 1;
place = "{573, 21}";
target = up;
type = BottomGhost;
}
);
layerId = "5B3E1226-E0D0-4C23-AF14-DEF1E2C801D3";
paths = (
{
closed = 1;
nodes = (
"1293 590 OFFCURVE",
"1137 530 OFFCURVE",
"1076 431 CURVE SMOOTH",
"1065 413 OFFCURVE",
"1058 393 OFFCURVE",
"1058 372 CURVE SMOOTH",
"1058 354 OFFCURVE",
"1064 337 OFFCURVE",
"1075 322 CURVE SMOOTH",
"1076 320 LINE",
"986 301 OFFCURVE",
"916 266 OFFCURVE",
"867 233 CURVE",
"918 326 OFFCURVE",
"985 431 OFFCURVE",
"1052 511 CURVE SMOOTH",
"1069 531 OFFCURVE",
"1087 550 OFFCURVE",
"1105 570 CURVE SMOOTH",
"1112 577 OFFCURVE",
"1121 587 OFFCURVE",
"1121 598 CURVE SMOOTH",
"1121 611 OFFCURVE",
"1108 615 OFFCURVE",
"1098 615 CURVE SMOOTH",
"1089 615 OFFCURVE",
"1080 612 OFFCURVE",
"1072 609 CURVE SMOOTH",
"918 550 OFFCURVE",
"742 339 OFFCURVE",
"612 220 CURVE",
"564 232 OFFCURVE",
"511 246 OFFCURVE",
"458 257 CURVE",
"471 278 LINE SMOOTH",
"517 352 OFFCURVE",
"507 442 OFFCURVE",
"403 442 CURVE SMOOTH",
"275 442 OFFCURVE",
"124 302 OFFCURVE",
"59 201 CURVE SMOOTH",
"28 153 OFFCURVE",
"7 88 OFFCURVE",
"7 31 CURVE SMOOTH",
"7 -57 OFFCURVE",
"56 -111 OFFCURVE",
"145 -111 CURVE SMOOTH",
"290 -111 OFFCURVE",
"487 59 OFFCURVE",
"621 191 CURVE",
"770 149 LINE",
"674 39 OFFCURVE",
"688 -119 OFFCURVE",
"929 -119 CURVE SMOOTH",
"1019 -119 OFFCURVE",
"1176 -92 OFFCURVE",
"1310 -15 CURVE SMOOTH",
"1518 104 OFFCURVE",
"1548 286 OFFCURVE",
"1392 269 CURVE SMOOTH",
"1273 256 OFFCURVE",
"1210 202 OFFCURVE",
"1144 131 CURVE",
"1139 123 OFFCURVE",
"1125 85 OFFCURVE",
"1153 110 CURVE SMOOTH",
"1233 183 OFFCURVE",
"1309 242 OFFCURVE",
"1392 254 CURVE SMOOTH",
"1489 268 OFFCURVE",
"1462 126 OFFCURVE",
"1278 18 CURVE SMOOTH",
"1142 -61 OFFCURVE",
"986 -98 OFFCURVE",
"931 -98 CURVE SMOOTH",
"575 -98 OFFCURVE",
"877 254 OFFCURVE",
"1096 301 CURVE SMOOTH",
"1097 301 LINE",
"1137 278 OFFCURVE",
"1189 271 OFFCURVE",
"1234 271 CURVE SMOOTH",
"1262 271 OFFCURVE",
"1308 274 OFFCURVE",
"1326 299 CURVE SMOOTH",
"1330 304 OFFCURVE",
"1334 311 OFFCURVE",
"1334 318 CURVE SMOOTH",
"1334 343 OFFCURVE",
"1283 345 OFFCURVE",
"1265 345 CURVE SMOOTH",
"1220 345 OFFCURVE",
"1167 341 OFFCURVE",
"1123 334 CURVE",
"1115 344 OFFCURVE",
"1112 357 OFFCURVE",
"1112 370 CURVE SMOOTH",
"1112 396 OFFCURVE",
"1125 422 OFFCURVE",
"1140 443 CURVE SMOOTH",
"1197 523 OFFCURVE",
"1325 569 OFFCURVE",
"1420 569 CURVE SMOOTH",
"1444 569 OFFCURVE",
"1495 567 OFFCURVE",
"1495 533 CURVE SMOOTH",
"1495 510 OFFCURVE",
"1426 454 OFFCURVE",
"1397 443 CURVE SMOOTH",
"1351 425 OFFCURVE",
"1337 402 OFFCURVE",
"1394 419 CURVE SMOOTH",
"1434 431 OFFCURVE",
"1485 460 OFFCURVE",
"1505 476 CURVE SMOOTH",
"1616 569 OFFCURVE",
"1522 608 OFFCURVE",
"1407 599 CURVE SMOOTH"
);
},
{
closed = 1;
nodes = (
"937 452 OFFCURVE",
"844 304 OFFCURVE",
"785 178 CURVE",
"722 191 OFFCURVE",
"664 206 OFFCURVE",
"641 212 CURVE",
"752 330 OFFCURVE",
"861 454 OFFCURVE",
"1012 537 CURVE"
);
},
{
closed = 1;
nodes = (
"486 105 OFFCURVE",
"270 -87 OFFCURVE",
"154 -87 CURVE SMOOTH",
"84 -87 OFFCURVE",
"44 -29 OFFCURVE",
"44 37 CURVE SMOOTH",
"44 84 OFFCURVE",
"62 136 OFFCURVE",
"84 178 CURVE SMOOTH",
"101 211 OFFCURVE",
"121 242 OFFCURVE",
"145 271 CURVE SMOOTH",
"198 336 OFFCURVE",
"295 413 OFFCURVE",
"383 413 CURVE SMOOTH",
"465 413 OFFCURVE",
"458 340 OFFCURVE",
"425 264 CURVE",
"374 274 OFFCURVE",
"323 281 OFFCURVE",
"280 281 CURVE SMOOTH",
"233 281 OFFCURVE",
"165 261 OFFCURVE",
"206 201 CURVE SMOOTH",
"220 183 OFFCURVE",
"234 172 OFFCURVE",
"242 173 CURVE SMOOTH",
"260 176 OFFCURVE",
"222 231 OFFCURVE",
"235 245 CURVE",
"252 268 OFFCURVE",
"331 260 OFFCURVE",
"416 243 CURVE",
"397 204 OFFCURVE",
"373 166 OFFCURVE",
"353 138 CURVE SMOOTH",
"347 129 OFFCURVE",
"357 114 OFFCURVE",
"386 152 CURVE SMOOTH",
"402 173 OFFCURVE",
"426 208 OFFCURVE",
"444 236 CURVE",
"498 224 OFFCURVE",
"549 211 OFFCURVE",
"589 200 CURVE",
"582 193 OFFCURVE",
"575 187 OFFCURVE",
"568 182 CURVE"
);
},
{
closed = 1;
nodes = (
"1261 320 OFFCURVE",
"1287 321 OFFCURVE",
"1286 311 CURVE SMOOTH",
"1286 308 LINE",
"1276 294 OFFCURVE",
"1256 291 OFFCURVE",
"1240 291 CURVE SMOOTH",
"1210 291 OFFCURVE",
"1179 298 OFFCURVE",
"1151 310 CURVE",
"1185 316 OFFCURVE",
"1220 320 OFFCURVE",
"1254 320 CURVE SMOOTH"
);
}
);
width = 1437;
}
);
note = AE;
},
{
glyphname = B.ss01;
lastChange = "2021-08-24 18:22:36 +0000";
layers = (
{
hints = (
{
horizontal = 1;
place = "{304, 36}";
type = Stem;
},
{
horizontal = 1;
place = "{638, -20}";
target = down;
type = TopGhost;
}
);
layerId = "5B3E1226-E0D0-4C23-AF14-DEF1E2C801D3";
paths = (
{
closed = 1;
nodes = (
"325 -101 OFFCURVE",
"361 -99 OFFCURVE",
"396 -94 CURVE SMOOTH",
"436 -88 OFFCURVE",
"475 -79 OFFCURVE",
"514 -68 CURVE SMOOTH",
"606 -40 OFFCURVE",
"775 30 OFFCURVE",
"835 108 CURVE SMOOTH",
"852 130 OFFCURVE",
"865 157 OFFCURVE",
"865 185 CURVE SMOOTH",
"865 259 OFFCURVE",
"773 306 OFFCURVE",
"708 320 CURVE",
"785 336 OFFCURVE",
"932 395 OFFCURVE",
"976 452 CURVE SMOOTH",
"991 471 OFFCURVE",
"1004 495 OFFCURVE",
"1004 520 CURVE SMOOTH",
"1004 636 OFFCURVE",
"726 643 OFFCURVE",
"650 643 CURVE SMOOTH",
"462 643 OFFCURVE",
"190 614 OFFCURVE",
"55 471 CURVE SMOOTH",
"26 440 OFFCURVE",
"0 398 OFFCURVE",
"0 354 CURVE SMOOTH",
"0 322 OFFCURVE",
"14 295 OFFCURVE",
"43 281 CURVE SMOOTH",
"69 268 OFFCURVE",
"89 270 OFFCURVE",
"112 275 CURVE SMOOTH",
"118 276 OFFCURVE",
"131 287 OFFCURVE",
"131 294 CURVE SMOOTH",
"131 297 OFFCURVE",
"128 300 OFFCURVE",
"125 299 CURVE SMOOTH",
"113 293 OFFCURVE",
"92 293 OFFCURVE",
"75 301 CURVE SMOOTH",
"54 311 OFFCURVE",
"47 329 OFFCURVE",
"47 352 CURVE SMOOTH",
"47 394 OFFCURVE",
"82 437 OFFCURVE",
"111 464 CURVE SMOOTH",
"237 581 OFFCURVE",
"441 618 OFFCURVE",
"608 618 CURVE SMOOTH",
"677 618 OFFCURVE",
"941 606 OFFCURVE",
"941 507 CURVE SMOOTH",
"941 491 OFFCURVE",
"934 477 OFFCURVE",
"926 464 CURVE SMOOTH",
"890 409 OFFCURVE",
"721 341 OFFCURVE",
"655 341 CURVE SMOOTH",
"652 341 OFFCURVE",
"648 342 OFFCURVE",
"644 342 CURVE SMOOTH",
"634 342 OFFCURVE",
"623 335 OFFCURVE",
"623 324 CURVE SMOOTH",
"623 309 OFFCURVE",
"631 299 OFFCURVE",
"647 299 CURVE SMOOTH",
"707 299 OFFCURVE",
"812 245 OFFCURVE",
"812 177 CURVE SMOOTH",
"812 154 OFFCURVE",
"802 133 OFFCURVE",
"788 115 CURVE SMOOTH",
"715 20 OFFCURVE",
"509 -42 OFFCURVE",
"396 -61 CURVE SMOOTH",
"377 -64 OFFCURVE",
"150 -105 OFFCURVE",
"150 -16 CURVE SMOOTH",
"150 48 OFFCURVE",
"264 80 OFFCURVE",
"312 97 CURVE",
"291 68 OFFCURVE",
"274 32 OFFCURVE",
"274 0 CURVE SMOOTH",
"274 -12 OFFCURVE",
"277 -19 OFFCURVE",
"286 -27 CURVE SMOOTH",
"300 -39 OFFCURVE",
"319 -47 OFFCURVE",
"344 -36 CURVE",
"353 -29 OFFCURVE",
"364 -17 OFFCURVE",
"364 -9 CURVE SMOOTH",
"364 -8 OFFCURVE",
"363 -7 OFFCURVE",
"362 -7 CURVE SMOOTH",
"354 -7 OFFCURVE",
"339 -24 OFFCURVE",
"326 -24 CURVE SMOOTH",
"315 -24 OFFCURVE",
"307 -18 OFFCURVE",
"307 -7 CURVE SMOOTH",
"307 21 OFFCURVE",
"363 87 OFFCURVE",
"385 117 CURVE",
"413 123 OFFCURVE",
"442 127 OFFCURVE",
"471 127 CURVE SMOOTH",
"485 127 OFFCURVE",
"539 126 OFFCURVE",
"539 107 CURVE SMOOTH",
"539 106 OFFCURVE",
"537 103 OFFCURVE",
"537 101 CURVE SMOOTH",
"537 96 OFFCURVE",
"542 93 OFFCURVE",
"546 93 CURVE SMOOTH",
"559 93 OFFCURVE",
"577 112 OFFCURVE",
"577 124 CURVE SMOOTH",
"577 147 OFFCURVE",
"505 147 OFFCURVE",
"489 147 CURVE SMOOTH",
"461 147 OFFCURVE",
"435 146 OFFCURVE",
"410 144 CURVE",
"510 248 OFFCURVE",
"630 422 OFFCURVE",
"784 529 CURVE SMOOTH",
"820 554 OFFCURVE",
"802 560 OFFCURVE",
"776 549 CURVE SMOOTH",
"754 540 OFFCURVE",
"678 497 OFFCURVE",
"628 449 CURVE SMOOTH",
"527 352 OFFCURVE",
"465 301 OFFCURVE",
"335 133 CURVE",
"246 109 OFFCURVE",
"102 66 OFFCURVE",
"102 -18 CURVE SMOOTH",
"102 -96 OFFCURVE",
"236 -101 OFFCURVE",
"289 -101 CURVE SMOOTH"
);
}
);
width = 855;
}
);
note = B;
},
{
glyphname = C.ss01;
lastChange = "2021-08-24 18:22:36 +0000";
layers = (
{
layerId = "5B3E1226-E0D0-4C23-AF14-DEF1E2C801D3";
paths = (
{
closed = 1;
nodes = (
"428 -75 OFFCURVE",
"576 2 OFFCURVE",
"676 91 CURVE SMOOTH",
"685 99 OFFCURVE",
"720 136 OFFCURVE",
"722 146 CURVE SMOOTH",
"722 148 OFFCURVE",
"721 150 OFFCURVE",
"718 150 CURVE",
"709 152 OFFCURVE",
"672 120 OFFCURVE",
"661 110 CURVE SMOOTH",
"567 29 OFFCURVE",
"435 -43 OFFCURVE",
"310 -43 CURVE SMOOTH",
"212 -43 OFFCURVE",
"114 9 OFFCURVE",
"114 118 CURVE SMOOTH",
"114 202 OFFCURVE",
"171 293 OFFCURVE",
"229 357 CURVE SMOOTH",
"345 483 OFFCURVE",
"511 564 OFFCURVE",
"684 564 CURVE SMOOTH",
"714 564 OFFCURVE",
"820 559 OFFCURVE",
"820 511 CURVE SMOOTH",
"820 411 OFFCURVE",
"547 316 OFFCURVE",
"477 316 CURVE SMOOTH",
"456 316 OFFCURVE",
"418 322 OFFCURVE",
"418 350 CURVE SMOOTH",
"418 409 OFFCURVE",
"539 465 OFFCURVE",
"568 473 CURVE SMOOTH",
"626 489 OFFCURVE",
"614 502 OFFCURVE",
"561 490 CURVE SMOOTH",
"483 472 OFFCURVE",
"389 399 OFFCURVE",
"389 342 CURVE SMOOTH",
"389 293 OFFCURVE",
"453 281 OFFCURVE",
"490 281 CURVE SMOOTH",
"574 281 OFFCURVE",
"727 333 OFFCURVE",
"791 398 CURVE SMOOTH",
"820 427 OFFCURVE",
"848 464 OFFCURVE",
"848 507 CURVE SMOOTH",
"848 592 OFFCURVE",
"754 611 OFFCURVE",
"689 611 CURVE SMOOTH",
"538 611 OFFCURVE",
"345 529 OFFCURVE",
"237 424 CURVE SMOOTH",
"153 343 OFFCURVE",
"61 208 OFFCURVE",
"61 96 CURVE SMOOTH",
"61 -32 OFFCURVE",
"178 -75 OFFCURVE",
"294 -75 CURVE SMOOTH"
);
}
);
width = 646;
}
);
note = C;
},
{
glyphname = D.ss01;
lastChange = "2021-08-24 18:22:36 +0000";
layers = (
{
hints = (
{
horizontal = 1;
place = "{-52, 29}";
type = Stem;
},
{
horizontal = 1;
place = "{158, 31}";
type = Stem;
},
{
horizontal = 1;
place = "{247, 14}";
type = Stem;
},
{
horizontal = 1;
place = "{587, 22}";
type = Stem;
},
{
place = "{56, 47}";
type = Stem;
},
{
place = "{191, 53}";
type = Stem;
},
{
place = "{308, 27}";
type = Stem;
},
{
place = "{751, 25}";
type = Stem;
},
{
place = "{1004, 65}";
type = Stem;
}
);
layerId = "5B3E1226-E0D0-4C23-AF14-DEF1E2C801D3";
paths = (
{
closed = 1;
nodes = (
"679 9 OFFCURVE",
"939 109 OFFCURVE",
"1035 282 CURVE SMOOTH",
"1164 520 OFFCURVE",
"895 609 OFFCURVE",
"706 609 CURVE SMOOTH",
"518 609 OFFCURVE",
"246 580 OFFCURVE",
"111 437 CURVE SMOOTH",
"82 406 OFFCURVE",
"56 364 OFFCURVE",
"56 320 CURVE SMOOTH",
"56 288 OFFCURVE",
"70 261 OFFCURVE",
"99 247 CURVE SMOOTH",
"125 234 OFFCURVE",
"145 236 OFFCURVE",
"168 241 CURVE SMOOTH",
"174 242 OFFCURVE",
"187 253 OFFCURVE",
"187 260 CURVE SMOOTH",
"187 263 OFFCURVE",
"184 266 OFFCURVE",
"181 265 CURVE SMOOTH",
"169 259 OFFCURVE",
"148 259 OFFCURVE",
"131 267 CURVE SMOOTH",
"110 277 OFFCURVE",
"103 295 OFFCURVE",
"103 318 CURVE SMOOTH",
"103 360 OFFCURVE",
"138 403 OFFCURVE",
"167 430 CURVE SMOOTH",
"293 547 OFFCURVE",
"501 587 OFFCURVE",
"668 587 CURVE SMOOTH",
"834 587 OFFCURVE",
"1060 533 OFFCURVE",
"992 311 CURVE SMOOTH",
"957 197 OFFCURVE",
"770 90 OFFCURVE",
"669 50 CURVE SMOOTH",
"622 31 OFFCURVE",
"575 17 OFFCURVE",
"526 7 CURVE SMOOTH",
"488 -1 OFFCURVE",
"244 -49 OFFCURVE",
"244 -6 CURVE SMOOTH",
"244 25 OFFCURVE",
"273 52 OFFCURVE",
"316 75 CURVE",
"306 49 OFFCURVE",
"306 27 OFFCURVE",
"315 11 CURVE SMOOTH",
"320 2 OFFCURVE",
"338 -1 OFFCURVE",
"335 16 CURVE SMOOTH",
"332 32 OFFCURVE",
"352 69 OFFCURVE",
"374 101 CURVE",
"468 137 OFFCURVE",
"589 158 OFFCURVE",
"641 158 CURVE SMOOTH",
"656 158 OFFCURVE",
"751 162 OFFCURVE",
"751 139 CURVE SMOOTH",
"751 130 OFFCURVE",
"730 117 OFFCURVE",
"744 117 CURVE SMOOTH",
"760 117 OFFCURVE",
"776 141 OFFCURVE",
"776 158 CURVE SMOOTH",
"776 192 OFFCURVE",
"671 189 OFFCURVE",
"652 189 CURVE SMOOTH",
"601 189 OFFCURVE",
"503 176 OFFCURVE",
"410 150 CURVE",
"414 155 LINE SMOOTH",
"508 265 OFFCURVE",
"622 417 OFFCURVE",
"784 529 CURVE SMOOTH",
"820 554 OFFCURVE",
"802 560 OFFCURVE",
"776 549 CURVE SMOOTH",
"754 540 OFFCURVE",
"678 497 OFFCURVE",
"628 449 CURVE SMOOTH",
"523 348 OFFCURVE",
"480 322 OFFCURVE",
"391 202 CURVE SMOOTH",
"371 175 OFFCURVE",
"354 151 OFFCURVE",
"341 128 CURVE",
"257 97 OFFCURVE",
"191 52 OFFCURVE",
"191 -5 CURVE SMOOTH",
"191 -98 OFFCURVE",
"521 -24 OFFCURVE",
"532 -22 CURVE SMOOTH"
);
}
);
width = 951;
}
);
note = D;
},
{
glyphname = Eth.ss01;
lastChange = "2021-08-24 18:22:36 +0000";
layers = (
{
hints = (
{
horizontal = 1;
place = "{-22, 39}";
type = Stem;
},
{
horizontal = 1;
place = "{557, 39}";
type = Stem;
}
);
layerId = "5B3E1226-E0D0-4C23-AF14-DEF1E2C801D3";
paths = (
{
closed = 1;
nodes = (
"402 -1 OFFCURVE",
"694 157 OFFCURVE",
"671 367 CURVE SMOOTH",
"649 569 OFFCURVE",
"424 596 OFFCURVE",
"269 596 CURVE SMOOTH",
"240 596 OFFCURVE",
"86 584 OFFCURVE",
"92 537 CURVE SMOOTH",
"92 533 OFFCURVE",
"102 533 OFFCURVE",
"103 533 CURVE SMOOTH",
"117 533 OFFCURVE",
"131 538 OFFCURVE",
"144 542 CURVE SMOOTH",
"189 557 OFFCURVE",
"244 557 OFFCURVE",
"293 557 CURVE SMOOTH",
"419 557 OFFCURVE",
"617 555 OFFCURVE",
"636 383 CURVE SMOOTH",
"654 214 OFFCURVE",
"346 34 OFFCURVE",
"197 34 CURVE SMOOTH",
"192 34 OFFCURVE",
"146 34 OFFCURVE",
"147 23 CURVE SMOOTH",
"148 11 OFFCURVE",
"203 -1 OFFCURVE",
"217 -1 CURVE SMOOTH"
);
},
{
closed = 1;
nodes = (
"115 -22 OFFCURVE",
"134 3 OFFCURVE",
"132 26 CURVE",
"132 26 OFFCURVE",
"131 31 OFFCURVE",
"129 31 CURVE SMOOTH",
"125 31 OFFCURVE",
"113 18 OFFCURVE",
"99 18 CURVE SMOOTH",
"90 18 OFFCURVE",
"88 24 OFFCURVE",
"87 32 CURVE SMOOTH",
"83 71 OFFCURVE",
"102 121 OFFCURVE",
"133 176 CURVE",
"193 176 LINE SMOOTH",
"234 176 OFFCURVE",
"287 185 OFFCURVE",
"287 201 CURVE SMOOTH",
"287 212 OFFCURVE",
"242 213 OFFCURVE",
"225 213 CURVE SMOOTH",
"156 213 LINE",
"244 350 OFFCURVE",
"383 495 OFFCURVE",
"382 507 CURVE SMOOTH",
"380 522 OFFCURVE",
"348 538 OFFCURVE",
"335 538 CURVE SMOOTH",
"287 538 OFFCURVE",
"178 360 OFFCURVE",
"111 213 CURVE",
"70 213 LINE SMOOTH",
"38 213 OFFCURVE",
"-5 176 OFFCURVE",
"28 176 CURVE SMOOTH",
"94 176 LINE",
"67 112 OFFCURVE",
"50 58 OFFCURVE",
"53 33 CURVE SMOOTH",
"55 14 OFFCURVE",
"68 -22 OFFCURVE",
"92 -22 CURVE SMOOTH"
);
}
);
width = 587;
}
);
note = Eth;
},
{
glyphname = E.ss01;
lastChange = "2021-08-24 18:22:36 +0000";
layers = (
{
hints = (
{
horizontal = 1;
place = "{-110, 33}";
type = Stem;
},
{
horizontal = 1;
place = "{573, 21}";
target = up;
type = BottomGhost;
}
);
layerId = "5B3E1226-E0D0-4C23-AF14-DEF1E2C801D3";
paths = (
{
closed = 1;
nodes = (
"330 -119 OFFCURVE",
"487 -92 OFFCURVE",
"621 -15 CURVE SMOOTH",
"829 104 OFFCURVE",
"859 286 OFFCURVE",
"703 269 CURVE SMOOTH",
"584 256 OFFCURVE",
"521 202 OFFCURVE",
"455 131 CURVE",
"450 123 OFFCURVE",
"436 85 OFFCURVE",
"464 110 CURVE SMOOTH",
"544 183 OFFCURVE",
"620 242 OFFCURVE",
"703 254 CURVE SMOOTH",
"800 268 OFFCURVE",
"773 126 OFFCURVE",
"589 18 CURVE SMOOTH",
"453 -61 OFFCURVE",
"297 -98 OFFCURVE",
"242 -98 CURVE SMOOTH",
"-114 -98 OFFCURVE",
"188 254 OFFCURVE",
"407 301 CURVE SMOOTH",
"408 301 LINE",
"448 278 OFFCURVE",
"500 271 OFFCURVE",
"545 271 CURVE SMOOTH",
"573 271 OFFCURVE",
"619 274 OFFCURVE",
"637 299 CURVE SMOOTH",
"641 304 OFFCURVE",
"645 311 OFFCURVE",
"645 318 CURVE SMOOTH",
"645 343 OFFCURVE",
"594 345 OFFCURVE",
"576 345 CURVE SMOOTH",
"531 345 OFFCURVE",
"478 341 OFFCURVE",
"434 334 CURVE",
"426 344 OFFCURVE",
"423 357 OFFCURVE",
"423 370 CURVE SMOOTH",
"423 396 OFFCURVE",
"436 422 OFFCURVE",
"451 443 CURVE SMOOTH",
"508 523 OFFCURVE",
"636 569 OFFCURVE",
"731 569 CURVE SMOOTH",
"755 569 OFFCURVE",
"806 567 OFFCURVE",
"806 533 CURVE SMOOTH",
"806 510 OFFCURVE",
"737 454 OFFCURVE",
"708 443 CURVE SMOOTH",
"662 425 OFFCURVE",
"648 402 OFFCURVE",
"705 419 CURVE SMOOTH",
"745 431 OFFCURVE",
"796 460 OFFCURVE",
"816 476 CURVE SMOOTH",
"927 569 OFFCURVE",
"833 608 OFFCURVE",
"718 599 CURVE SMOOTH",
"604 590 OFFCURVE",
"448 530 OFFCURVE",
"387 431 CURVE SMOOTH",
"376 413 OFFCURVE",
"369 393 OFFCURVE",
"369 372 CURVE SMOOTH",
"369 354 OFFCURVE",
"375 337 OFFCURVE",
"386 322 CURVE SMOOTH",
"387 320 LINE",
"194 279 OFFCURVE",
"96 166 OFFCURVE",
"86 154 CURVE SMOOTH",
"-15 44 OFFCURVE",
"-5 -119 OFFCURVE",
"240 -119 CURVE SMOOTH"
);
},
{
closed = 1;
nodes = (
"521 291 OFFCURVE",
"490 298 OFFCURVE",
"462 310 CURVE",
"496 316 OFFCURVE",
"531 320 OFFCURVE",
"565 320 CURVE SMOOTH",
"572 320 OFFCURVE",
"598 321 OFFCURVE",
"597 311 CURVE SMOOTH",
"597 308 LINE",
"587 294 OFFCURVE",
"567 291 OFFCURVE",
"551 291 CURVE SMOOTH"
);
}
);
width = 748;
}
);
note = E;
},
{
glyphname = F.ss01;
lastChange = "2021-08-24 18:22:36 +0000";
layers = (
{
hints = (
{
horizontal = 1;
place = "{254, 25}";
type = Stem;
},
{
horizontal = 1;
place = "{658, -20}";
target = down;
type = TopGhost;
}
);
layerId = "5B3E1226-E0D0-4C23-AF14-DEF1E2C801D3";
paths = (
{
closed = 1;
nodes = (
"313 -179 OFFCURVE",
"337 -167 OFFCURVE",
"345 -159 CURVE SMOOTH",
"350 -154 OFFCURVE",
"353 -149 OFFCURVE",
"357 -144 CURVE SMOOTH",
"359 -141 OFFCURVE",
"362 -140 OFFCURVE",
"362 -135 CURVE SMOOTH",
"362 -131 OFFCURVE",
"358 -128 OFFCURVE",
"354 -128 CURVE SMOOTH",
"350 -128 OFFCURVE",
"346 -132 OFFCURVE",
"345 -136 CURVE",
"338 -141 OFFCURVE",
"329 -149 OFFCURVE",
"321 -149 CURVE SMOOTH",
"310 -149 OFFCURVE",
"303 -142 OFFCURVE",
"303 -132 CURVE SMOOTH",
"303 -109 OFFCURVE",
"325 -82 OFFCURVE",
"340 -66 CURVE SMOOTH",
"441 39 OFFCURVE",
"538 144 OFFCURVE",
"636 251 CURVE",
"694 253 OFFCURVE",
"726 249 OFFCURVE",
"758 249 CURVE SMOOTH",
"763 249 OFFCURVE",
"774 249 OFFCURVE",
"774 257 CURVE SMOOTH",
"774 280 OFFCURVE",
"676 281 OFFCURVE",
"663 282 CURVE",
"712 338 OFFCURVE",
"862 503 OFFCURVE",
"862 580 CURVE SMOOTH",
"862 650 OFFCURVE",
"778 661 OFFCURVE",
"725 661 CURVE SMOOTH",
"641 661 OFFCURVE",
"553 642 OFFCURVE",
"472 618 CURVE SMOOTH",
"355 584 OFFCURVE",
"31 442 OFFCURVE",
"31 314 CURVE SMOOTH",
"31 282 OFFCURVE",
"82 272 OFFCURVE",
"109 272 CURVE SMOOTH",
"120 272 OFFCURVE",
"188 278 OFFCURVE",
"188 289 CURVE SMOOTH",
"188 296 OFFCURVE",
"159 294 OFFCURVE",
"155 294 CURVE SMOOTH",
"131 295 OFFCURVE",
"86 299 OFFCURVE",
"86 328 CURVE SMOOTH",
"86 382 OFFCURVE",
"237 478 OFFCURVE",
"289 506 CURVE SMOOTH",
"400 566 OFFCURVE",
"557 634 OFFCURVE",
"682 634 CURVE SMOOTH",
"720 634 OFFCURVE",
"795 630 OFFCURVE",
"795 582 CURVE SMOOTH",
"795 502 OFFCURVE",
"672 342 OFFCURVE",
"622 283 CURVE",
"493 283 OFFCURVE",
"378 267 OFFCURVE",
"265 234 CURVE SMOOTH",
"245 228 OFFCURVE",
"223 222 OFFCURVE",
"203 214 CURVE SMOOTH",
"195 211 OFFCURVE",
"186 205 OFFCURVE",
"186 194 CURVE SMOOTH",
"186 180 OFFCURVE",
"198 168 OFFCURVE",
"210 168 CURVE SMOOTH",
"212 168 OFFCURVE",
"215 168 OFFCURVE",
"216 169 CURVE",
"336 216 OFFCURVE",
"453 239 OFFCURVE",
"592 249 CURVE",
"486 138 OFFCURVE",
"375 42 OFFCURVE",
"282 -63 CURVE SMOOTH",
"270 -77 OFFCURVE",
"247 -102 OFFCURVE",
"247 -122 CURVE SMOOTH",
"247 -135 OFFCURVE",
"258 -144 OFFCURVE",
"267 -152 CURVE SMOOTH",
"278 -161 OFFCURVE",
"286 -179 OFFCURVE",
"302 -179 CURVE SMOOTH"
);
}
);
width = 699;
}
);
note = F;
},
{
glyphname = G.ss01;
lastChange = "2021-08-24 18:22:36 +0000";
layers = (
{
hints = (
{
horizontal = 1;
place = "{-196, 23}";
type = Stem;
},
{
horizontal = 1;
place = "{624, -20}";
target = down;
type = TopGhost;
}
);
layerId = "5B3E1226-E0D0-4C23-AF14-DEF1E2C801D3";
paths = (
{
closed = 1;
nodes = (
"371 -401 OFFCURVE",
"512 -275 OFFCURVE",
"611 -126 CURVE",
"649 -133 OFFCURVE",
"684 -141 OFFCURVE",
"714 -149 CURVE SMOOTH",
"762 -163 OFFCURVE",
"802 -164 OFFCURVE",
"738 -131 CURVE SMOOTH",
"712 -117 OFFCURVE",
"676 -104 OFFCURVE",
"632 -94 CURVE",
"675 -24 OFFCURVE",
"709 50 OFFCURVE",
"735 118 CURVE SMOOTH",
"777 226 OFFCURVE",
"791 305 OFFCURVE",
"796 361 CURVE",
"870 397 OFFCURVE",
"974 454 OFFCURVE",
"974 540 CURVE SMOOTH",
"974 610 OFFCURVE",
"900 629 OFFCURVE",
"844 629 CURVE SMOOTH",
"834 629 OFFCURVE",
"825 628 OFFCURVE",
"815 627 CURVE SMOOTH",
"648 609 OFFCURVE",
"483 517 OFFCURVE",
"355 411 CURVE",
"334 440 OFFCURVE",
"328 468 OFFCURVE",
"323 503 CURVE SMOOTH",
"322 514 OFFCURVE",
"320 525 OFFCURVE",
"316 535 CURVE SMOOTH",
"314 539 OFFCURVE",
"312 542 OFFCURVE",
"308 542 CURVE SMOOTH",
"295 542 OFFCURVE",
"291 512 OFFCURVE",
"291 504 CURVE SMOOTH",
"291 462 OFFCURVE",
"304 422 OFFCURVE",
"330 389 CURVE",
"249 320 OFFCURVE",
"124 169 OFFCURVE",
"124 57 CURVE SMOOTH",
"124 0 OFFCURVE",
"155 -26 OFFCURVE",
"210 -26 CURVE SMOOTH",
"365 -26 OFFCURVE",
"603 195 OFFCURVE",
"707 305 CURVE",
"730 319 LINE",
"714 177 OFFCURVE",
"663 38 OFFCURVE",
"593 -85 CURVE",
"501 -66 OFFCURVE",
"386 -56 OFFCURVE",
"278 -57 CURVE SMOOTH",
"150 -60 OFFCURVE",
"15 -83 OFFCURVE",
"-42 -106 CURVE SMOOTH",
"-77 -118 OFFCURVE",
"-124 -190 OFFCURVE",
"-113 -221 CURVE SMOOTH",
"-66 -354 OFFCURVE",
"79 -416 OFFCURVE",
"180 -410 CURVE SMOOTH"
);
},
{
closed = 1;
nodes = (
"55 -372 OFFCURVE",
"-47 -300 OFFCURVE",
"-66 -242 CURVE SMOOTH",
"-75 -216 OFFCURVE",
"-84 -173 OFFCURVE",
"-53 -160 CURVE",
"88 -82 OFFCURVE",
"368 -88 OFFCURVE",
"573 -120 CURVE",
"503 -237 OFFCURVE",
"410 -342 OFFCURVE",
"181 -361 CURVE SMOOTH"
);
},
{
closed = 1;
nodes = (
"194 13 OFFCURVE",
"174 29 OFFCURVE",
"174 64 CURVE SMOOTH",
"174 137 OFFCURVE",
"249 245 OFFCURVE",
"298 296 CURVE SMOOTH",
"318 317 OFFCURVE",
"340 337 OFFCURVE",
"360 357 CURVE",
"415 320 OFFCURVE",
"483 315 OFFCURVE",
"548 315 CURVE SMOOTH",
"591 315 OFFCURVE",
"634 319 OFFCURVE",
"677 327 CURVE",
"577 210 OFFCURVE",
"418 54 OFFCURVE",
"266 18 CURVE SMOOTH",
"254 15 OFFCURVE",
"241 13 OFFCURVE",
"228 13 CURVE SMOOTH"
);
},
{
closed = 1;
nodes = (
"624 336 OFFCURVE",
"475 328 OFFCURVE",
"389 382 CURVE",
"502 485 OFFCURVE",
"636 570 OFFCURVE",
"788 599 CURVE SMOOTH",
"803 602 OFFCURVE",
"819 604 OFFCURVE",
"834 604 CURVE SMOOTH",
"875 604 OFFCURVE",
"922 589 OFFCURVE",
"922 540 CURVE SMOOTH",
"922 484 OFFCURVE",
"856 437 OFFCURVE",
"813 411 CURVE SMOOTH",
"798 402 LINE",
"798 427 OFFCURVE",
"785 433 OFFCURVE",
"774 433 CURVE SMOOTH",
"758 433 OFFCURVE",
"745 422 OFFCURVE",
"739 404 CURVE",
"736 375 LINE"
);
}
);
width = 785;
}
);
note = G;
},
{
glyphname = H.ss01;
lastChange = "2021-08-24 18:22:36 +0000";
layers = (
{
hints = (
{
horizontal = 1;
place = "{166, 31}";
type = Stem;
},
{
horizontal = 1;
place = "{595, -20}";
target = down;
type = TopGhost;
}
);
layerId = "5B3E1226-E0D0-4C23-AF14-DEF1E2C801D3";
paths = (
{
closed = 1;
nodes = (
"68 -191 OFFCURVE",
"298 77 OFFCURVE",
"390 193 CURVE",
"477 150 OFFCURVE",
"577 86 OFFCURVE",
"622 -3 CURVE",
"618 -15 OFFCURVE",
"616 -29 OFFCURVE",
"616 -42 CURVE SMOOTH",
"616 -62 OFFCURVE",
"620 -92 OFFCURVE",
"645 -92 CURVE SMOOTH",
"666 -92 OFFCURVE",
"683 -76 OFFCURVE",
"683 -54 CURVE SMOOTH",
"683 -39 OFFCURVE",
"670 -13 OFFCURVE",
"663 2 CURVE",
"683 60 OFFCURVE",
"726 129 OFFCURVE",
"761 180 CURVE",
"807 169 OFFCURVE",
"941 129 OFFCURVE",
"941 217 CURVE SMOOTH",
"941 239 OFFCURVE",
"907 264 OFFCURVE",
"888 273 CURVE SMOOTH",
"872 279 OFFCURVE",
"877 270 OFFCURVE",
"884 263 CURVE SMOOTH",
"890 257 OFFCURVE",
"918 227 OFFCURVE",
"915 212 CURVE SMOOTH",
"909 183 OFFCURVE",
"851 188 OFFCURVE",
"780 204 CURVE",
"859 320 OFFCURVE",
"984 456 OFFCURVE",
"1028 499 CURVE SMOOTH",
"1064 535 OFFCURVE",
"1161 619 OFFCURVE",
"1214 619 CURVE SMOOTH",
"1248 619 OFFCURVE",
"1230 594 OFFCURVE",
"1219 582 CURVE SMOOTH",
"1156 518 OFFCURVE",
"1065 424 OFFCURVE",
"1095 376 CURVE SMOOTH",
"1102 365 OFFCURVE",
"1101 376 OFFCURVE",
"1102 382 CURVE SMOOTH",
"1120 479 OFFCURVE",
"1256 504 OFFCURVE",
"1256 597 CURVE SMOOTH",
"1256 625 OFFCURVE",
"1244 661 OFFCURVE",
"1211 661 CURVE SMOOTH",
"1075 661 OFFCURVE",
"830 355 OFFCURVE",
"733 212 CURVE",
"640 230 OFFCURVE",
"538 265 OFFCURVE",
"459 283 CURVE",
"490 326 OFFCURVE",
"608 499 OFFCURVE",
"608 549 CURVE SMOOTH",
"608 593 OFFCURVE",
"555 598 OFFCURVE",
"523 598 CURVE SMOOTH",
"466 598 OFFCURVE",
"372 580 OFFCURVE",
"319 558 CURVE SMOOTH",
"244 528 OFFCURVE",
"142 466 OFFCURVE",
"91 403 CURVE SMOOTH",
"69 376 OFFCURVE",
"43 330 OFFCURVE",
"43 295 CURVE SMOOTH",
"43 260 OFFCURVE",
"72 254 OFFCURVE",
"101 254 CURVE SMOOTH",
"134 254 OFFCURVE",
"178 265 OFFCURVE",
"207 282 CURVE",
"212 283 OFFCURVE",
"229 292 OFFCURVE",
"231 300 CURVE",
"231 302 OFFCURVE",
"228 303 OFFCURVE",
"226 303 CURVE SMOOTH",
"221 303 OFFCURVE",
"217 301 OFFCURVE",
"212 301 CURVE",
"187 293 OFFCURVE",
"156 284 OFFCURVE",
"130 284 CURVE SMOOTH",
"107 284 OFFCURVE",
"88 292 OFFCURVE",
"88 319 CURVE SMOOTH",
"88 391 OFFCURVE",
"247 497 OFFCURVE",
"305 526 CURVE SMOOTH",
"355 551 OFFCURVE",
"424 575 OFFCURVE",
"481 575 CURVE SMOOTH",
"506 575 OFFCURVE",
"549 569 OFFCURVE",
"549 536 CURVE SMOOTH",
"549 494 OFFCURVE",
"437 333 OFFCURVE",
"410 295 CURVE",
"389 300 OFFCURVE",
"367 301 OFFCURVE",
"346 301 CURVE SMOOTH",
"326 301 OFFCURVE",
"266 297 OFFCURVE",
"266 268 CURVE SMOOTH",
"266 257 OFFCURVE",
"276 251 OFFCURVE",
"284 246 CURVE SMOOTH",
"306 233 OFFCURVE",
"332 224 OFFCURVE",
"355 213 CURVE",
"283 122 OFFCURVE",
"41 -166 OFFCURVE",
"-83 -166 CURVE SMOOTH",
"-128 -166 OFFCURVE",
"-168 -138 OFFCURVE",
"-168 -91 CURVE SMOOTH",
"-168 -67 OFFCURVE",
"-159 -41 OFFCURVE",
"-148 -21 CURVE SMOOTH",
"-122 25 OFFCURVE",
"-87 53 OFFCURVE",
"-38 71 CURVE",
"-32 74 OFFCURVE",
"7 85 OFFCURVE",
"7 93 CURVE SMOOTH",
"7 98 OFFCURVE",
"-4 97 OFFCURVE",
"-6 97 CURVE SMOOTH",
"-22 97 OFFCURVE",
"-39 93 OFFCURVE",
"-53 88 CURVE SMOOTH",
"-111 70 OFFCURVE",
"-167 36 OFFCURVE",
"-200 -16 CURVE SMOOTH",
"-212 -35 OFFCURVE",
"-217 -58 OFFCURVE",
"-217 -80 CURVE SMOOTH",
"-217 -153 OFFCURVE",
"-164 -191 OFFCURVE",
"-95 -191 CURVE SMOOTH"
);
},
{
closed = 1;
nodes = (
"354 248 OFFCURVE",
"326 257 OFFCURVE",
"318 266 CURVE",
"318 267 LINE",
"323 281 OFFCURVE",
"385 276 OFFCURVE",
"395 269 CURVE",
"389 260 OFFCURVE",
"377 248 OFFCURVE",
"371 240 CURVE"
);
},
{
closed = 1;
nodes = (
"581 120 OFFCURVE",
"498 177 OFFCURVE",
"410 220 CURVE",
"442 260 LINE",
"535 240 OFFCURVE",
"628 214 OFFCURVE",
"720 191 CURVE",
"693 146 OFFCURVE",
"662 90 OFFCURVE",
"640 41 CURVE"
);
}
);
width = 841;
}
);
note = H;
},
{
glyphname = I.ss01;
lastChange = "2021-08-24 18:22:36 +0000";
layers = (
{
hints = (
{
horizontal = 1;
place = "{-53, 24}";
type = Stem;
},
{
horizontal = 1;
place = "{246, 36}";
type = Stem;
},
{
place = "{45, 44}";
type = Stem;
},
{
place = "{499, 48}";
type = Stem;
},
{
place = "{759, 56}";
type = Stem;
},
{
horizontal = 1;
place = "{597, 28}";
type = Stem;
},
{
place = "{472, 19}";
type = Stem;
},
{
horizontal = 1;
place = "{353, 22}";
type = Stem;
}
);
layerId = "5B3E1226-E0D0-4C23-AF14-DEF1E2C801D3";
paths = (
{
closed = 1;
nodes = (
"342 -53 OFFCURVE",
"518 96 OFFCURVE",
"599 218 CURVE SMOOTH",
"662 310 OFFCURVE",
"815 555 OFFCURVE",
"815 611 CURVE SMOOTH",
"815 624 OFFCURVE",
"802 625 OFFCURVE",
"791 625 CURVE SMOOTH",
"719 625 OFFCURVE",
"499 475 OFFCURVE",
"499 392 CURVE SMOOTH",
"499 361 OFFCURVE",
"530 353 OFFCURVE",
"555 353 CURVE SMOOTH",
"569 353 OFFCURVE",
"628 362 OFFCURVE",
"628 382 CURVE SMOOTH",
"628 384 OFFCURVE",
"626 386 OFFCURVE",
"624 386 CURVE",
"614 382 OFFCURVE",
"593 375 OFFCURVE",
"579 375 CURVE SMOOTH",
"562 375 OFFCURVE",
"547 386 OFFCURVE",
"547 404 CURVE SMOOTH",
"547 465 OFFCURVE",
"704 581 OFFCURVE",
"759 597 CURVE",
"759 563 OFFCURVE",
"653 366 OFFCURVE",
"632 331 CURVE SMOOTH",
"562 204 OFFCURVE",
"369 -29 OFFCURVE",
"194 -29 CURVE SMOOTH",
"134 -29 OFFCURVE",
"89 12 OFFCURVE",
"89 73 CURVE SMOOTH",
"89 144 OFFCURVE",
"145 209 OFFCURVE",
"145 225 CURVE SMOOTH",
"145 228 OFFCURVE",
"140 238 OFFCURVE",
"138 240 CURVE",
"215 248 OFFCURVE",
"360 250 OFFCURVE",
"429 232 CURVE SMOOTH",
"456 225 OFFCURVE",
"472 211 OFFCURVE",
"472 194 CURVE SMOOTH",
"471 179 OFFCURVE",
"437 159 OFFCURVE",
"430 155 CURVE SMOOTH",
"424 152 OFFCURVE",
"417 146 OFFCURVE",
"431 146 CURVE SMOOTH",
"451 148 OFFCURVE",
"488 162 OFFCURVE",
"491 182 CURVE SMOOTH",
"500 223 OFFCURVE",
"473 245 OFFCURVE",
"435 258 CURVE SMOOTH",
"377 277 OFFCURVE",
"294 282 OFFCURVE",
"228 282 CURVE SMOOTH",
"195 282 OFFCURVE",
"163 279 OFFCURVE",
"130 279 CURVE SMOOTH",
"110 279 OFFCURVE",
"64 259 OFFCURVE",
"53 242 CURVE SMOOTH",
"52 240 OFFCURVE",
"51 238 OFFCURVE",
"51 236 CURVE SMOOTH",
"51 222 OFFCURVE",
"90 226 OFFCURVE",
"95 213 CURVE",
"95 212 OFFCURVE",
"94 211 OFFCURVE",
"93 210 CURVE SMOOTH",
"64 172 OFFCURVE",
"45 118 OFFCURVE",
"45 71 CURVE SMOOTH",
"45 -13 OFFCURVE",
"97 -53 OFFCURVE",
"178 -53 CURVE SMOOTH"
);
}
);
width = 609;
}
);
note = I;
},
{
glyphname = J.ss01;
lastChange = "2021-08-24 18:22:36 +0000";
layers = (
{
hints = (
{
place = "{494, 56}";
type = Stem;
}
);
layerId = "5B3E1226-E0D0-4C23-AF14-DEF1E2C801D3";
paths = (
{
closed = 1;
nodes = (
"45 -374 OFFCURVE",
"259 -82 OFFCURVE",
"360 59 CURVE",
"380 63 OFFCURVE",
"396 66 OFFCURVE",
"414 66 CURVE SMOOTH",
"426 66 OFFCURVE",
"448 64 OFFCURVE",
"448 47 CURVE SMOOTH",
"448 8 OFFCURVE",
"375 -39 OFFCURVE",
"375 -51 CURVE SMOOTH",
"375 -53 OFFCURVE",
"377 -54 OFFCURVE",
"380 -54 CURVE SMOOTH",
"381 -54 OFFCURVE",
"384 -53 OFFCURVE",
"385 -54 CURVE",
"421 -40 OFFCURVE",
"487 14 OFFCURVE",
"487 61 CURVE SMOOTH",
"487 91 OFFCURVE",
"456 96 OFFCURVE",
"434 96 CURVE SMOOTH",
"419 96 OFFCURVE",
"404 94 OFFCURVE",
"386 92 CURVE",
"459 195 OFFCURVE",
"614 419 OFFCURVE",
"614 573 CURVE SMOOTH",
"614 676 OFFCURVE",
"434 593 OFFCURVE",
"373 560 CURVE SMOOTH",
"245 493 OFFCURVE",
"33 333 OFFCURVE",
"33 204 CURVE SMOOTH",
"33 136 OFFCURVE",
"68 120 OFFCURVE",
"111 116 CURVE SMOOTH",
"159 112 OFFCURVE",
"251 142 OFFCURVE",
"294 177 CURVE SMOOTH",
"296 179 OFFCURVE",
"331 208 OFFCURVE",
"314 208 CURVE SMOOTH",
"298 208 OFFCURVE",
"196 148 OFFCURVE",
"140 148 CURVE SMOOTH",
"107 148 OFFCURVE",
"71 150 OFFCURVE",
"71 180 CURVE SMOOTH",
"71 299 OFFCURVE",
"270 462 OFFCURVE",
"359 516 CURVE SMOOTH",
"415 552 OFFCURVE",
"466 583 OFFCURVE",
"521 583 CURVE SMOOTH",
"538 583 OFFCURVE",
"562 571 OFFCURVE",
"562 552 CURVE SMOOTH",
"562 407 OFFCURVE",
"409 192 OFFCURVE",
"330 82 CURVE",
"157 38 OFFCURVE",
"-106 -87 OFFCURVE",
"-214 -249 CURVE SMOOTH",
"-243 -294 OFFCURVE",
"-263 -374 OFFCURVE",
"-159 -374 CURVE SMOOTH"
);
},
{
closed = 1;
nodes = (
"-278 -339 OFFCURVE",
"-72 -144 OFFCURVE",
"60 -60 CURVE SMOOTH",
"137 -11 OFFCURVE",
"224 29 OFFCURVE",
"310 49 CURVE",
"208 -89 OFFCURVE",
"21 -339 OFFCURVE",
"-160 -339 CURVE SMOOTH"
);
}
);
width = 487;
}
);
note = J;
},
{
glyphname = K.ss01;
lastChange = "2021-08-24 18:22:36 +0000";
layers = (
{
hints = (
{
horizontal = 1;
place = "{661, -20}";
target = down;
type = TopGhost;
}
);
layerId = "5B3E1226-E0D0-4C23-AF14-DEF1E2C801D3";
paths = (
{
closed = 1;
nodes = (
"1018 -152 OFFCURVE",
"1044 -140 OFFCURVE",
"1068 -120 CURVE SMOOTH",
"1073 -115 OFFCURVE",
"1082 -107 OFFCURVE",
"1082 -99 CURVE SMOOTH",
"1082 -93 OFFCURVE",
"1079 -87 OFFCURVE",
"1075 -90 CURVE SMOOTH",
"1051 -106 OFFCURVE",
"1024 -125 OFFCURVE",
"994 -125 CURVE SMOOTH",
"863 -126 OFFCURVE",
"735 115 OFFCURVE",
"675 248 CURVE",
"788 357 OFFCURVE",
"1021 505 OFFCURVE",
"1109 558 CURVE SMOOTH",
"1167 593 OFFCURVE",
"1313 666 OFFCURVE",
"1370 650 CURVE SMOOTH",
"1408 639 OFFCURVE",
"1374 605 OFFCURVE",
"1359 596 CURVE SMOOTH",
"1275 547 OFFCURVE",
"1097 449 OFFCURVE",
"1124 379 CURVE",
"1127 365 OFFCURVE",
"1130 377 OFFCURVE",
"1130 384 CURVE",
"1183 497 OFFCURVE",
"1390 512 OFFCURVE",
"1412 612 CURVE SMOOTH",
"1418 642 OFFCURVE",
"1413 683 OFFCURVE",
"1378 694 CURVE SMOOTH",
"1203 745 OFFCURVE",
"846 401 OFFCURVE",
"670 274 CURVE",
"751 395 OFFCURVE",
"862 562 OFFCURVE",
"862 609 CURVE SMOOTH",
"862 658 OFFCURVE",
"803 664 OFFCURVE",
"766 664 CURVE SMOOTH",
"703 664 OFFCURVE",
"601 644 OFFCURVE",
"541 620 CURVE SMOOTH",
"458 587 OFFCURVE",
"345 518 OFFCURVE",
"288 448 CURVE SMOOTH",
"264 418 OFFCURVE",
"235 367 OFFCURVE",
"235 328 CURVE SMOOTH",
"235 289 OFFCURVE",
"266 282 OFFCURVE",
"299 282 CURVE SMOOTH",
"353 282 OFFCURVE",
"446 309 OFFCURVE",
"444 333 CURVE SMOOTH",
"444 336 OFFCURVE",
"440 337 OFFCURVE",
"438 337 CURVE SMOOTH",
"432 337 OFFCURVE",
"428 335 OFFCURVE",
"423 334 CURVE SMOOTH",
"395 326 OFFCURVE",
"360 316 OFFCURVE",
"331 316 CURVE SMOOTH",
"306 316 OFFCURVE",
"285 325 OFFCURVE",
"285 354 CURVE SMOOTH",
"285 434 OFFCURVE",
"461 552 OFFCURVE",
"526 584 CURVE SMOOTH",
"582 612 OFFCURVE",
"658 640 OFFCURVE",
"721 640 CURVE SMOOTH",
"749 640 OFFCURVE",
"796 632 OFFCURVE",
"796 596 CURVE SMOOTH",
"796 552 OFFCURVE",
"675 361 OFFCURVE",
"649 322 CURVE",
"636 339 OFFCURVE",
"573 378 OFFCURVE",
"573 337 CURVE SMOOTH",
"573 326 OFFCURVE",
"594 290 OFFCURVE",
"599 278 CURVE",
"597 273 OFFCURVE",
"599 267 OFFCURVE",
"600 262 CURVE",
"519 155 OFFCURVE",
"305 -107 OFFCURVE",
"154 -107 CURVE SMOOTH",
"103 -107 OFFCURVE",
"55 -80 OFFCURVE",
"55 -25 CURVE SMOOTH",
"55 2 OFFCURVE",
"64 30 OFFCURVE",
"77 53 CURVE SMOOTH",
"105 105 OFFCURVE",
"143 136 OFFCURVE",
"199 155 CURVE SMOOTH",
"207 158 OFFCURVE",
"248 168 OFFCURVE",
"248 180 CURVE SMOOTH",
"248 185 OFFCURVE",
"237 185 OFFCURVE",
"233 185 CURVE SMOOTH",
"217 185 OFFCURVE",
"201 181 OFFCURVE",
"186 177 CURVE SMOOTH",
"121 158 OFFCURVE",
"55 119 OFFCURVE",
"19 60 CURVE SMOOTH",
"6 39 OFFCURVE",
"0 13 OFFCURVE",
"0 -11 CURVE SMOOTH",
"0 -92 OFFCURVE",
"58 -136 OFFCURVE",
"136 -136 CURVE SMOOTH",
"327 -136 OFFCURVE",
"517 87 OFFCURVE",
"625 222 CURVE",
"692 99 OFFCURVE",
"812 -152 OFFCURVE",
"986 -152 CURVE SMOOTH"
);
}
);
width = 866;
}
);
note = K;
},
{
glyphname = L.ss01;
lastChange = "2021-08-24 18:22:36 +0000";
layers = (
{
hints = (
{
horizontal = 1;
place = "{-100, 23}";
type = Stem;
},
{
place = "{891, 26}";
type = Stem;
}
);
layerId = "5B3E1226-E0D0-4C23-AF14-DEF1E2C801D3";
paths = (
{
closed = 1;
nodes = (
"185 -103 OFFCURVE",
"300 -24 OFFCURVE",
"367 30 CURVE",
"444 2 OFFCURVE",
"627 -70 OFFCURVE",
"704 -70 CURVE SMOOTH",
"731 -70 OFFCURVE",
"767 -63 OFFCURVE",
"787 -44 CURVE SMOOTH",
"793 -38 OFFCURVE",
"803 -28 OFFCURVE",
"803 -19 CURVE SMOOTH",
"803 -13 OFFCURVE",
"799 -13 OFFCURVE",
"795 -13 CURVE SMOOTH",
"787 -13 OFFCURVE",
"760 -45 OFFCURVE",
"728 -45 CURVE SMOOTH",
"651 -45 OFFCURVE",
"483 32 OFFCURVE",
"406 63 CURVE",
"462 115 OFFCURVE",
"514 170 OFFCURVE",
"563 228 CURVE",
"581 223 OFFCURVE",
"599 221 OFFCURVE",
"618 221 CURVE SMOOTH",
"796 221 OFFCURVE",
"921 416 OFFCURVE",
"921 580 CURVE SMOOTH",
"921 587 OFFCURVE",
"921 620 OFFCURVE",
"909 620 CURVE SMOOTH",
"896 620 OFFCURVE",
"891 596 OFFCURVE",
"889 585 CURVE SMOOTH",
"886 569 OFFCURVE",
"884 549 OFFCURVE",
"880 533 CURVE SMOOTH",
"846 407 OFFCURVE",
"752 216 OFFCURVE",
"582 252 CURVE",
"669 361 OFFCURVE",
"731 483 OFFCURVE",
"807 592 CURVE SMOOTH",
"818 607 OFFCURVE",
"830 622 OFFCURVE",
"847 631 CURVE SMOOTH",
"853 634 OFFCURVE",
"864 637 OFFCURVE",
"867 644 CURVE",
"867 648 LINE SMOOTH",
"867 669 OFFCURVE",
"839 674 OFFCURVE",
"823 674 CURVE SMOOTH",
"807 674 OFFCURVE",
"783 663 OFFCURVE",
"774 648 CURVE SMOOTH",
"698 521 OFFCURVE",
"630 392 OFFCURVE",
"542 272 CURVE SMOOTH",
"537 266 LINE",
"466 301 OFFCURVE",
"447 351 OFFCURVE",
"447 427 CURVE SMOOTH",
"447 490 OFFCURVE",
"472 555 OFFCURVE",
"522 595 CURVE SMOOTH",
"531 603 OFFCURVE",
"572 629 OFFCURVE",
"572 600 CURVE SMOOTH",
"572 595 OFFCURVE",
"570 585 OFFCURVE",
"570 579 CURVE SMOOTH",
"570 574 OFFCURVE",
"570 568 OFFCURVE",
"576 570 CURVE SMOOTH",
"588 574 OFFCURVE",
"596 596 OFFCURVE",
"597 606 CURVE SMOOTH",
"601 638 OFFCURVE",
"580 662 OFFCURVE",
"552 662 CURVE SMOOTH",
"515 662 OFFCURVE",
"474 612 OFFCURVE",
"456 583 CURVE SMOOTH",
"430 540 OFFCURVE",
"417 490 OFFCURVE",
"417 440 CURVE SMOOTH",
"417 358 OFFCURVE",
"444 284 OFFCURVE",
"520 244 CURVE",
"476 184 OFFCURVE",
"435 124 OFFCURVE",
"380 74 CURVE",
"326 97 OFFCURVE",
"201 150 OFFCURVE",
"146 150 CURVE SMOOTH",
"105 150 OFFCURVE",
"74 130 OFFCURVE",
"74 87 CURVE",
"22 81 OFFCURVE",
"-41 34 OFFCURVE",
"-41 -23 CURVE SMOOTH",
"-41 -86 OFFCURVE",
"48 -103 OFFCURVE",
"96 -103 CURVE SMOOTH"
);
},
{
closed = 1;
nodes = (
"59 -73 OFFCURVE",
"10 -59 OFFCURVE",
"10 -18 CURVE SMOOTH",
"10 -11 OFFCURVE",
"12 -4 OFFCURVE",
"15 3 CURVE SMOOTH",
"32 40 OFFCURVE",
"44 47 OFFCURVE",
"82 56 CURVE",
"86 44 OFFCURVE",
"100 20 OFFCURVE",
"115 20 CURVE SMOOTH",
"120 20 OFFCURVE",
"123 21 OFFCURVE",
"123 26 CURVE SMOOTH",
"123 36 OFFCURVE",
"111 52 OFFCURVE",
"108 62 CURVE",
"120 67 OFFCURVE",
"131 67 OFFCURVE",
"143 67 CURVE",
"134 80 OFFCURVE",
"125 86 OFFCURVE",
"111 91 CURVE",
"118 98 OFFCURVE",
"117 107 OFFCURVE",
"147 107 CURVE SMOOTH",
"198 107 OFFCURVE",
"291 58 OFFCURVE",
"341 41 CURVE",
"283 -7 OFFCURVE",
"172 -73 OFFCURVE",
"93 -73 CURVE SMOOTH"
);
}
);
width = 719;
}
);
note = L;
},
{
glyphname = LJ.ss01;
lastChange = "2021-08-24 19:31:14 +0000";
layers = (
{
hints = (
{
horizontal = 1;
place = "{-100, 23}";
type = Stem;
},
{
place = "{891, 26}";
type = Stem;
},
{
place = "{1213, 56}";
type = Stem;
}
);
layerId = "5B3E1226-E0D0-4C23-AF14-DEF1E2C801D3";
paths = (
{
closed = 1;
nodes = (
"796 221 OFFCURVE",
"921 416 OFFCURVE",
"921 580 CURVE SMOOTH",
"921 587 OFFCURVE",
"921 620 OFFCURVE",
"909 620 CURVE SMOOTH",
"896 620 OFFCURVE",
"891 596 OFFCURVE",
"889 585 CURVE SMOOTH",
"886 569 OFFCURVE",
"884 549 OFFCURVE",
"880 533 CURVE SMOOTH",
"846 407 OFFCURVE",
"752 216 OFFCURVE",
"582 252 CURVE",
"669 361 OFFCURVE",
"731 483 OFFCURVE",
"807 592 CURVE SMOOTH",
"818 607 OFFCURVE",
"830 622 OFFCURVE",
"847 631 CURVE SMOOTH",
"853 634 OFFCURVE",
"864 637 OFFCURVE",
"867 644 CURVE",
"867 648 LINE SMOOTH",
"867 669 OFFCURVE",
"839 674 OFFCURVE",
"823 674 CURVE SMOOTH",
"807 674 OFFCURVE",
"783 663 OFFCURVE",
"774 648 CURVE SMOOTH",
"698 521 OFFCURVE",
"630 392 OFFCURVE",
"542 272 CURVE SMOOTH",
"537 266 LINE",
"466 301 OFFCURVE",
"447 351 OFFCURVE",
"447 427 CURVE SMOOTH",
"447 490 OFFCURVE",
"472 555 OFFCURVE",
"522 595 CURVE SMOOTH",
"531 603 OFFCURVE",
"572 629 OFFCURVE",
"572 600 CURVE SMOOTH",
"572 595 OFFCURVE",
"570 585 OFFCURVE",
"570 579 CURVE SMOOTH",
"570 574 OFFCURVE",
"570 568 OFFCURVE",
"576 570 CURVE SMOOTH",
"588 574 OFFCURVE",
"596 596 OFFCURVE",
"597 606 CURVE SMOOTH",
"601 638 OFFCURVE",
"580 662 OFFCURVE",
"552 662 CURVE SMOOTH",
"515 662 OFFCURVE",
"474 612 OFFCURVE",
"456 583 CURVE SMOOTH",
"430 540 OFFCURVE",
"417 490 OFFCURVE",
"417 440 CURVE SMOOTH",
"417 358 OFFCURVE",
"444 284 OFFCURVE",
"520 244 CURVE",
"476 184 OFFCURVE",
"435 124 OFFCURVE",
"380 74 CURVE",
"326 97 OFFCURVE",
"201 150 OFFCURVE",
"146 150 CURVE SMOOTH",
"105 150 OFFCURVE",
"74 130 OFFCURVE",
"74 87 CURVE",
"22 81 OFFCURVE",
"-41 34 OFFCURVE",
"-41 -23 CURVE SMOOTH",
"-41 -86 OFFCURVE",
"48 -103 OFFCURVE",
"96 -103 CURVE SMOOTH",
"185 -103 OFFCURVE",
"300 -24 OFFCURVE",
"367 30 CURVE",
"444 2 OFFCURVE",
"627 -70 OFFCURVE",
"704 -70 CURVE SMOOTH",
"731 -70 OFFCURVE",
"767 -63 OFFCURVE",
"787 -44 CURVE SMOOTH",
"793 -38 OFFCURVE",
"803 -28 OFFCURVE",
"803 -19 CURVE SMOOTH",
"803 -13 OFFCURVE",
"799 -13 OFFCURVE",
"795 -13 CURVE SMOOTH",
"787 -13 OFFCURVE",
"760 -45 OFFCURVE",
"728 -45 CURVE SMOOTH",
"651 -45 OFFCURVE",
"483 32 OFFCURVE",
"406 63 CURVE",
"462 115 OFFCURVE",
"514 170 OFFCURVE",
"563 228 CURVE",
"581 223 OFFCURVE",
"599 221 OFFCURVE",
"618 221 CURVE SMOOTH"
);
},
{
closed = 1;
nodes = (
"283 -7 OFFCURVE",
"172 -73 OFFCURVE",
"93 -73 CURVE SMOOTH",
"59 -73 OFFCURVE",
"10 -59 OFFCURVE",
"10 -18 CURVE SMOOTH",
"10 -11 OFFCURVE",
"12 -4 OFFCURVE",
"15 3 CURVE SMOOTH",
"32 40 OFFCURVE",
"44 47 OFFCURVE",
"82 56 CURVE",
"86 44 OFFCURVE",
"100 20 OFFCURVE",
"115 20 CURVE SMOOTH",
"120 20 OFFCURVE",
"123 21 OFFCURVE",
"123 26 CURVE SMOOTH",
"123 36 OFFCURVE",
"111 52 OFFCURVE",
"108 62 CURVE",
"120 67 OFFCURVE",
"131 67 OFFCURVE",
"143 67 CURVE",
"134 80 OFFCURVE",
"125 86 OFFCURVE",
"111 91 CURVE",
"118 98 OFFCURVE",
"117 107 OFFCURVE",
"147 107 CURVE SMOOTH",
"198 107 OFFCURVE",
"291 58 OFFCURVE",
"341 41 CURVE"
);
},
{
closed = 1;
nodes = (
"1333 676 OFFCURVE",
"1153 593 OFFCURVE",
"1092 560 CURVE SMOOTH",
"964 493 OFFCURVE",
"752 333 OFFCURVE",
"752 204 CURVE SMOOTH",
"752 136 OFFCURVE",
"787 120 OFFCURVE",
"830 116 CURVE SMOOTH",
"878 112 OFFCURVE",
"970 142 OFFCURVE",
"1013 177 CURVE SMOOTH",
"1015 179 OFFCURVE",
"1050 208 OFFCURVE",
"1033 208 CURVE SMOOTH",
"1017 208 OFFCURVE",
"915 148 OFFCURVE",
"859 148 CURVE SMOOTH",
"826 148 OFFCURVE",
"790 150 OFFCURVE",
"790 180 CURVE SMOOTH",
"790 299 OFFCURVE",
"989 462 OFFCURVE",
"1078 516 CURVE SMOOTH",
"1134 552 OFFCURVE",
"1185 583 OFFCURVE",
"1240 583 CURVE SMOOTH",
"1257 583 OFFCURVE",
"1281 571 OFFCURVE",
"1281 552 CURVE SMOOTH",
"1281 407 OFFCURVE",
"1128 192 OFFCURVE",
"1049 82 CURVE",
"876 38 OFFCURVE",
"613 -87 OFFCURVE",
"505 -249 CURVE SMOOTH",
"476 -294 OFFCURVE",
"456 -374 OFFCURVE",
"560 -374 CURVE SMOOTH",
"764 -374 OFFCURVE",
"978 -82 OFFCURVE",
"1079 59 CURVE",
"1099 63 OFFCURVE",
"1115 66 OFFCURVE",
"1133 66 CURVE SMOOTH",
"1145 66 OFFCURVE",
"1167 64 OFFCURVE",
"1167 47 CURVE SMOOTH",
"1167 8 OFFCURVE",
"1094 -39 OFFCURVE",
"1094 -51 CURVE SMOOTH",
"1094 -53 OFFCURVE",
"1096 -54 OFFCURVE",
"1099 -54 CURVE SMOOTH",
"1100 -54 OFFCURVE",
"1103 -53 OFFCURVE",
"1104 -54 CURVE",
"1140 -40 OFFCURVE",
"1206 14 OFFCURVE",
"1206 61 CURVE SMOOTH",
"1206 91 OFFCURVE",
"1175 96 OFFCURVE",
"1153 96 CURVE SMOOTH",
"1138 96 OFFCURVE",
"1123 94 OFFCURVE",
"1105 92 CURVE",
"1178 195 OFFCURVE",
"1333 419 OFFCURVE",
"1333 573 CURVE SMOOTH"
);
},
{
closed = 1;
nodes = (
"927 -89 OFFCURVE",
"740 -339 OFFCURVE",
"559 -339 CURVE SMOOTH",
"441 -339 OFFCURVE",
"647 -144 OFFCURVE",
"779 -60 CURVE SMOOTH",
"856 -11 OFFCURVE",
"943 29 OFFCURVE",
"1029 49 CURVE"
);
}
);
width = 1206;
}
);
},
{
glyphname = Lj.ss01;
lastChange = "2021-08-24 19:31:14 +0000";
layers = (
{
hints = (
{
horizontal = 1;
place = "{-100, 23}";
type = Stem;
},
{
place = "{891, 26}";
type = Stem;
},
{
horizontal = 1;
place = "{-530, 28}";
type = Stem;
},
{
horizontal = 1;
place = "{-26, 20}";
type = Stem;
},
{
horizontal = 1;
place = "{510, 63}";
type = Stem;
},
{
place = "{189, 839}";
type = Stem;
}
);
layerId = "5B3E1226-E0D0-4C23-AF14-DEF1E2C801D3";
paths = (
{
closed = 1;
nodes = (
"796 221 OFFCURVE",
"921 416 OFFCURVE",
"921 580 CURVE SMOOTH",
"921 587 OFFCURVE",
"921 620 OFFCURVE",
"909 620 CURVE SMOOTH",
"896 620 OFFCURVE",
"891 596 OFFCURVE",
"889 585 CURVE SMOOTH",
"886 569 OFFCURVE",
"884 549 OFFCURVE",
"880 533 CURVE SMOOTH",
"846 407 OFFCURVE",
"752 216 OFFCURVE",
"582 252 CURVE",
"669 361 OFFCURVE",
"731 483 OFFCURVE",
"807 592 CURVE SMOOTH",
"818 607 OFFCURVE",
"830 622 OFFCURVE",
"847 631 CURVE SMOOTH",
"853 634 OFFCURVE",
"864 637 OFFCURVE",
"867 644 CURVE",
"867 648 LINE SMOOTH",
"867 669 OFFCURVE",
"839 674 OFFCURVE",
"823 674 CURVE SMOOTH",
"807 674 OFFCURVE",
"783 663 OFFCURVE",
"774 648 CURVE SMOOTH",
"698 521 OFFCURVE",
"630 392 OFFCURVE",
"542 272 CURVE SMOOTH",
"537 266 LINE",
"466 301 OFFCURVE",
"447 351 OFFCURVE",
"447 427 CURVE SMOOTH",
"447 490 OFFCURVE",
"472 555 OFFCURVE",
"522 595 CURVE SMOOTH",
"531 603 OFFCURVE",
"572 629 OFFCURVE",
"572 600 CURVE SMOOTH",
"572 595 OFFCURVE",
"570 585 OFFCURVE",
"570 579 CURVE SMOOTH",
"570 574 OFFCURVE",
"570 568 OFFCURVE",
"576 570 CURVE SMOOTH",
"588 574 OFFCURVE",
"596 596 OFFCURVE",
"597 606 CURVE SMOOTH",
"601 638 OFFCURVE",
"580 662 OFFCURVE",
"552 662 CURVE SMOOTH",
"515 662 OFFCURVE",
"474 612 OFFCURVE",
"456 583 CURVE SMOOTH",
"430 540 OFFCURVE",
"417 490 OFFCURVE",
"417 440 CURVE SMOOTH",
"417 358 OFFCURVE",
"444 284 OFFCURVE",
"520 244 CURVE",
"476 184 OFFCURVE",
"435 124 OFFCURVE",
"380 74 CURVE",
"326 97 OFFCURVE",
"201 150 OFFCURVE",
"146 150 CURVE SMOOTH",
"105 150 OFFCURVE",
"74 130 OFFCURVE",
"74 87 CURVE",
"22 81 OFFCURVE",
"-41 34 OFFCURVE",
"-41 -23 CURVE SMOOTH",
"-41 -86 OFFCURVE",
"48 -103 OFFCURVE",
"96 -103 CURVE SMOOTH",
"185 -103 OFFCURVE",
"300 -24 OFFCURVE",
"367 30 CURVE",
"444 2 OFFCURVE",
"627 -70 OFFCURVE",
"704 -70 CURVE SMOOTH",
"731 -70 OFFCURVE",
"767 -63 OFFCURVE",
"787 -44 CURVE SMOOTH",
"793 -38 OFFCURVE",
"803 -28 OFFCURVE",
"803 -19 CURVE SMOOTH",
"803 -13 OFFCURVE",
"799 -13 OFFCURVE",
"795 -13 CURVE SMOOTH",
"787 -13 OFFCURVE",
"760 -45 OFFCURVE",
"728 -45 CURVE SMOOTH",
"651 -45 OFFCURVE",
"483 32 OFFCURVE",
"406 63 CURVE",
"462 115 OFFCURVE",
"514 170 OFFCURVE",
"563 228 CURVE",
"581 223 OFFCURVE",
"599 221 OFFCURVE",
"618 221 CURVE SMOOTH"
);
},
{
closed = 1;
nodes = (
"283 -7 OFFCURVE",
"172 -73 OFFCURVE",
"93 -73 CURVE SMOOTH",
"59 -73 OFFCURVE",
"10 -59 OFFCURVE",
"10 -18 CURVE SMOOTH",
"10 -11 OFFCURVE",
"12 -4 OFFCURVE",
"15 3 CURVE SMOOTH",
"32 40 OFFCURVE",
"44 47 OFFCURVE",
"82 56 CURVE",
"86 44 OFFCURVE",
"100 20 OFFCURVE",
"115 20 CURVE SMOOTH",
"120 20 OFFCURVE",
"123 21 OFFCURVE",
"123 26 CURVE SMOOTH",
"123 36 OFFCURVE",
"111 52 OFFCURVE",
"108 62 CURVE",
"120 67 OFFCURVE",
"131 67 OFFCURVE",
"143 67 CURVE",
"134 80 OFFCURVE",
"125 86 OFFCURVE",
"111 91 CURVE",
"118 98 OFFCURVE",
"117 107 OFFCURVE",
"147 107 CURVE SMOOTH",
"198 107 OFFCURVE",
"291 58 OFFCURVE",
"341 41 CURVE"
);
},
{
closed = 1;
nodes = (
"999 -18 OFFCURVE",
"983 2 OFFCURVE",
"906 -6 CURVE SMOOTH",
"879 -10 OFFCURVE",
"845 -20 OFFCURVE",
"823 -27 CURVE",
"852 49 OFFCURVE",
"902 189 OFFCURVE",
"923 259 CURVE SMOOTH",
"926 272 OFFCURVE",
"901 287 OFFCURVE",
"870 254 CURVE",
"847 197 OFFCURVE",
"804 49 OFFCURVE",
"769 -41 CURVE",
"437 -175 OFFCURVE",
"149 -421 OFFCURVE",
"194 -487 CURVE SMOOTH",
"226 -532 OFFCURVE",
"286 -543 OFFCURVE",
"366 -512 CURVE SMOOTH",
"570 -433 OFFCURVE",
"737 -239 OFFCURVE",
"819 -52 CURVE",
"847 -40 OFFCURVE",
"877 -29 OFFCURVE",
"912 -26 CURVE SMOOTH",
"947 -23 OFFCURVE",
"956 -40 OFFCURVE",
"952 -58 CURVE SMOOTH",
"948 -78 OFFCURVE",
"923 -109 OFFCURVE",
"894 -127 CURVE SMOOTH",
"879 -136 OFFCURVE",
"885 -137 OFFCURVE",
"897 -133 CURVE SMOOTH",
"919 -125 OFFCURVE",
"974 -91 OFFCURVE",
"990 -44 CURVE SMOOTH"
);
},
{
closed = 1;
nodes = (
"712 -199 OFFCURVE",
"628 -310 OFFCURVE",
"515 -392 CURVE SMOOTH",
"471 -424 OFFCURVE",
"404 -461 OFFCURVE",
"345 -483 CURVE SMOOTH",
"284 -506 OFFCURVE",
"240 -509 OFFCURVE",
"232 -486 CURVE SMOOTH",
"205 -392 OFFCURVE",
"598 -120 OFFCURVE",
"760 -69 CURVE"
);
},
{
closed = 1;
nodes = (
"1016 577 OFFCURVE",
"1005 578 OFFCURVE",
"985 573 CURVE SMOOTH",
"932 560 OFFCURVE",
"917 510 OFFCURVE",
"957 510 CURVE SMOOTH",
"964 510 OFFCURVE",
"972 511 OFFCURVE",
"979 513 CURVE SMOOTH",
"1006 520 OFFCURVE",
"1022 555 OFFCURVE",
"1028 581 CURVE"
);
}
);
width = 938;
}
);
},
{
glyphname = M.ss01;
lastChange = "2021-08-24 18:22:36 +0000";
layers = (
{
hints = (
{
horizontal = 1;
place = "{630, -20}";
target = down;
type = TopGhost;
}
);
layerId = "5B3E1226-E0D0-4C23-AF14-DEF1E2C801D3";
paths = (
{
closed = 1;
nodes = (
"931 -110 OFFCURVE",
"949 -68 OFFCURVE",
"933 -76 CURVE SMOOTH",
"910 -88 OFFCURVE",
"892 -86 OFFCURVE",
"882 -81 CURVE",
"835 -32 OFFCURVE",
"1017 214 OFFCURVE",
"1071 284 CURVE SMOOTH",
"1116 344 OFFCURVE",
"1207 472 OFFCURVE",
"1207 550 CURVE SMOOTH",
"1207 588 OFFCURVE",
"1185 607 OFFCURVE",
"1148 607 CURVE SMOOTH",
"1019 607 OFFCURVE",
"834 374 OFFCURVE",
"763 275 CURVE",
"792 335 OFFCURVE",
"838 443 OFFCURVE",
"838 509 CURVE SMOOTH",
"838 550 OFFCURVE",
"822 577 OFFCURVE",
"780 577 CURVE SMOOTH",
"700 577 OFFCURVE",
"592 459 OFFCURVE",
"503 348 CURVE",
"589 479 OFFCURVE",
"653 633 OFFCURVE",
"491 633 CURVE SMOOTH",
"347 633 OFFCURVE",
"158 542 OFFCURVE",
"72 427 CURVE SMOOTH",
"48 394 OFFCURVE",
"19 342 OFFCURVE",
"19 300 CURVE SMOOTH",
"19 255 OFFCURVE",
"59 239 OFFCURVE",
"99 239 CURVE SMOOTH",
"120 239 OFFCURVE",
"139 244 OFFCURVE",
"157 254 CURVE SMOOTH",
"197 274 OFFCURVE",
"150 266 OFFCURVE",
"134 266 CURVE SMOOTH",
"99 266 OFFCURVE",
"70 284 OFFCURVE",
"70 322 CURVE SMOOTH",
"70 411 OFFCURVE",
"198 505 OFFCURVE",
"272 548 CURVE SMOOTH",
"344 590 OFFCURVE",
"414 612 OFFCURVE",
"475 612 CURVE SMOOTH",
"654 612 OFFCURVE",
"387 257 OFFCURVE",
"353 206 CURVE SMOOTH",
"328 169 OFFCURVE",
"211 17 OFFCURVE",
"211 -18 CURVE SMOOTH",
"211 -37 OFFCURVE",
"217 -47 OFFCURVE",
"231 -46 CURVE SMOOTH",
"249 -45 OFFCURVE",
"277 -48 OFFCURVE",
"277 -18 CURVE",
"300 36 OFFCURVE",
"375 166 OFFCURVE",
"512 327 CURVE SMOOTH",
"600 430 OFFCURVE",
"705 511 OFFCURVE",
"758 538 CURVE SMOOTH",
"782 550 OFFCURVE",
"795 540 OFFCURVE",
"795 515 CURVE SMOOTH",
"795 482 OFFCURVE",
"773 423 OFFCURVE",
"760 392 CURVE SMOOTH",
"726 309 OFFCURVE",
"678 222 OFFCURVE",
"637 149 CURVE SMOOTH",
"614 111 LINE",
"612 109 OFFCURVE",
"611 105 OFFCURVE",
"611 102 CURVE SMOOTH",
"611 86 OFFCURVE",
"625 80 OFFCURVE",
"637 80 CURVE SMOOTH",
"651 80 OFFCURVE",
"666 84 OFFCURVE",
"675 96 CURVE SMOOTH",
"696 122 OFFCURVE",
"714 152 OFFCURVE",
"734 179 CURVE SMOOTH",
"802 275 OFFCURVE",
"980 523 OFFCURVE",
"1088 561 CURVE SMOOTH",
"1098 565 OFFCURVE",
"1111 568 OFFCURVE",
"1122 568 CURVE SMOOTH",
"1141 568 OFFCURVE",
"1149 558 OFFCURVE",
"1149 539 CURVE SMOOTH",
"1149 509 OFFCURVE",
"1129 463 OFFCURVE",
"1103 417 CURVE SMOOTH",
"1034 293 OFFCURVE",
"941 196 OFFCURVE",
"876 80 CURVE SMOOTH",
"804 -49 OFFCURVE",
"831 -110 OFFCURVE",
"892 -110 CURVE SMOOTH"
);
}
);
width = 990;
}
);
note = M;
},
{
glyphname = N.ss01;
lastChange = "2021-08-24 18:22:36 +0000";
layers = (
{
hints = (
{
horizontal = 1;
place = "{-110, 25}";
type = Stem;
},
{
horizontal = 1;
place = "{321, 27}";
type = Stem;
},
{
horizontal = 1;
place = "{560, 40}";
type = Stem;
},
{
horizontal = 1;
place = "{687, 26}";
type = Stem;
},
{
place = "{9, 46}";
type = Stem;
},
{
place = "{244, 73}";
type = Stem;
},
{
place = "{519, 52}";
type = Stem;
},
{
place = "{633, 41}";
type = Stem;
},
{
place = "{950, 55}";
type = Stem;
}
);
layerId = "5B3E1226-E0D0-4C23-AF14-DEF1E2C801D3";
paths = (
{
closed = 1;
nodes = (
"731 -110 OFFCURVE",
"749 -68 OFFCURVE",
"733 -76 CURVE SMOOTH",
"710 -88 OFFCURVE",
"692 -86 OFFCURVE",
"682 -81 CURVE",
"635 -32 OFFCURVE",
"818 213 OFFCURVE",
"871 284 CURVE SMOOTH",
"937 372 OFFCURVE",
"1005 471 OFFCURVE",
"1005 543 CURVE SMOOTH",
"1005 581 OFFCURVE",
"983 600 OFFCURVE",
"946 600 CURVE SMOOTH",
"805 600 OFFCURVE",
"551 332 OFFCURVE",
"462 225 CURVE SMOOTH",
"433 190 OFFCURVE",
"400 159 OFFCURVE",
"369 127 CURVE",
"452 258 OFFCURVE",
"571 493 OFFCURVE",
"571 615 CURVE SMOOTH",
"571 685 OFFCURVE",
"525 713 OFFCURVE",
"460 713 CURVE SMOOTH",
"323 713 OFFCURVE",
"142 616 OFFCURVE",
"61 507 CURVE SMOOTH",
"37 475 OFFCURVE",
"9 425 OFFCURVE",
"9 383 CURVE SMOOTH",
"9 338 OFFCURVE",
"48 321 OFFCURVE",
"88 321 CURVE SMOOTH",
"103 321 OFFCURVE",
"143 327 OFFCURVE",
"151 340 CURVE",
"152 349 OFFCURVE",
"125 348 OFFCURVE",
"120 348 CURVE SMOOTH",
"86 350 OFFCURVE",
"55 352 OFFCURVE",
"55 395 CURVE SMOOTH",
"55 480 OFFCURVE",
"210 597 OFFCURVE",
"278 635 CURVE SMOOTH",
"324 661 OFFCURVE",
"383 687 OFFCURVE",
"437 687 CURVE SMOOTH",
"487 687 OFFCURVE",
"519 665 OFFCURVE",
"519 617 CURVE SMOOTH",
"519 574 OFFCURVE",
"516 524 OFFCURVE",
"488 456 CURVE SMOOTH",
"435 329 OFFCURVE",
"371 210 OFFCURVE",
"298 90 CURVE SMOOTH",
"269 42 OFFCURVE",
"244 -4 OFFCURVE",
"244 -20 CURVE SMOOTH",
"244 -36 OFFCURVE",
"273 -40 OFFCURVE",
"285 -40 CURVE SMOOTH",
"302 -40 OFFCURVE",
"317 -36 OFFCURVE",
"317 -17 CURVE SMOOTH",
"317 -12 OFFCURVE",
"315 -8 OFFCURVE",
"315 -4 CURVE SMOOTH",
"315 -3 OFFCURVE",
"315 -1 OFFCURVE",
"316 0 CURVE SMOOTH",
"403 131 OFFCURVE",
"747 502 OFFCURVE",
"888 553 CURVE SMOOTH",
"899 557 OFFCURVE",
"911 560 OFFCURVE",
"923 560 CURVE SMOOTH",
"941 560 OFFCURVE",
"950 550 OFFCURVE",
"950 532 CURVE SMOOTH",
"950 502 OFFCURVE",
"930 459 OFFCURVE",
"905 416 CURVE SMOOTH",
"834 293 OFFCURVE",
"741 196 OFFCURVE",
"676 80 CURVE SMOOTH",
"604 -49 OFFCURVE",
"631 -110 OFFCURVE",
"692 -110 CURVE SMOOTH"
);
}
);
width = 819;
}
);
note = N;
},
{
glyphname = NJ.ss01;
lastChange = "2021-08-24 19:31:14 +0000";
layers = (
{
hints = (
{
horizontal = 1;
place = "{-110, 25}";
type = Stem;
},
{
horizontal = 1;
place = "{321, 27}";
type = Stem;
},
{
horizontal = 1;
place = "{560, 40}";
type = Stem;
},
{
horizontal = 1;
place = "{687, 26}";
type = Stem;
},
{
place = "{9, 46}";
type = Stem;
},
{
place = "{244, 73}";
type = Stem;
},
{
place = "{519, 52}";
type = Stem;
},
{
place = "{633, 41}";
type = Stem;
},
{
place = "{950, 55}";
type = Stem;
},
{
place = "{1313, 56}";
type = Stem;
}
);
layerId = "5B3E1226-E0D0-4C23-AF14-DEF1E2C801D3";
paths = (
{
closed = 1;
nodes = (
"834 293 OFFCURVE",
"741 196 OFFCURVE",
"676 80 CURVE SMOOTH",
"604 -49 OFFCURVE",
"631 -110 OFFCURVE",
"692 -110 CURVE SMOOTH",
"731 -110 OFFCURVE",
"749 -68 OFFCURVE",
"733 -76 CURVE SMOOTH",
"710 -88 OFFCURVE",
"692 -86 OFFCURVE",
"682 -81 CURVE",
"635 -32 OFFCURVE",
"818 213 OFFCURVE",
"871 284 CURVE SMOOTH",
"937 372 OFFCURVE",
"1005 471 OFFCURVE",
"1005 543 CURVE SMOOTH",
"1005 581 OFFCURVE",
"983 600 OFFCURVE",
"946 600 CURVE SMOOTH",
"805 600 OFFCURVE",
"551 332 OFFCURVE",
"462 225 CURVE SMOOTH",
"433 190 OFFCURVE",
"400 159 OFFCURVE",
"369 127 CURVE",
"452 258 OFFCURVE",
"571 493 OFFCURVE",
"571 615 CURVE SMOOTH",
"571 685 OFFCURVE",
"525 713 OFFCURVE",
"460 713 CURVE SMOOTH",
"323 713 OFFCURVE",
"142 616 OFFCURVE",
"61 507 CURVE SMOOTH",
"37 475 OFFCURVE",
"9 425 OFFCURVE",
"9 383 CURVE SMOOTH",
"9 338 OFFCURVE",
"48 321 OFFCURVE",
"88 321 CURVE SMOOTH",
"103 321 OFFCURVE",
"143 327 OFFCURVE",
"151 340 CURVE",
"152 349 OFFCURVE",
"125 348 OFFCURVE",
"120 348 CURVE SMOOTH",
"86 350 OFFCURVE",
"55 352 OFFCURVE",
"55 395 CURVE SMOOTH",
"55 480 OFFCURVE",
"210 597 OFFCURVE",
"278 635 CURVE SMOOTH",
"324 661 OFFCURVE",
"383 687 OFFCURVE",
"437 687 CURVE SMOOTH",
"487 687 OFFCURVE",
"519 665 OFFCURVE",
"519 617 CURVE SMOOTH",
"519 574 OFFCURVE",
"516 524 OFFCURVE",
"488 456 CURVE SMOOTH",
"435 329 OFFCURVE",
"371 210 OFFCURVE",
"298 90 CURVE SMOOTH",
"269 42 OFFCURVE",
"244 -4 OFFCURVE",
"244 -20 CURVE SMOOTH",
"244 -36 OFFCURVE",
"273 -40 OFFCURVE",
"285 -40 CURVE SMOOTH",
"302 -40 OFFCURVE",
"317 -36 OFFCURVE",
"317 -17 CURVE SMOOTH",
"317 -12 OFFCURVE",
"315 -8 OFFCURVE",
"315 -4 CURVE SMOOTH",
"315 -3 OFFCURVE",
"315 -1 OFFCURVE",
"316 0 CURVE SMOOTH",
"403 131 OFFCURVE",
"747 502 OFFCURVE",
"888 553 CURVE SMOOTH",
"899 557 OFFCURVE",
"911 560 OFFCURVE",
"923 560 CURVE SMOOTH",
"941 560 OFFCURVE",
"950 550 OFFCURVE",
"950 532 CURVE SMOOTH",
"950 502 OFFCURVE",
"930 459 OFFCURVE",
"905 416 CURVE SMOOTH"
);
},
{
closed = 1;
nodes = (
"1433 676 OFFCURVE",
"1253 593 OFFCURVE",
"1192 560 CURVE SMOOTH",
"1064 493 OFFCURVE",
"852 333 OFFCURVE",
"852 204 CURVE SMOOTH",
"852 136 OFFCURVE",
"887 120 OFFCURVE",
"930 116 CURVE SMOOTH",
"978 112 OFFCURVE",
"1070 142 OFFCURVE",
"1113 177 CURVE SMOOTH",
"1115 179 OFFCURVE",
"1150 208 OFFCURVE",
"1133 208 CURVE SMOOTH",
"1117 208 OFFCURVE",
"1015 148 OFFCURVE",
"959 148 CURVE SMOOTH",
"926 148 OFFCURVE",
"890 150 OFFCURVE",
"890 180 CURVE SMOOTH",
"890 299 OFFCURVE",
"1089 462 OFFCURVE",
"1178 516 CURVE SMOOTH",
"1234 552 OFFCURVE",
"1285 583 OFFCURVE",
"1340 583 CURVE SMOOTH",
"1357 583 OFFCURVE",
"1381 571 OFFCURVE",
"1381 552 CURVE SMOOTH",
"1381 407 OFFCURVE",
"1228 192 OFFCURVE",
"1149 82 CURVE",
"976 38 OFFCURVE",
"713 -87 OFFCURVE",
"605 -249 CURVE SMOOTH",
"576 -294 OFFCURVE",
"556 -374 OFFCURVE",
"660 -374 CURVE SMOOTH",
"864 -374 OFFCURVE",
"1078 -82 OFFCURVE",
"1179 59 CURVE",
"1199 63 OFFCURVE",
"1215 66 OFFCURVE",
"1233 66 CURVE SMOOTH",
"1245 66 OFFCURVE",
"1267 64 OFFCURVE",
"1267 47 CURVE SMOOTH",
"1267 8 OFFCURVE",
"1194 -39 OFFCURVE",
"1194 -51 CURVE SMOOTH",
"1194 -53 OFFCURVE",
"1196 -54 OFFCURVE",
"1199 -54 CURVE SMOOTH",
"1200 -54 OFFCURVE",
"1203 -53 OFFCURVE",
"1204 -54 CURVE",
"1240 -40 OFFCURVE",
"1306 14 OFFCURVE",
"1306 61 CURVE SMOOTH",
"1306 91 OFFCURVE",
"1275 96 OFFCURVE",
"1253 96 CURVE SMOOTH",
"1238 96 OFFCURVE",
"1223 94 OFFCURVE",
"1205 92 CURVE",
"1278 195 OFFCURVE",
"1433 419 OFFCURVE",
"1433 573 CURVE SMOOTH"
);
},
{
closed = 1;
nodes = (
"1027 -89 OFFCURVE",
"840 -339 OFFCURVE",
"659 -339 CURVE SMOOTH",
"541 -339 OFFCURVE",
"747 -144 OFFCURVE",
"879 -60 CURVE SMOOTH",
"956 -11 OFFCURVE",
"1043 29 OFFCURVE",
"1129 49 CURVE"
);
}
);
width = 1306;
}
);
},
{
glyphname = Nj.ss01;
lastChange = "2021-08-24 19:31:14 +0000";
layers = (
{
hints = (
{
horizontal = 1;
place = "{-110, 25}";
type = Stem;
},
{
horizontal = 1;
place = "{321, 27}";
type = Stem;
},
{
horizontal = 1;
place = "{560, 40}";
type = Stem;
},
{
horizontal = 1;
place = "{687, 26}";
type = Stem;
},
{
place = "{9, 46}";
type = Stem;
},
{
place = "{244, 73}";
type = Stem;
},
{
place = "{519, 52}";
type = Stem;
},
{
place = "{633, 41}";
type = Stem;
},
{
place = "{950, 55}";
type = Stem;
},
{
horizontal = 1;
place = "{-530, 28}";
type = Stem;
},
{
horizontal = 1;
place = "{-26, 20}";
type = Stem;
},
{
horizontal = 1;
place = "{510, 63}";
type = Stem;
},
{
place = "{289, 839}";
type = Stem;
}
);
layerId = "5B3E1226-E0D0-4C23-AF14-DEF1E2C801D3";
paths = (
{
closed = 1;
nodes = (
"834 293 OFFCURVE",
"741 196 OFFCURVE",
"676 80 CURVE SMOOTH",
"604 -49 OFFCURVE",
"631 -110 OFFCURVE",
"692 -110 CURVE SMOOTH",
"731 -110 OFFCURVE",
"749 -68 OFFCURVE",
"733 -76 CURVE SMOOTH",
"710 -88 OFFCURVE",
"692 -86 OFFCURVE",
"682 -81 CURVE",
"635 -32 OFFCURVE",
"818 213 OFFCURVE",
"871 284 CURVE SMOOTH",
"937 372 OFFCURVE",
"1005 471 OFFCURVE",
"1005 543 CURVE SMOOTH",
"1005 581 OFFCURVE",
"983 600 OFFCURVE",
"946 600 CURVE SMOOTH",
"805 600 OFFCURVE",
"551 332 OFFCURVE",
"462 225 CURVE SMOOTH",
"433 190 OFFCURVE",
"400 159 OFFCURVE",
"369 127 CURVE",
"452 258 OFFCURVE",
"571 493 OFFCURVE",
"571 615 CURVE SMOOTH",
"571 685 OFFCURVE",
"525 713 OFFCURVE",
"460 713 CURVE SMOOTH",
"323 713 OFFCURVE",
"142 616 OFFCURVE",
"61 507 CURVE SMOOTH",
"37 475 OFFCURVE",
"9 425 OFFCURVE",
"9 383 CURVE SMOOTH",
"9 338 OFFCURVE",
"48 321 OFFCURVE",
"88 321 CURVE SMOOTH",
"103 321 OFFCURVE",
"143 327 OFFCURVE",
"151 340 CURVE",
"152 349 OFFCURVE",
"125 348 OFFCURVE",
"120 348 CURVE SMOOTH",
"86 350 OFFCURVE",
"55 352 OFFCURVE",
"55 395 CURVE SMOOTH",
"55 480 OFFCURVE",
"210 597 OFFCURVE",
"278 635 CURVE SMOOTH",
"324 661 OFFCURVE",
"383 687 OFFCURVE",
"437 687 CURVE SMOOTH",
"487 687 OFFCURVE",
"519 665 OFFCURVE",
"519 617 CURVE SMOOTH",
"519 574 OFFCURVE",
"516 524 OFFCURVE",
"488 456 CURVE SMOOTH",
"435 329 OFFCURVE",
"371 210 OFFCURVE",
"298 90 CURVE SMOOTH",
"269 42 OFFCURVE",
"244 -4 OFFCURVE",
"244 -20 CURVE SMOOTH",
"244 -36 OFFCURVE",
"273 -40 OFFCURVE",
"285 -40 CURVE SMOOTH",
"302 -40 OFFCURVE",
"317 -36 OFFCURVE",
"317 -17 CURVE SMOOTH",
"317 -12 OFFCURVE",
"315 -8 OFFCURVE",
"315 -4 CURVE SMOOTH",
"315 -3 OFFCURVE",
"315 -1 OFFCURVE",
"316 0 CURVE SMOOTH",
"403 131 OFFCURVE",
"747 502 OFFCURVE",
"888 553 CURVE SMOOTH",
"899 557 OFFCURVE",
"911 560 OFFCURVE",
"923 560 CURVE SMOOTH",
"941 560 OFFCURVE",
"950 550 OFFCURVE",
"950 532 CURVE SMOOTH",
"950 502 OFFCURVE",
"930 459 OFFCURVE",
"905 416 CURVE SMOOTH"
);
},
{
closed = 1;
nodes = (
"1099 -18 OFFCURVE",
"1083 2 OFFCURVE",
"1006 -6 CURVE SMOOTH",
"979 -10 OFFCURVE",
"945 -20 OFFCURVE",
"923 -27 CURVE",
"952 49 OFFCURVE",
"1002 189 OFFCURVE",
"1023 259 CURVE SMOOTH",
"1026 272 OFFCURVE",
"1001 287 OFFCURVE",
"970 254 CURVE",
"947 197 OFFCURVE",
"904 49 OFFCURVE",
"869 -41 CURVE",
"537 -175 OFFCURVE",
"249 -421 OFFCURVE",
"294 -487 CURVE SMOOTH",
"326 -532 OFFCURVE",
"386 -543 OFFCURVE",
"466 -512 CURVE SMOOTH",
"670 -433 OFFCURVE",
"837 -239 OFFCURVE",
"919 -52 CURVE",
"947 -40 OFFCURVE",
"977 -29 OFFCURVE",
"1012 -26 CURVE SMOOTH",
"1047 -23 OFFCURVE",
"1056 -40 OFFCURVE",
"1052 -58 CURVE SMOOTH",
"1048 -78 OFFCURVE",
"1023 -109 OFFCURVE",
"994 -127 CURVE SMOOTH",
"979 -136 OFFCURVE",
"985 -137 OFFCURVE",
"997 -133 CURVE SMOOTH",
"1019 -125 OFFCURVE",
"1074 -91 OFFCURVE",
"1090 -44 CURVE SMOOTH"
);
},
{
closed = 1;
nodes = (
"812 -199 OFFCURVE",
"728 -310 OFFCURVE",
"615 -392 CURVE SMOOTH",
"571 -424 OFFCURVE",
"504 -461 OFFCURVE",
"445 -483 CURVE SMOOTH",
"384 -506 OFFCURVE",
"340 -509 OFFCURVE",
"332 -486 CURVE SMOOTH",
"305 -392 OFFCURVE",
"698 -120 OFFCURVE",
"860 -69 CURVE"
);
},
{
closed = 1;
nodes = (
"1116 577 OFFCURVE",
"1105 578 OFFCURVE",
"1085 573 CURVE SMOOTH",
"1032 560 OFFCURVE",
"1017 510 OFFCURVE",
"1057 510 CURVE SMOOTH",
"1064 510 OFFCURVE",
"1072 511 OFFCURVE",
"1079 513 CURVE SMOOTH",
"1106 520 OFFCURVE",
"1122 555 OFFCURVE",
"1128 581 CURVE"
);
}
);
width = 1038;
}
);
},
{
glyphname = O.ss01;
lastChange = "2021-08-24 18:22:36 +0000";
layers = (
{
hints = (
{
horizontal = 1;
place = "{603, -20}";
target = down;
type = TopGhost;
}
);
layerId = "5B3E1226-E0D0-4C23-AF14-DEF1E2C801D3";
paths = (
{
closed = 1;
nodes = (
"474 -70 OFFCURVE",
"665 44 OFFCURVE",
"771 159 CURVE SMOOTH",
"831 224 OFFCURVE",
"895 320 OFFCURVE",
"895 412 CURVE SMOOTH",
"895 467 OFFCURVE",
"871 513 OFFCURVE",
"824 541 CURVE",
"827 553 OFFCURVE",
"828 566 OFFCURVE",
"828 578 CURVE SMOOTH",
"828 644 OFFCURVE",
"774 666 OFFCURVE",
"717 666 CURVE SMOOTH",
"632 666 OFFCURVE",
"540 625 OFFCURVE",
"459 572 CURVE",
"439 576 OFFCURVE",
"419 578 OFFCURVE",
"400 578 CURVE SMOOTH",
"245 578 OFFCURVE",
"67 507 OFFCURVE",
"67 327 CURVE SMOOTH",
"67 268 OFFCURVE",
"102 229 OFFCURVE",
"157 211 CURVE",
"146 178 OFFCURVE",
"139 143 OFFCURVE",
"139 107 CURVE SMOOTH",
"139 -1 OFFCURVE",
"204 -70 OFFCURVE",
"313 -70 CURVE SMOOTH"
);
},
{
closed = 1;
nodes = (
"129 257 OFFCURVE",
"100 284 OFFCURVE",
"100 329 CURVE SMOOTH",
"100 483 OFFCURVE",
"266 558 OFFCURVE",
"400 558 CURVE SMOOTH",
"412 558 OFFCURVE",
"424 557 OFFCURVE",
"436 555 CURVE",
"392 524 OFFCURVE",
"353 490 OFFCURVE",
"322 458 CURVE SMOOTH",
"281 416 OFFCURVE",
"245 370 OFFCURVE",
"213 321 CURVE SMOOTH",
"196 296 OFFCURVE",
"181 269 OFFCURVE",
"169 241 CURVE"
);
},
{
closed = 1;
nodes = (
"231 -38 OFFCURVE",
"179 10 OFFCURVE",
"179 96 CURVE SMOOTH",
"179 131 OFFCURVE",
"187 165 OFFCURVE",
"199 198 CURVE",
"283 189 OFFCURVE",
"382 206 OFFCURVE",
"462 231 CURVE SMOOTH",
"597 274 OFFCURVE",
"758 375 OFFCURVE",
"813 512 CURVE",
"843 494 OFFCURVE",
"858 463 OFFCURVE",
"858 428 CURVE SMOOTH",
"858 341 OFFCURVE",
"772 234 OFFCURVE",
"718 172 CURVE SMOOTH",
"631 74 OFFCURVE",
"450 -38 OFFCURVE",
"317 -38 CURVE SMOOTH"
);
},
{
closed = 1;
nodes = (
"265 352 OFFCURVE",
"366 469 OFFCURVE",
"480 546 CURVE",
"507 539 OFFCURVE",
"532 529 OFFCURVE",
"551 518 CURVE SMOOTH",
"563 512 OFFCURVE",
"572 529 OFFCURVE",
"561 536 CURVE SMOOTH",
"544 545 OFFCURVE",
"524 553 OFFCURVE",
"502 560 CURVE",
"525 575 OFFCURVE",
"548 587 OFFCURVE",
"572 598 CURVE SMOOTH",
"611 616 OFFCURVE",
"660 631 OFFCURVE",
"704 631 CURVE SMOOTH",
"742 631 OFFCURVE",
"773 622 OFFCURVE",
"773 579 CURVE SMOOTH",
"773 573 OFFCURVE",
"772 568 OFFCURVE",
"772 563 CURVE",
"761 566 OFFCURVE",
"750 568 OFFCURVE",
"739 568 CURVE SMOOTH",
"732 568 OFFCURVE",
"716 567 OFFCURVE",
"716 556 CURVE SMOOTH",
"716 541 OFFCURVE",
"754 531 OFFCURVE",
"765 529 CURVE",
"722 406 OFFCURVE",
"542 303 OFFCURVE",
"425 262 CURVE SMOOTH",
"362 240 OFFCURVE",
"282 219 OFFCURVE",
"215 231 CURVE"
);
}
);
width = 759;
}
);
note = O;
},
{
glyphname = Oslash.ss01;
lastChange = "2021-08-24 18:22:36 +0000";
layers = (
{
hints = (
{
horizontal = 1;
place = "{-25, 33}";
type = Stem;
},
{
horizontal = 1;
place = "{560, 31}";
type = Stem;
},
{
place = "{59, 35}";
type = Stem;
},
{
place = "{715, 46}";
type = Stem;
}
);
layerId = "5B3E1226-E0D0-4C23-AF14-DEF1E2C801D3";
paths = (
{
closed = 1;
nodes = (
"132 -7 LINE",
"155 -19 OFFCURVE",
"184 -25 OFFCURVE",
"219 -25 CURVE SMOOTH",
"410 -25 OFFCURVE",
"761 161 OFFCURVE",
"761 377 CURVE SMOOTH",
"761 464 OFFCURVE",
"717 521 OFFCURVE",
"654 554 CURVE",
"724 629 LINE SMOOTH",
"755 661 OFFCURVE",
"673 662 OFFCURVE",
"654 639 CURVE SMOOTH",
"596 577 LINE",
"562 587 OFFCURVE",
"527 591 OFFCURVE",
"491 591 CURVE SMOOTH",
"355 591 OFFCURVE",
"187 527 OFFCURVE",
"104 416 CURVE SMOOTH",
"90 398 OFFCURVE",
"100 384 OFFCURVE",
"120 402 CURVE SMOOTH",
"172 449 OFFCURVE",
"233 488 OFFCURVE",
"299 511 CURVE",
"194 421 OFFCURVE",
"59 284 OFFCURVE",
"59 136 CURVE SMOOTH",
"59 80 OFFCURVE",
"74 38 OFFCURVE",
"104 11 CURVE",
"4 -96 LINE SMOOTH",
"-15 -116 OFFCURVE",
"36 -111 OFFCURVE",
"48 -98 CURVE SMOOTH"
);
},
{
closed = 1;
nodes = (
"104 55 OFFCURVE",
"94 85 OFFCURVE",
"94 126 CURVE SMOOTH",
"94 264 OFFCURVE",
"288 447 OFFCURVE",
"412 486 CURVE SMOOTH",
"418 488 OFFCURVE",
"423 492 OFFCURVE",
"423 499 CURVE SMOOTH",
"423 523 OFFCURVE",
"386 535 OFFCURVE",
"368 538 CURVE",
"414 553 OFFCURVE",
"462 560 OFFCURVE",
"510 560 CURVE SMOOTH",
"531 560 OFFCURVE",
"553 558 OFFCURVE",
"575 554 CURVE",
"425 390 OFFCURVE",
"287 215 OFFCURVE",
"126 35 CURVE"
);
},
{
closed = 1;
nodes = (
"189 8 OFFCURVE",
"170 11 OFFCURVE",
"155 17 CURVE",
"637 536 LINE",
"681 515 OFFCURVE",
"714 479 OFFCURVE",
"714 421 CURVE SMOOTH",
"714 218 OFFCURVE",
"398 8 OFFCURVE",
"211 8 CURVE SMOOTH"
);
}
);
width = 657;
}
);
note = Oslash;
},
{
glyphname = OE.ss01;
lastChange = "2021-08-24 18:22:36 +0000";
layers = (
{
hints = (
{
horizontal = 1;
place = "{-25, 33}";
type = Stem;
},
{
horizontal = 1;
place = "{549, 35}";
type = Stem;
},
{
place = "{59, 35}";
type = Stem;
},
{
place = "{715, 46}";
type = Stem;
},
{
horizontal = 1;
place = "{560, 31}";
type = Stem;
},
{
horizontal = 1;
place = "{-26, 50}";
type = Stem;
}
);
layerId = "5B3E1226-E0D0-4C23-AF14-DEF1E2C801D3";
paths = (
{
closed = 1;
nodes = (
"801 -26 OFFCURVE",
"1073 65 OFFCURVE",
"1126 142 CURVE SMOOTH",
"1132 151 OFFCURVE",
"1133 160 OFFCURVE",
"1119 153 CURVE SMOOTH",
"1020 98 OFFCURVE",
"828 25 OFFCURVE",
"707 25 CURVE SMOOTH",
"516 25 OFFCURVE",
"666 261 OFFCURVE",
"684 300 CURVE",
"792 345 OFFCURVE",
"925 324 OFFCURVE",
"1040 343 CURVE SMOOTH",
"1050 345 OFFCURVE",
"1099 362 OFFCURVE",
"1065 366 CURVE SMOOTH",
"1029 370 OFFCURVE",
"991 369 OFFCURVE",
"955 369 CURVE SMOOTH",
"878 369 OFFCURVE",
"802 358 OFFCURVE",
"725 360 CURVE",
"748 391 OFFCURVE",
"839 506 OFFCURVE",
"865 523 CURVE SMOOTH",
"894 543 OFFCURVE",
"1027 549 OFFCURVE",
"1067 549 CURVE SMOOTH",
"1088 549 OFFCURVE",
"1125 550 OFFCURVE",
"1146 541 CURVE",
"1168 501 OFFCURVE",
"1203 559 OFFCURVE",
"1149 575 CURVE",
"1101 583 OFFCURVE",
"1052 584 OFFCURVE",
"1005 584 CURVE SMOOTH",
"958 584 OFFCURVE",
"737 586 OFFCURVE",
"743 529 CURVE SMOOTH",
"746 505 OFFCURVE",
"759 517 OFFCURVE",
"766 504 CURVE",
"758 494 OFFCURVE",
"750 481 OFFCURVE",
"741 467 CURVE",
"699 555 OFFCURVE",
"595 591 OFFCURVE",
"491 591 CURVE SMOOTH",
"355 591 OFFCURVE",
"187 527 OFFCURVE",
"104 416 CURVE SMOOTH",
"90 398 OFFCURVE",
"100 384 OFFCURVE",
"120 402 CURVE SMOOTH",
"172 449 OFFCURVE",
"233 488 OFFCURVE",
"299 511 CURVE",
"194 421 OFFCURVE",
"59 284 OFFCURVE",
"59 136 CURVE SMOOTH",
"59 30 OFFCURVE",
"114 -25 OFFCURVE",
"219 -25 CURVE SMOOTH",
"313 -25 OFFCURVE",
"445 20 OFFCURVE",
"555 91 CURVE",
"555 89 OFFCURVE",
"556 87 OFFCURVE",
"556 85 CURVE SMOOTH",
"566 4 OFFCURVE",
"623 -26 OFFCURVE",
"697 -26 CURVE SMOOTH"
);
},
{
closed = 1;
nodes = (
"134 8 OFFCURVE",
"94 48 OFFCURVE",
"94 126 CURVE SMOOTH",
"94 264 OFFCURVE",
"288 447 OFFCURVE",
"412 486 CURVE SMOOTH",
"418 488 OFFCURVE",
"423 492 OFFCURVE",
"423 499 CURVE SMOOTH",
"423 523 OFFCURVE",
"386 535 OFFCURVE",
"368 538 CURVE",
"414 553 OFFCURVE",
"462 560 OFFCURVE",
"510 560 CURVE SMOOTH",
"597 560 OFFCURVE",
"710 532 OFFCURVE",
"714 426 CURVE",
"684 382 OFFCURVE",
"647 339 OFFCURVE",
"602 339 CURVE SMOOTH",
"593 339 OFFCURVE",
"565 347 OFFCURVE",
"567 330 CURVE SMOOTH",
"570 303 OFFCURVE",
"610 303 OFFCURVE",
"628 302 CURVE",
"609 263 OFFCURVE",
"582 215 OFFCURVE",
"566 166 CURVE",
"459 73 OFFCURVE",
"315 8 OFFCURVE",
"211 8 CURVE SMOOTH"
);
}
);
width = 1058;
}
);
note = OE;
},
{
glyphname = P.ss01;
lastChange = "2021-08-24 18:22:36 +0000";
layers = (
{
hints = (
{
horizontal = 1;
place = "{626, -20}";
target = down;
type = TopGhost;
}
);
layerId = "5B3E1226-E0D0-4C23-AF14-DEF1E2C801D3";
paths = (
{
closed = 1;
nodes = (
"199 -83 OFFCURVE",
"244 -51 OFFCURVE",
"244 -37 CURVE SMOOTH",
"244 -34 OFFCURVE",
"242 -33 OFFCURVE",
"239 -33 CURVE SMOOTH",
"221 -33 OFFCURVE",
"209 -52 OFFCURVE",
"189 -52 CURVE SMOOTH",
"176 -52 OFFCURVE",
"173 -40 OFFCURVE",
"173 -30 CURVE SMOOTH",
"173 -8 OFFCURVE",
"184 17 OFFCURVE",
"195 35 CURVE SMOOTH",
"229 93 OFFCURVE",
"268 150 OFFCURVE",
"308 205 CURVE",
"320 192 OFFCURVE",
"408 189 OFFCURVE",
"429 189 CURVE SMOOTH",
"567 189 OFFCURVE",
"740 249 OFFCURVE",
"818 371 CURVE SMOOTH",
"831 392 OFFCURVE",
"840 416 OFFCURVE",
"840 441 CURVE SMOOTH",
"840 540 OFFCURVE",
"719 594 OFFCURVE",
"638 612 CURVE SMOOTH",
"589 624 OFFCURVE",
"539 629 OFFCURVE",
"488 629 CURVE SMOOTH",
"322 629 OFFCURVE",
"77 586 OFFCURVE",
"-43 459 CURVE SMOOTH",
"-72 428 OFFCURVE",
"-98 386 OFFCURVE",
"-98 342 CURVE SMOOTH",
"-98 311 OFFCURVE",
"-84 284 OFFCURVE",
"-55 270 CURVE SMOOTH",
"-47 266 OFFCURVE",
"-32 259 OFFCURVE",
"-22 259 CURVE SMOOTH",
"-18 259 OFFCURVE",
"-13 261 OFFCURVE",
"-9 262 CURVE SMOOTH",
"0 264 OFFCURVE",
"28 266 OFFCURVE",
"28 279 CURVE SMOOTH",
"28 282 OFFCURVE",
"24 283 OFFCURVE",
"22 283 CURVE SMOOTH",
"14 283 OFFCURVE",
"8 277 OFFCURVE",
"0 277 CURVE SMOOTH",
"-9 277 OFFCURVE",
"-18 285 OFFCURVE",
"-25 290 CURVE SMOOTH",
"-43 303 OFFCURVE",
"-52 317 OFFCURVE",
"-52 340 CURVE SMOOTH",
"-52 383 OFFCURVE",
"-18 426 OFFCURVE",
"12 453 CURVE SMOOTH",
"125 558 OFFCURVE",
"320 605 OFFCURVE",
"470 605 CURVE SMOOTH",
"573 605 OFFCURVE",
"779 571 OFFCURVE",
"779 433 CURVE SMOOTH",
"779 273 OFFCURVE",
"548 214 OFFCURVE",
"422 214 CURVE SMOOTH",
"389 214 OFFCURVE",
"357 218 OFFCURVE",
"325 228 CURVE",
"401 329 OFFCURVE",
"491 453 OFFCURVE",
"594 527 CURVE SMOOTH",
"603 533 OFFCURVE",
"621 544 OFFCURVE",
"621 556 CURVE SMOOTH",
"621 565 OFFCURVE",
"611 568 OFFCURVE",
"604 568 CURVE SMOOTH",
"575 568 OFFCURVE",
"531 549 OFFCURVE",
"509 531 CURVE SMOOTH",
"477 505 OFFCURVE",
"443 480 OFFCURVE",
"414 451 CURVE",
"416 446 OFFCURVE",
"421 445 OFFCURVE",
"426 445 CURVE SMOOTH",
"435 445 OFFCURVE",
"446 450 OFFCURVE",
"454 455 CURVE",
"384 379 OFFCURVE",
"131 86 OFFCURVE",
"131 -18 CURVE SMOOTH",
"131 -36 OFFCURVE",
"136 -45 OFFCURVE",
"150 -55 CURVE SMOOTH",
"161 -63 OFFCURVE",
"172 -83 OFFCURVE",
"186 -83 CURVE SMOOTH"
);
}
);
width = 652;
}
);
note = P;
},
{
glyphname = Thorn.ss01;
lastChange = "2021-08-24 18:22:36 +0000";
layers = (
{
hints = (
{
horizontal = 1;
place = "{569, 27}";
type = Stem;
},
{
place = "{48, 33}";
type = Stem;
},
{
place = "{592, 39}";
type = Stem;
}
);
layerId = "5B3E1226-E0D0-4C23-AF14-DEF1E2C801D3";
paths = (
{
closed = 1;
nodes = (
"82 -24 OFFCURVE",
"81 -14 OFFCURVE",
"81 -10 CURVE SMOOTH",
"70 130 OFFCURVE",
"243 383 OFFCURVE",
"366 549 CURVE",
"442 542 OFFCURVE",
"545 516 OFFCURVE",
"551 440 CURVE SMOOTH",
"561 307 OFFCURVE",
"297 246 OFFCURVE",
"184 231 CURVE SMOOTH",
"169 229 OFFCURVE",
"152 222 OFFCURVE",
"181 212 CURVE SMOOTH",
"194 208 OFFCURVE",
"212 208 OFFCURVE",
"220 208 CURVE SMOOTH",
"343 208 OFFCURVE",
"603 269 OFFCURVE",
"590 432 CURVE SMOOTH",
"583 526 OFFCURVE",
"475 561 OFFCURVE",
"384 573 CURVE",
"441 650 OFFCURVE",
"484 705 OFFCURVE",
"484 712 CURVE SMOOTH",
"483 724 OFFCURVE",
"472 735 OFFCURVE",
"460 742 CURVE SMOOTH",
"431 760 OFFCURVE",
"407 707 OFFCURVE",
"392 687 CURVE SMOOTH",
"372 661 OFFCURVE",
"346 623 OFFCURVE",
"317 579 CURVE",
"304 579 LINE SMOOTH",
"253 579 OFFCURVE",
"148 557 OFFCURVE",
"151 514 CURVE SMOOTH",
"151 509 OFFCURVE",
"156 511 OFFCURVE",
"159 512 CURVE SMOOTH",
"203 534 OFFCURVE",
"261 549 OFFCURVE",
"299 551 CURVE",
"186 374 OFFCURVE",
"41 112 OFFCURVE",
"48 26 CURVE SMOOTH",
"49 14 OFFCURVE",
"58 -24 OFFCURVE",
"75 -24 CURVE SMOOTH"
);
}
);
width = 461;
}
);
note = Thorn;
},
{
glyphname = Q.ss01;
lastChange = "2021-08-24 18:22:36 +0000";
layers = (
{
hints = (
{
horizontal = 1;
place = "{662, -20}";
target = down;
type = TopGhost;
}
);
layerId = "5B3E1226-E0D0-4C23-AF14-DEF1E2C801D3";
paths = (
{
closed = 1;
nodes = (
"474 -70 OFFCURVE",
"665 44 OFFCURVE",
"771 159 CURVE SMOOTH",
"831 224 OFFCURVE",
"895 320 OFFCURVE",
"895 412 CURVE SMOOTH",
"895 467 OFFCURVE",
"871 513 OFFCURVE",
"824 541 CURVE",
"827 553 OFFCURVE",
"828 566 OFFCURVE",
"828 578 CURVE SMOOTH",
"828 644 OFFCURVE",
"774 666 OFFCURVE",
"717 666 CURVE SMOOTH",
"577 666 OFFCURVE",
"415 554 OFFCURVE",
"322 458 CURVE SMOOTH",
"281 416 OFFCURVE",
"245 370 OFFCURVE",
"213 321 CURVE SMOOTH",
"196 296 OFFCURVE",
"181 269 OFFCURVE",
"169 241 CURVE",
"129 257 OFFCURVE",
"100 284 OFFCURVE",
"100 329 CURVE SMOOTH",
"100 370 OFFCURVE",
"126 405 OFFCURVE",
"126 446 CURVE SMOOTH",
"126 448 OFFCURVE",
"125 462 OFFCURVE",
"120 462 CURVE SMOOTH",
"102 462 OFFCURVE",
"83 406 OFFCURVE",
"79 393 CURVE SMOOTH",
"72 372 OFFCURVE",
"67 350 OFFCURVE",
"67 327 CURVE SMOOTH",
"67 268 OFFCURVE",
"102 229 OFFCURVE",
"157 211 CURVE",
"146 178 OFFCURVE",
"139 143 OFFCURVE",
"139 107 CURVE SMOOTH",
"139 -1 OFFCURVE",
"204 -70 OFFCURVE",
"313 -70 CURVE SMOOTH"
);
},
{
closed = 1;
nodes = (
"636 -318 OFFCURVE",
"674 -310 OFFCURVE",
"698 -289 CURVE SMOOTH",
"705 -283 OFFCURVE",
"716 -271 OFFCURVE",
"716 -261 CURVE SMOOTH",
"716 -257 OFFCURVE",
"712 -255 OFFCURVE",
"709 -255 CURVE SMOOTH",
"702 -255 OFFCURVE",
"694 -262 OFFCURVE",
"689 -267 CURVE",
"671 -281 OFFCURVE",
"651 -290 OFFCURVE",
"629 -290 CURVE SMOOTH",
"445 -290 OFFCURVE",
"335 -117 OFFCURVE",
"164 -73 CURVE SMOOTH",
"147 -69 OFFCURVE",
"130 -66 OFFCURVE",
"113 -66 CURVE SMOOTH",
"47 -66 OFFCURVE",
"-26 -111 OFFCURVE",
"-26 -184 CURVE SMOOTH",
"-26 -224 OFFCURVE",
"-1 -248 OFFCURVE",
"35 -260 CURVE SMOOTH",
"38 -261 OFFCURVE",
"40 -262 OFFCURVE",
"43 -262 CURVE SMOOTH",
"53 -262 OFFCURVE",
"67 -254 OFFCURVE",
"67 -243 CURVE SMOOTH",
"67 -226 OFFCURVE",
"7 -217 OFFCURVE",
"7 -177 CURVE SMOOTH",
"7 -135 OFFCURVE",
"73 -123 OFFCURVE",
"105 -123 CURVE SMOOTH",
"266 -123 OFFCURVE",
"416 -318 OFFCURVE",
"605 -318 CURVE SMOOTH"
);
},
{
closed = 1;
nodes = (
"231 -38 OFFCURVE",
"179 10 OFFCURVE",
"179 96 CURVE SMOOTH",
"179 131 OFFCURVE",
"187 165 OFFCURVE",
"199 198 CURVE",
"214 196 OFFCURVE",
"229 196 OFFCURVE",
"244 196 CURVE SMOOTH",
"256 196 OFFCURVE",
"269 196 OFFCURVE",
"281 197 CURVE SMOOTH",
"343 202 OFFCURVE",
"403 213 OFFCURVE",
"462 231 CURVE SMOOTH",
"597 274 OFFCURVE",
"758 375 OFFCURVE",
"813 512 CURVE",
"843 494 OFFCURVE",
"858 463 OFFCURVE",
"858 428 CURVE SMOOTH",
"858 341 OFFCURVE",
"772 234 OFFCURVE",
"718 172 CURVE SMOOTH",
"631 74 OFFCURVE",
"450 -38 OFFCURVE",
"317 -38 CURVE SMOOTH"
);
},
{
closed = 1;
nodes = (
"244 227 OFFCURVE",
"229 228 OFFCURVE",
"215 231 CURVE",
"279 384 OFFCURVE",
"422 530 OFFCURVE",
"572 598 CURVE SMOOTH",
"611 616 OFFCURVE",
"660 631 OFFCURVE",
"704 631 CURVE SMOOTH",
"742 631 OFFCURVE",
"773 622 OFFCURVE",
"773 579 CURVE SMOOTH",
"773 573 OFFCURVE",
"772 568 OFFCURVE",
"772 563 CURVE",
"761 566 OFFCURVE",
"750 568 OFFCURVE",
"739 568 CURVE SMOOTH",
"732 568 OFFCURVE",
"716 567 OFFCURVE",
"716 556 CURVE SMOOTH",
"716 541 OFFCURVE",
"754 531 OFFCURVE",
"765 529 CURVE",
"722 406 OFFCURVE",
"542 303 OFFCURVE",
"425 262 CURVE SMOOTH",
"378 246 OFFCURVE",
"329 234 OFFCURVE",
"279 228 CURVE SMOOTH",
"272 227 OFFCURVE",
"265 227 OFFCURVE",
"258 227 CURVE SMOOTH"
);
}
);
width = 759;
}
);
note = Q;
},
{
glyphname = R.ss01;
lastChange = "2021-08-24 18:22:36 +0000";
layers = (
{
hints = (
{
horizontal = 1;
place = "{626, -20}";
target = down;
type = TopGhost;
}
);
layerId = "5B3E1226-E0D0-4C23-AF14-DEF1E2C801D3";
paths = (
{
closed = 1;
nodes = (
"594 -98 OFFCURVE",
"664 -75 OFFCURVE",
"668 -43 CURVE",
"669 -42 OFFCURVE",
"669 -38 OFFCURVE",
"669 -37 CURVE SMOOTH",
"669 -36 OFFCURVE",
"669 -32 OFFCURVE",
"667 -32 CURVE SMOOTH",
"654 -32 OFFCURVE",
"635 -62 OFFCURVE",
"603 -62 CURVE SMOOTH",
"540 -62 OFFCURVE",
"462 38 OFFCURVE",
"432 85 CURVE SMOOTH",
"409 119 OFFCURVE",
"390 155 OFFCURVE",
"373 192 CURVE",
"392 190 OFFCURVE",
"410 189 OFFCURVE",
"429 189 CURVE SMOOTH",
"565 189 OFFCURVE",
"737 249 OFFCURVE",
"815 369 CURVE",
"817 369 LINE",
"831 390 OFFCURVE",
"839 415 OFFCURVE",
"839 440 CURVE SMOOTH",
"839 540 OFFCURVE",
"719 593 OFFCURVE",
"637 612 CURVE SMOOTH",
"588 624 OFFCURVE",
"538 629 OFFCURVE",
"487 629 CURVE SMOOTH",
"321 629 OFFCURVE",
"76 586 OFFCURVE",
"-44 459 CURVE SMOOTH",
"-73 428 OFFCURVE",
"-98 386 OFFCURVE",
"-98 343 CURVE SMOOTH",
"-98 311 OFFCURVE",
"-84 284 OFFCURVE",
"-55 270 CURVE SMOOTH",
"-47 266 OFFCURVE",
"-32 259 OFFCURVE",
"-22 259 CURVE SMOOTH",
"-18 259 OFFCURVE",
"-13 261 OFFCURVE",
"-9 262 CURVE SMOOTH",
"-1 264 OFFCURVE",
"28 266 OFFCURVE",
"28 279 CURVE SMOOTH",
"28 282 OFFCURVE",
"24 283 OFFCURVE",
"22 283 CURVE SMOOTH",
"14 283 OFFCURVE",
"8 277 OFFCURVE",
"0 277 CURVE SMOOTH",
"-9 277 OFFCURVE",
"-18 285 OFFCURVE",
"-25 290 CURVE SMOOTH",
"-43 303 OFFCURVE",
"-52 318 OFFCURVE",
"-52 340 CURVE SMOOTH",
"-52 382 OFFCURVE",
"-18 426 OFFCURVE",
"12 453 CURVE SMOOTH",
"125 558 OFFCURVE",
"320 605 OFFCURVE",
"470 605 CURVE SMOOTH",
"573 605 OFFCURVE",
"779 571 OFFCURVE",
"779 433 CURVE SMOOTH",
"779 414 OFFCURVE",
"775 395 OFFCURVE",
"768 378 CURVE SMOOTH",
"759 354 OFFCURVE",
"741 333 OFFCURVE",
"722 316 CURVE SMOOTH",
"647 246 OFFCURVE",
"538 214 OFFCURVE",
"437 214 CURVE SMOOTH",
"410 214 OFFCURVE",
"384 216 OFFCURVE",
"358 220 CURVE",
"345 253 LINE",
"417 347 OFFCURVE",
"497 458 OFFCURVE",
"594 527 CURVE SMOOTH",
"602 533 OFFCURVE",
"621 544 OFFCURVE",
"621 556 CURVE SMOOTH",
"621 564 OFFCURVE",
"611 565 OFFCURVE",
"605 565 CURVE SMOOTH",
"582 565 OFFCURVE",
"533 545 OFFCURVE",
"514 531 CURVE",
"510 531 LINE",
"479 509 OFFCURVE",
"440 481 OFFCURVE",
"418 450 CURVE",
"418 451 OFFCURVE",
"416 452 OFFCURVE",
"415 452 CURVE",
"410 447 OFFCURVE",
"406 443 OFFCURVE",
"403 437 CURVE",
"403 435 OFFCURVE",
"405 434 OFFCURVE",
"407 434 CURVE SMOOTH",
"416 434 OFFCURVE",
"455 460 OFFCURVE",
"463 465 CURVE",
"417 414 OFFCURVE",
"371 362 OFFCURVE",
"329 308 CURVE",
"326 308 LINE",
"321 314 OFFCURVE",
"313 319 OFFCURVE",
"305 319 CURVE SMOOTH",
"279 319 OFFCURVE",
"261 283 OFFCURVE",
"261 260 CURVE SMOOTH",
"261 256 OFFCURVE",
"268 240 OFFCURVE",
"271 236 CURVE",
"232 182 OFFCURVE",
"131 42 OFFCURVE",
"131 -20 CURVE SMOOTH",
"131 -36 OFFCURVE",
"136 -46 OFFCURVE",
"149 -55 CURVE SMOOTH",
"160 -63 OFFCURVE",
"172 -83 OFFCURVE",
"186 -83 CURVE SMOOTH",
"199 -83 OFFCURVE",
"244 -51 OFFCURVE",
"244 -37 CURVE SMOOTH",
"244 -34 OFFCURVE",
"242 -33 OFFCURVE",
"239 -33 CURVE SMOOTH",
"220 -33 OFFCURVE",
"214 -52 OFFCURVE",
"197 -52 CURVE SMOOTH",
"182 -52 OFFCURVE",
"171 -41 OFFCURVE",
"171 -27 CURVE SMOOTH",
"171 17 OFFCURVE",
"276 158 OFFCURVE",
"304 197 CURVE",
"305 196 LINE",
"321 167 OFFCURVE",
"337 138 OFFCURVE",
"355 110 CURVE SMOOTH",
"383 69 OFFCURVE",
"486 -70 OFFCURVE",
"530 -90 CURVE SMOOTH",
"542 -95 OFFCURVE",
"554 -98 OFFCURVE",
"567 -98 CURVE SMOOTH"
);
}
);
width = 688;
}
);
note = R;
},
{
glyphname = S.ss01;
lastChange = "2021-08-24 18:22:36 +0000";
layers = (
{
hints = (
{
horizontal = 1;
place = "{-124, 27}";
type = Stem;
},
{
horizontal = 1;
place = "{192, 17}";
type = Stem;
},
{
horizontal = 1;
place = "{567, 31}";
type = Stem;
},
{
place = "{-1, 51}";
type = Stem;
},
{
place = "{332, 59}";
type = Stem;
},
{
place = "{745, 44}";
type = Stem;
}
);
layerId = "5B3E1226-E0D0-4C23-AF14-DEF1E2C801D3";
paths = (
{
closed = 1;
nodes = (
"185 -199 OFFCURVE",
"725 -82 OFFCURVE",
"748 155 CURVE SMOOTH",
"758 262 OFFCURVE",
"654 299 OFFCURVE",
"551 327 CURVE SMOOTH",
"475 348 OFFCURVE",
"389 370 OFFCURVE",
"391 429 CURVE SMOOTH",
"395 526 OFFCURVE",
"577 567 OFFCURVE",
"653 567 CURVE SMOOTH",
"672 567 OFFCURVE",
"748 565 OFFCURVE",
"745 542 CURVE",
"742 487 OFFCURVE",
"658 416 OFFCURVE",
"647 394 CURVE",
"645 387 OFFCURVE",
"653 389 OFFCURVE",
"658 392 CURVE SMOOTH",
"695 416 OFFCURVE",
"785 477 OFFCURVE",
"789 532 CURVE",
"785 593 OFFCURVE",
"710 598 OFFCURVE",
"665 598 CURVE SMOOTH",
"569 598 OFFCURVE",
"332 542 OFFCURVE",
"332 413 CURVE SMOOTH",
"332 337 OFFCURVE",
"445 321 OFFCURVE",
"543 289 CURVE SMOOTH",
"625 262 OFFCURVE",
"702 220 OFFCURVE",
"691 144 CURVE SMOOTH",
"664 -47 OFFCURVE",
"199 -177 OFFCURVE",
"72 -42 CURVE SMOOTH",
"35 -2 OFFCURVE",
"40 53 OFFCURVE",
"116 103 CURVE SMOOTH",
"217 169 OFFCURVE",
"335 192 OFFCURVE",
"400 192 CURVE SMOOTH",
"457 192 OFFCURVE",
"423 209 OFFCURVE",
"388 209 CURVE SMOOTH",
"321 208 OFFCURVE",
"208 191 OFFCURVE",
"100 127 CURVE SMOOTH",
"-17 58 OFFCURVE",
"-24 -22 OFFCURVE",
"36 -73 CURVE SMOOTH"
);
}
);
width = 744;
}
);
note = S;
},
{
glyphname = T.ss01;
lastChange = "2021-08-24 18:22:36 +0000";
layers = (
{
hints = (
{
horizontal = 1;
place = "{-95, 30}";
type = Stem;
},
{
horizontal = 1;
place = "{375, 41}";
type = Stem;
},
{
horizontal = 1;
place = "{643, 32}";
type = Stem;
},
{
place = "{98, 46}";
type = Stem;
},
{
place = "{269, 41}";
type = Stem;
},
{
place = "{1154, 40}";
type = Stem;
}
);
layerId = "5B3E1226-E0D0-4C23-AF14-DEF1E2C801D3";
paths = (
{
closed = 1;
nodes = (
"292 375 OFFCURVE",
"365 403 OFFCURVE",
"419 431 CURVE SMOOTH",
"427 435 OFFCURVE",
"534 501 OFFCURVE",
"579 542 CURVE SMOOTH",
"594 556 OFFCURVE",
"604 579 OFFCURVE",
"597 579 CURVE SMOOTH",
"588 579 OFFCURVE",
"581 572 OFFCURVE",
"574 566 CURVE SMOOTH",
"499 502 OFFCURVE",
"402 451 OFFCURVE",
"307 425 CURVE SMOOTH",
"287 419 OFFCURVE",
"266 416 OFFCURVE",
"245 416 CURVE SMOOTH",
"189 416 OFFCURVE",
"114 434 OFFCURVE",
"157 498 CURVE SMOOTH",
"214 578 OFFCURVE",
"395 609 OFFCURVE",
"488 620 CURVE SMOOTH",
"616 635 OFFCURVE",
"746 643 OFFCURVE",
"875 643 CURVE SMOOTH",
"882 643 OFFCURVE",
"1220 634 OFFCURVE",
"1142 564 CURVE SMOOTH",
"1120 543 OFFCURVE",
"1104 537 OFFCURVE",
"1091 527 CURVE SMOOTH",
"1075 514 OFFCURVE",
"1062 493 OFFCURVE",
"1094 506 CURVE SMOOTH",
"1108 513 OFFCURVE",
"1116 512 OFFCURVE",
"1140 527 CURVE SMOOTH",
"1167 543 OFFCURVE",
"1194 565 OFFCURVE",
"1194 592 CURVE SMOOTH",
"1194 680 OFFCURVE",
"803 675 OFFCURVE",
"788 675 CURVE SMOOTH",
"625 675 OFFCURVE",
"360 658 OFFCURVE",
"210 597 CURVE SMOOTH",
"165 579 OFFCURVE",
"98 527 OFFCURVE",
"98 473 CURVE SMOOTH",
"98 380 OFFCURVE",
"182 375 OFFCURVE",
"231 375 CURVE SMOOTH"
);
},
{
closed = 1;
nodes = (
"338 -95 OFFCURVE",
"382 -64 OFFCURVE",
"382 -51 CURVE SMOOTH",
"382 -47 OFFCURVE",
"377 -46 OFFCURVE",
"374 -46 CURVE SMOOTH",
"371 -46 OFFCURVE",
"368 -47 OFFCURVE",
"365 -48 CURVE",
"357 -56 OFFCURVE",
"347 -65 OFFCURVE",
"335 -65 CURVE SMOOTH",
"319 -65 OFFCURVE",
"310 -54 OFFCURVE",
"310 -39 CURVE SMOOTH",
"310 -18 OFFCURVE",
"323 6 OFFCURVE",
"333 23 CURVE SMOOTH",
"370 85 OFFCURVE",
"412 145 OFFCURVE",
"454 203 CURVE SMOOTH",
"511 281 OFFCURVE",
"594 392 OFFCURVE",
"665 457 CURVE SMOOTH",
"694 484 OFFCURVE",
"720 502 OFFCURVE",
"750 525 CURVE SMOOTH",
"754 528 OFFCURVE",
"757 531 OFFCURVE",
"759 536 CURVE",
"758 536 LINE",
"759 538 OFFCURVE",
"759 540 OFFCURVE",
"759 542 CURVE SMOOTH",
"759 550 OFFCURVE",
"751 552 OFFCURVE",
"745 552 CURVE SMOOTH",
"722 552 OFFCURVE",
"671 531 OFFCURVE",
"653 516 CURVE",
"649 516 LINE",
"633 504 OFFCURVE",
"543 439 OFFCURVE",
"543 424 CURVE SMOOTH",
"543 423 OFFCURVE",
"545 422 OFFCURVE",
"546 422 CURVE SMOOTH",
"555 422 OFFCURVE",
"593 446 OFFCURVE",
"603 452 CURVE",
"496 336 OFFCURVE",
"397 214 OFFCURVE",
"314 79 CURVE SMOOTH",
"296 50 OFFCURVE",
"269 1 OFFCURVE",
"269 -34 CURVE SMOOTH",
"269 -50 OFFCURVE",
"274 -60 OFFCURVE",
"287 -68 CURVE SMOOTH",
"299 -75 OFFCURVE",
"312 -95 OFFCURVE",
"326 -95 CURVE SMOOTH"
);
}
);
width = 535;
}
);
note = T;
},
{
glyphname = U.ss01;
lastChange = "2021-08-24 18:22:36 +0000";
layers = (
{
hints = (
{
horizontal = 1;
place = "{-20, 32}";
type = Stem;
},
{
horizontal = 1;
place = "{236, 31}";
type = Stem;
},
{
horizontal = 1;
place = "{590, 32}";
type = Stem;
},
{
place = "{14, 50}";
type = Stem;
},
{
place = "{245, 45}";
type = Stem;
},
{
place = "{530, 44}";
type = Stem;
},
{
place = "{545, 52}";
type = Stem;
}
);
layerId = "5B3E1226-E0D0-4C23-AF14-DEF1E2C801D3";
paths = (
{
closed = 1;
nodes = (
"637 -157 OFFCURVE",
"650 -113 OFFCURVE",
"636 -123 CURVE SMOOTH",
"614 -138 OFFCURVE",
"595 -139 OFFCURVE",
"585 -135 CURVE",
"557 -116 OFFCURVE",
"583 -25 OFFCURVE",
"637 90 CURVE SMOOTH",
"681 181 OFFCURVE",
"751 298 OFFCURVE",
"778 337 CURVE SMOOTH",
"808 382 OFFCURVE",
"841 428 OFFCURVE",
"876 471 CURVE SMOOTH",
"877 472 LINE SMOOTH",
"880 476 OFFCURVE",
"881 481 OFFCURVE",
"881 486 CURVE SMOOTH",
"881 504 OFFCURVE",
"856 511 OFFCURVE",
"841 511 CURVE SMOOTH",
"827 511 OFFCURVE",
"817 508 OFFCURVE",
"810 495 CURVE SMOOTH",
"803 482 OFFCURVE",
"797 469 OFFCURVE",
"789 455 CURVE SMOOTH",
"715 334 OFFCURVE",
"497 54 OFFCURVE",
"360 17 CURVE SMOOTH",
"350 14 OFFCURVE",
"339 12 OFFCURVE",
"328 12 CURVE SMOOTH",
"303 12 OFFCURVE",
"290 24 OFFCURVE",
"290 49 CURVE SMOOTH",
"290 91 OFFCURVE",
"378 222 OFFCURVE",
"397 250 CURVE SMOOTH",
"451 332 OFFCURVE",
"597 514 OFFCURVE",
"597 563 CURVE SMOOTH",
"597 613 OFFCURVE",
"539 622 OFFCURVE",
"500 622 CURVE SMOOTH",
"431 622 OFFCURVE",
"341 597 OFFCURVE",
"280 566 CURVE SMOOTH",
"190 521 OFFCURVE",
"14 410 OFFCURVE",
"14 294 CURVE SMOOTH",
"14 243 OFFCURVE",
"64 236 OFFCURVE",
"105 236 CURVE SMOOTH",
"137 236 OFFCURVE",
"170 241 OFFCURVE",
"199 254 CURVE SMOOTH",
"203 256 OFFCURVE",
"224 264 OFFCURVE",
"224 269 CURVE SMOOTH",
"224 275 OFFCURVE",
"222 275 OFFCURVE",
"216 275 CURVE SMOOTH",
"212 275 OFFCURVE",
"209 274 OFFCURVE",
"205 274 CURVE SMOOTH",
"181 271 OFFCURVE",
"158 267 OFFCURVE",
"133 267 CURVE SMOOTH",
"101 267 OFFCURVE",
"64 274 OFFCURVE",
"64 315 CURVE SMOOTH",
"64 400 OFFCURVE",
"225 511 OFFCURVE",
"295 542 CURVE SMOOTH",
"347 565 OFFCURVE",
"416 590 OFFCURVE",
"473 590 CURVE SMOOTH",
"596 590 OFFCURVE",
"534 511 OFFCURVE",
"491 450 CURVE SMOOTH",
"441 379 OFFCURVE",
"403 329 OFFCURVE",
"351 259 CURVE SMOOTH",
"314 209 OFFCURVE",
"245 97 OFFCURVE",
"245 35 CURVE SMOOTH",
"245 -8 OFFCURVE",
"268 -20 OFFCURVE",
"308 -20 CURVE SMOOTH",
"443 -20 OFFCURVE",
"613 174 OFFCURVE",
"692 273 CURVE",
"671 238 OFFCURVE",
"622 159 OFFCURVE",
"591 91 CURVE SMOOTH",
"581 67 OFFCURVE",
"567 41 OFFCURVE",
"560 21 CURVE SMOOTH",
"501 -127 OFFCURVE",
"537 -170 OFFCURVE",
"598 -162 CURVE SMOOTH"
);
}
);
width = 715;
}
);
note = U;
},
{
glyphname = V.ss01;
lastChange = "2021-08-24 18:22:36 +0000";
layers = (
{
hints = (
{
horizontal = 1;
place = "{631, -20}";
target = down;
type = TopGhost;
}
);
layerId = "5B3E1226-E0D0-4C23-AF14-DEF1E2C801D3";
paths = (
{
closed = 1;
nodes = (
"335 -75 OFFCURVE",
"342 -73 OFFCURVE",
"347 -68 CURVE SMOOTH",
"359 -56 OFFCURVE",
"371 -42 OFFCURVE",
"382 -29 CURVE SMOOTH",
"462 59 LINE SMOOTH",
"534 138 OFFCURVE",
"608 215 OFFCURVE",
"684 291 CURVE SMOOTH",
"770 376 OFFCURVE",
"928 529 OFFCURVE",
"1036 579 CURVE SMOOTH",
"1043 582 OFFCURVE",
"1050 584 OFFCURVE",
"1058 584 CURVE SMOOTH",
"1074 584 OFFCURVE",
"1082 574 OFFCURVE",
"1082 558 CURVE SMOOTH",
"1082 541 OFFCURVE",
"1072 524 OFFCURVE",
"1072 515 CURVE SMOOTH",
"1072 511 OFFCURVE",
"1075 510 OFFCURVE",
"1078 510 CURVE SMOOTH",
"1099 510 OFFCURVE",
"1123 582 OFFCURVE",
"1123 601 CURVE SMOOTH",
"1123 622 OFFCURVE",
"1111 634 OFFCURVE",
"1090 634 CURVE SMOOTH",
"938 634 OFFCURVE",
"497 121 OFFCURVE",
"342 -15 CURVE",
"382 111 OFFCURVE",
"448 229 OFFCURVE",
"515 342 CURVE SMOOTH",
"535 376 OFFCURVE",
"635 533 OFFCURVE",
"638 559 CURVE SMOOTH",
"638 563 LINE SMOOTH",
"638 613 OFFCURVE",
"580 622 OFFCURVE",
"542 622 CURVE SMOOTH",
"474 622 OFFCURVE",
"384 597 OFFCURVE",
"323 566 CURVE SMOOTH",
"254 531 OFFCURVE",
"157 468 OFFCURVE",
"107 408 CURVE SMOOTH",
"83 379 OFFCURVE",
"57 333 OFFCURVE",
"57 294 CURVE SMOOTH",
"57 242 OFFCURVE",
"111 235 OFFCURVE",
"152 235 CURVE SMOOTH",
"181 235 OFFCURVE",
"216 240 OFFCURVE",
"242 252 CURVE SMOOTH",
"246 254 OFFCURVE",
"266 264 OFFCURVE",
"266 268 CURVE SMOOTH",
"266 274 OFFCURVE",
"262 274 OFFCURVE",
"258 274 CURVE SMOOTH",
"232 274 OFFCURVE",
"204 267 OFFCURVE",
"176 267 CURVE SMOOTH",
"144 267 OFFCURVE",
"106 273 OFFCURVE",
"106 314 CURVE SMOOTH",
"106 400 OFFCURVE",
"266 511 OFFCURVE",
"336 542 CURVE SMOOTH",
"383 563 OFFCURVE",
"464 595 OFFCURVE",
"516 595 CURVE SMOOTH",
"537 595 OFFCURVE",
"572 586 OFFCURVE",
"572 560 CURVE SMOOTH",
"572 510 OFFCURVE",
"443 304 OFFCURVE",
"411 246 CURVE SMOOTH",
"378 185 OFFCURVE",
"292 22 OFFCURVE",
"286 -46 CURVE SMOOTH",
"286 -49 LINE SMOOTH",
"286 -66 OFFCURVE",
"314 -75 OFFCURVE",
"328 -75 CURVE SMOOTH"
);
}
);
width = 644;
}
);
note = V;
},
{
glyphname = W.ss01;
lastChange = "2021-08-24 18:22:36 +0000";
layers = (
{
hints = (
{
horizontal = 1;
place = "{499, 22}";
type = Stem;
},
{
horizontal = 1;
place = "{630, -20}";
target = down;
type = TopGhost;
}
);
layerId = "5B3E1226-E0D0-4C23-AF14-DEF1E2C801D3";
paths = (
{
closed = 1;
nodes = (
"362 -59 OFFCURVE",
"452 49 OFFCURVE",
"546 146 CURVE SMOOTH",
"606 206 OFFCURVE",
"673 293 OFFCURVE",
"707 325 CURVE",
"693 275 OFFCURVE",
"658 208 OFFCURVE",
"645 156 CURVE SMOOTH",
"624 71 OFFCURVE",
"618 -34 OFFCURVE",
"701 -34 CURVE SMOOTH",
"858 -34 OFFCURVE",
"1105 398 OFFCURVE",
"1217 553 CURVE SMOOTH",
"1296 661 OFFCURVE",
"1348 745 OFFCURVE",
"1414 744 CURVE SMOOTH",
"1454 744 OFFCURVE",
"1448 706 OFFCURVE",
"1441 691 CURVE SMOOTH",
"1434 675 OFFCURVE",
"1430 627 OFFCURVE",
"1464 690 CURVE SMOOTH",
"1494 747 OFFCURVE",
"1450 776 OFFCURVE",
"1414 776 CURVE SMOOTH",
"1288 778 OFFCURVE",
"1169 571 OFFCURVE",
"1041 370 CURVE",
"948 206 OFFCURVE",
"790 -4 OFFCURVE",
"704 -4 CURVE SMOOTH",
"658 -4 OFFCURVE",
"668 60 OFFCURVE",
"679 105 CURVE SMOOTH",
"706 215 OFFCURVE",
"763 326 OFFCURVE",
"810 421 CURVE SMOOTH",
"818 438 OFFCURVE",
"839 472 OFFCURVE",
"833 488 CURVE SMOOTH",
"829 500 OFFCURVE",
"814 504 OFFCURVE",
"804 504 CURVE SMOOTH",
"782 504 OFFCURVE",
"756 447 OFFCURVE",
"740 425 CURVE SMOOTH",
"686 349 OFFCURVE",
"603 243 OFFCURVE",
"533 171 CURVE SMOOTH",
"483 122 OFFCURVE",
"377 1 OFFCURVE",
"319 1 CURVE SMOOTH",
"289 1 OFFCURVE",
"294 36 OFFCURVE",
"300 58 CURVE SMOOTH",
"321 140 OFFCURVE",
"406 270 OFFCURVE",
"465 354 CURVE",
"502 420 OFFCURVE",
"621 585 OFFCURVE",
"645 654 CURVE",
"658 714 OFFCURVE",
"580 722 OFFCURVE",
"538 722 CURVE SMOOTH",
"463 722 OFFCURVE",
"363 695 OFFCURVE",
"295 662 CURVE SMOOTH",
"219 624 OFFCURVE",
"112 557 OFFCURVE",
"56 493 CURVE SMOOTH",
"30 462 OFFCURVE",
"1 413 OFFCURVE",
"1 371 CURVE SMOOTH",
"1 316 OFFCURVE",
"61 308 OFFCURVE",
"106 308 CURVE SMOOTH",
"138 308 OFFCURVE",
"177 314 OFFCURVE",
"206 326 CURVE",
"210 329 OFFCURVE",
"232 339 OFFCURVE",
"232 344 CURVE SMOOTH",
"232 350 OFFCURVE",
"228 350 OFFCURVE",
"223 350 CURVE SMOOTH",
"195 350 OFFCURVE",
"164 342 OFFCURVE",
"133 342 CURVE SMOOTH",
"97 342 OFFCURVE",
"55 349 OFFCURVE",
"55 393 CURVE SMOOTH",
"55 484 OFFCURVE",
"232 603 OFFCURVE",
"310 636 CURVE SMOOTH",
"362 659 OFFCURVE",
"452 693 OFFCURVE",
"509 693 CURVE SMOOTH",
"533 693 OFFCURVE",
"571 683 OFFCURVE",
"571 655 CURVE SMOOTH",
"571 620 OFFCURVE",
"512 518 OFFCURVE",
"460 431 CURVE",
"370 300 OFFCURVE",
"280 148 OFFCURVE",
"259 66 CURVE SMOOTH",
"248 21 OFFCURVE",
"251 -28 OFFCURVE",
"294 -40 CURVE SMOOTH"
);
}
);
width = 990;
}
);
note = W;
},
{
glyphname = X.ss01;
lastChange = "2021-08-24 18:22:36 +0000";
layers = (
{
hints = (
{
horizontal = 1;
place = "{623, -20}";
target = down;
type = TopGhost;
},
{
place = "{357, 54}";
type = Stem;
}
);
layerId = "5B3E1226-E0D0-4C23-AF14-DEF1E2C801D3";
paths = (
{
closed = 1;
nodes = (
"-89 -174 OFFCURVE",
"-62 -143 OFFCURVE",
"-51 -129 CURVE SMOOTH",
"74 27 OFFCURVE",
"235 148 OFFCURVE",
"399 260 CURVE",
"368 113 LINE SMOOTH",
"362 81 OFFCURVE",
"354 47 OFFCURVE",
"354 15 CURVE SMOOTH",
"354 -24 OFFCURVE",
"371 -52 OFFCURVE",
"412 -52 CURVE SMOOTH",
"488 -52 OFFCURVE",
"590 32 OFFCURVE",
"628 94 CURVE SMOOTH",
"635 105 OFFCURVE",
"660 147 OFFCURVE",
"660 157 CURVE SMOOTH",
"660 160 OFFCURVE",
"659 163 OFFCURVE",
"656 163 CURVE SMOOTH",
"636 163 OFFCURVE",
"532 -14 OFFCURVE",
"453 -14 CURVE SMOOTH",
"420 -14 OFFCURVE",
"414 29 OFFCURVE",
"414 54 CURVE SMOOTH",
"414 122 OFFCURVE",
"440 228 OFFCURVE",
"454 298 CURVE",
"538 354 OFFCURVE",
"623 407 OFFCURVE",
"709 460 CURVE SMOOTH",
"740 479 OFFCURVE",
"913 582 OFFCURVE",
"913 620 CURVE SMOOTH",
"913 625 OFFCURVE",
"909 627 OFFCURVE",
"905 627 CURVE SMOOTH",
"882 627 OFFCURVE",
"846 598 OFFCURVE",
"829 584 CURVE SMOOTH",
"780 542 OFFCURVE",
"726 506 OFFCURVE",
"672 471 CURVE SMOOTH",
"603 426 OFFCURVE",
"532 383 OFFCURVE",
"463 338 CURVE",
"471 390 OFFCURVE",
"481 444 OFFCURVE",
"481 496 CURVE SMOOTH",
"481 510 OFFCURVE",
"480 534 OFFCURVE",
"471 545 CURVE SMOOTH",
"454 566 OFFCURVE",
"427 574 OFFCURVE",
"401 574 CURVE SMOOTH",
"333 574 OFFCURVE",
"246 525 OFFCURVE",
"191 487 CURVE SMOOTH",
"179 479 OFFCURVE",
"161 468 OFFCURVE",
"152 457 CURVE SMOOTH",
"149 453 OFFCURVE",
"145 448 OFFCURVE",
"145 443 CURVE SMOOTH",
"145 437 OFFCURVE",
"150 436 OFFCURVE",
"155 436 CURVE SMOOTH",
"158 436 OFFCURVE",
"173 440 OFFCURVE",
"176 442 CURVE SMOOTH",
"190 451 OFFCURVE",
"202 464 OFFCURVE",
"216 474 CURVE SMOOTH",
"260 506 OFFCURVE",
"322 539 OFFCURVE",
"377 539 CURVE SMOOTH",
"385 539 OFFCURVE",
"394 538 OFFCURVE",
"402 536 CURVE SMOOTH",
"427 530 OFFCURVE",
"428 482 OFFCURVE",
"428 462 CURVE SMOOTH",
"428 408 OFFCURVE",
"419 352 OFFCURVE",
"409 299 CURVE",
"226 178 OFFCURVE",
"45 42 OFFCURVE",
"-100 -124 CURVE SMOOTH",
"-108 -133 OFFCURVE",
"-121 -150 OFFCURVE",
"-121 -163 CURVE SMOOTH",
"-121 -170 OFFCURVE",
"-117 -174 OFFCURVE",
"-110 -174 CURVE SMOOTH"
);
}
);
width = 625;
}
);
note = X;
},
{
glyphname = Y.ss01;
lastChange = "2021-08-24 18:22:36 +0000";
layers = (
{
hints = (
{
horizontal = 1;
place = "{-125, 24}";
type = Stem;
}
);
layerId = "5B3E1226-E0D0-4C23-AF14-DEF1E2C801D3";
paths = (
{
closed = 1;
nodes = (
"335 -431 OFFCURVE",
"407 -391 OFFCURVE",
"460 -351 CURVE SMOOTH",
"578 -260 OFFCURVE",
"689 -164 OFFCURVE",
"779 -44 CURVE",
"843 -37 OFFCURVE",
"863 -46 OFFCURVE",
"863 -64 CURVE SMOOTH",
"863 -106 OFFCURVE",
"775 -155 OFFCURVE",
"775 -171 CURVE SMOOTH",
"775 -176 OFFCURVE",
"783 -180 OFFCURVE",
"789 -177 CURVE SMOOTH",
"831 -158 OFFCURVE",
"908 -101 OFFCURVE",
"908 -50 CURVE SMOOTH",
"908 2 OFFCURVE",
"829 -18 OFFCURVE",
"800 -21 CURVE",
"864 61 OFFCURVE",
"932 214 OFFCURVE",
"970 384 CURVE SMOOTH",
"978 419 OFFCURVE",
"987 457 OFFCURVE",
"987 493 CURVE SMOOTH",
"987 505 OFFCURVE",
"985 525 OFFCURVE",
"969 525 CURVE SMOOTH",
"947 525 OFFCURVE",
"922 492 OFFCURVE",
"911 476 CURVE SMOOTH",
"835 362 OFFCURVE",
"559 22 OFFCURVE",
"423 22 CURVE SMOOTH",
"404 22 OFFCURVE",
"394 31 OFFCURVE",
"394 50 CURVE SMOOTH",
"394 131 OFFCURVE",
"568 366 OFFCURVE",
"618 445 CURVE SMOOTH",
"636 474 OFFCURVE",
"664 519 OFFCURVE",
"664 554 CURVE SMOOTH",
"664 598 OFFCURVE",
"628 611 OFFCURVE",
"590 611 CURVE SMOOTH",
"511 611 OFFCURVE",
"388 559 OFFCURVE",
"322 515 CURVE SMOOTH",
"229 453 OFFCURVE",
"87 348 OFFCURVE",
"87 223 CURVE SMOOTH",
"87 184 OFFCURVE",
"103 169 OFFCURVE",
"141 169 CURVE SMOOTH",
"182 169 OFFCURVE",
"254 189 OFFCURVE",
"282 222 CURVE",
"283 224 OFFCURVE",
"291 233 OFFCURVE",
"291 236 CURVE SMOOTH",
"291 240 OFFCURVE",
"290 242 OFFCURVE",
"285 242 CURVE SMOOTH",
"265 242 OFFCURVE",
"209 207 OFFCURVE",
"168 207 CURVE SMOOTH",
"146 207 OFFCURVE",
"131 221 OFFCURVE",
"131 244 CURVE SMOOTH",
"131 318 OFFCURVE",
"276 450 OFFCURVE",
"334 493 CURVE SMOOTH",
"393 538 OFFCURVE",
"486 580 OFFCURVE",
"561 580 CURVE SMOOTH",
"575 580 OFFCURVE",
"610 578 OFFCURVE",
"610 557 CURVE SMOOTH",
"610 468 OFFCURVE",
"348 183 OFFCURVE",
"348 50 CURVE SMOOTH",
"348 8 OFFCURVE",
"381 -13 OFFCURVE",
"420 -13 CURVE SMOOTH",
"570 -13 OFFCURVE",
"812 300 OFFCURVE",
"913 406 CURVE",
"914 406 LINE",
"865 206 OFFCURVE",
"825 103 OFFCURVE",
"742 -25 CURVE",
"608 -46 OFFCURVE",
"488 -100 OFFCURVE",
"376 -169 CURVE SMOOTH",
"280 -228 OFFCURVE",
"196 -305 OFFCURVE",
"196 -384 CURVE SMOOTH",
"196 -421 OFFCURVE",
"238 -431 OFFCURVE",
"267 -431 CURVE SMOOTH"
);
},
{
closed = 1;
nodes = (
"259 -399 OFFCURVE",
"241 -397 OFFCURVE",
"241 -379 CURVE SMOOTH",
"241 -319 OFFCURVE",
"309 -255 OFFCURVE",
"386 -202 CURVE SMOOTH",
"500 -124 OFFCURVE",
"610 -77 OFFCURVE",
"726 -54 CURVE",
"648 -158 OFFCURVE",
"548 -250 OFFCURVE",
"445 -329 CURVE SMOOTH",
"401 -363 OFFCURVE",
"331 -399 OFFCURVE",
"273 -399 CURVE SMOOTH"
);
}
);
width = 912;
}
);
note = Y;
},
{
glyphname = Z.ss01;
lastChange = "2021-08-24 18:22:36 +0000";
layers = (
{
hints = (
{
horizontal = 1;
place = "{-158, 46}";
type = Stem;
},
{
horizontal = 1;
place = "{-38, 27}";
type = Stem;
},
{
horizontal = 1;
place = "{77, 30}";
type = Stem;
},
{
horizontal = 1;
place = "{475, 24}";
type = Stem;
},
{
horizontal = 1;
place = "{547, 25}";
type = Stem;
},
{
place = "{-15, 50}";
type = Stem;
},
{
place = "{351, 33}";
type = Stem;
},
{
place = "{1021, 29}";
type = Stem;
},
{
horizontal = 1;
place = "{539, 39}";
type = Stem;
}
);
layerId = "5B3E1226-E0D0-4C23-AF14-DEF1E2C801D3";
paths = (
{
closed = 1;
nodes = (
"827 -78 OFFCURVE",
"858 -4 OFFCURVE",
"816 -43 CURVE SMOOTH",
"742 -110 OFFCURVE",
"633 -120 OFFCURVE",
"540 -108 CURVE SMOOTH",
"432 -94 OFFCURVE",
"332 -17 OFFCURVE",
"245 32 CURVE",
"374 113 OFFCURVE",
"499 204 OFFCURVE",
"619 297 CURVE SMOOTH",
"704 363 OFFCURVE",
"789 429 OFFCURVE",
"880 486 CURVE",
"906 480 OFFCURVE",
"933 475 OFFCURVE",
"959 475 CURVE SMOOTH",
"1005 475 OFFCURVE",
"1046 497 OFFCURVE",
"1050 540 CURVE SMOOTH",
"1052 564 OFFCURVE",
"1028 572 OFFCURVE",
"1010 572 CURVE SMOOTH",
"972 572 OFFCURVE",
"905 535 OFFCURVE",
"870 517 CURVE",
"784 544 OFFCURVE",
"701 578 OFFCURVE",
"610 578 CURVE SMOOTH",
"572 578 OFFCURVE",
"534 572 OFFCURVE",
"498 559 CURVE SMOOTH",
"443 539 OFFCURVE",
"351 480 OFFCURVE",
"351 414 CURVE SMOOTH",
"351 380 OFFCURVE",
"373 369 OFFCURVE",
"404 369 CURVE SMOOTH",
"408 369 OFFCURVE",
"418 369 OFFCURVE",
"418 374 CURVE SMOOTH",
"418 385 OFFCURVE",
"384 398 OFFCURVE",
"384 422 CURVE SMOOTH",
"384 427 OFFCURVE",
"385 432 OFFCURVE",
"388 436 CURVE",
"432 513 OFFCURVE",
"555 539 OFFCURVE",
"636 539 CURVE SMOOTH",
"706 539 OFFCURVE",
"771 516 OFFCURVE",
"837 498 CURVE",
"759 452 OFFCURVE",
"684 402 OFFCURVE",
"612 347 CURVE SMOOTH",
"483 249 OFFCURVE",
"351 153 OFFCURVE",
"223 53 CURVE",
"190 76 OFFCURVE",
"144 107 OFFCURVE",
"103 107 CURVE SMOOTH",
"92 107 OFFCURVE",
"81 105 OFFCURVE",
"70 103 CURVE SMOOTH",
"32 95 OFFCURVE",
"-15 43 OFFCURVE",
"-15 4 CURVE SMOOTH",
"-15 -29 OFFCURVE",
"17 -38 OFFCURVE",
"44 -38 CURVE SMOOTH",
"96 -38 OFFCURVE",
"163 -7 OFFCURVE",
"208 17 CURVE",
"368 -92 OFFCURVE",
"568 -232 OFFCURVE",
"771 -112 CURVE SMOOTH"
);
},
{
closed = 1;
nodes = (
"59 -11 OFFCURVE",
"35 -9 OFFCURVE",
"35 17 CURVE SMOOTH",
"35 49 OFFCURVE",
"67 77 OFFCURVE",
"99 77 CURVE SMOOTH",
"136 77 OFFCURVE",
"171 48 OFFCURVE",
"199 28 CURVE",
"165 7 OFFCURVE",
"118 -11 OFFCURVE",
"78 -11 CURVE SMOOTH"
);
},
{
closed = 1;
nodes = (
"946 499 OFFCURVE",
"929 502 OFFCURVE",
"913 506 CURVE",
"937 521 OFFCURVE",
"983 547 OFFCURVE",
"1012 547 CURVE SMOOTH",
"1021 547 OFFCURVE",
"1023 540 OFFCURVE",
"1021 531 CURVE SMOOTH",
"1015 505 OFFCURVE",
"987 499 OFFCURVE",
"963 499 CURVE SMOOTH"
);
}
);
width = 652;
}
);
note = Z;
},
{
glyphname = a;
lastChange = "2021-08-24 17:12:24 +0000";
layers = (
{
hints = (
{
horizontal = 1;
place = "{-11, 21}";
target = up;
type = BottomGhost;
},
{
horizontal = 1;
place = "{252, 40}";
type = Stem;
},
{
place = "{25, 33}";
type = Stem;
},
{
horizontal = 1;
place = "{-19, 21}";
target = up;
type = BottomGhost;
},
{
place = "{182, 42}";
type = Stem;
},
{
horizontal = 1;
place = "{-11, 29}";
type = Stem;
}
);
layerId = "5B3E1226-E0D0-4C23-AF14-DEF1E2C801D3";
paths = (
{
closed = 1;
nodes = (
"246 -19 OFFCURVE",
"402 142 OFFCURVE",
"402 157 CURVE SMOOTH",
"402 161 OFFCURVE",
"399 164 OFFCURVE",
"395 164 CURVE SMOOTH",
"391 164 OFFCURVE",
"388 160 OFFCURVE",
"385 157 CURVE SMOOTH",
"365 134 OFFCURVE",
"254 19 OFFCURVE",
"227 11 CURVE SMOOTH",
"220 9 OFFCURVE",
"223 18 OFFCURVE",
"224 22 CURVE SMOOTH",
"234 63 OFFCURVE",
"268 145 OFFCURVE",
"301 171 CURVE",
"302 173 OFFCURVE",
"302 175 OFFCURVE",
"302 177 CURVE SMOOTH",
"302 191 OFFCURVE",
"285 218 OFFCURVE",
"270 218 CURVE SMOOTH",
"265 218 OFFCURVE",
"263 215 OFFCURVE",
"260 211 CURVE SMOOTH",
"250 197 OFFCURVE",
"242 182 OFFCURVE",
"231 168 CURVE SMOOTH",
"189 111 OFFCURVE",
"131 54 OFFCURVE",
"69 20 CURVE SMOOTH",
"67 19 OFFCURVE",
"64 18 OFFCURVE",
"62 18 CURVE SMOOTH",
"58 18 OFFCURVE",
"58 24 OFFCURVE",
"58 27 CURVE SMOOTH",
"58 38 OFFCURVE",
"62 49 OFFCURVE",
"66 58 CURVE SMOOTH",
"94 123 OFFCURVE",
"189 252 OFFCURVE",
"264 252 CURVE SMOOTH",
"298 252 OFFCURVE",
"312 216 OFFCURVE",
"319 216 CURVE SMOOTH",
"327 216 OFFCURVE",
"328 236 OFFCURVE",
"328 242 CURVE SMOOTH",
"328 275 OFFCURVE",
"303 292 OFFCURVE",
"267 292 CURVE SMOOTH",
"184 292 OFFCURVE",
"25 143 OFFCURVE",
"25 42 CURVE SMOOTH",
"25 13 OFFCURVE",
"44 -11 OFFCURVE",
"74 -11 CURVE SMOOTH",
"116 -11 OFFCURVE",
"204 124 OFFCURVE",
"241 155 CURVE",
"224 130 OFFCURVE",
"182 57 OFFCURVE",
"182 27 CURVE SMOOTH",
"182 9 OFFCURVE",
"212 -19 OFFCURVE",
"230 -19 CURVE SMOOTH"
);
}
);
width = 314;
}
);
note = a;
unicode = 0061;
},
{
glyphname = ae;
lastChange = "2021-08-24 17:12:24 +0000";
layers = (
{
hints = (
{
horizontal = 1;
place = "{-1, 17}";
type = Stem;
},
{
horizontal = 1;
place = "{252, 40}";
type = Stem;
},
{
place = "{25, 33}";
type = Stem;
},
{
place = "{182, 42}";
type = Stem;
},
{
place = "{286, 33}";
type = Stem;
},
{
place = "{490, 27}";
type = Stem;
},
{
horizontal = 1;
place = "{-11, 21}";
target = up;
type = BottomGhost;
},
{
horizontal = 1;
place = "{-11, 29}";
type = Stem;
},
{
horizontal = 1;
place = "{-19, 21}";
target = up;
type = BottomGhost;
}
);
layerId = "5B3E1226-E0D0-4C23-AF14-DEF1E2C801D3";
paths = (
{
closed = 1;
nodes = (
"384 -1 OFFCURVE",
"422 28 OFFCURVE",
"450 52 CURVE SMOOTH",
"466 66 OFFCURVE",
"577 166 OFFCURVE",
"577 182 CURVE SMOOTH",
"577 185 OFFCURVE",
"575 187 OFFCURVE",
"571 187 CURVE SMOOTH",
"567 187 OFFCURVE",
"561 184 OFFCURVE",
"558 181 CURVE SMOOTH",
"526 147 LINE SMOOTH",
"494 116 OFFCURVE",
"380 16 OFFCURVE",
"338 16 CURVE SMOOTH",
"325 16 OFFCURVE",
"319 27 OFFCURVE",
"319 39 CURVE SMOOTH",
"319 62 OFFCURVE",
"335 92 OFFCURVE",
"347 111 CURVE",
"382 116 OFFCURVE",
"473 172 OFFCURVE",
"500 196 CURVE SMOOTH",
"509 204 OFFCURVE",
"517 214 OFFCURVE",
"517 227 CURVE SMOOTH",
"517 238 OFFCURVE",
"512 247 OFFCURVE",
"507 256 CURVE SMOOTH",
"504 262 OFFCURVE",
"503 269 OFFCURVE",
"501 275 CURVE SMOOTH",
"498 285 OFFCURVE",
"495 290 OFFCURVE",
"484 290 CURVE SMOOTH",
"403 290 OFFCURVE",
"286 136 OFFCURVE",
"286 58 CURVE SMOOTH",
"286 56 LINE",
"260 32 OFFCURVE",
"237 14 OFFCURVE",
"227 11 CURVE SMOOTH",
"220 9 OFFCURVE",
"223 18 OFFCURVE",
"224 22 CURVE SMOOTH",
"234 63 OFFCURVE",
"268 145 OFFCURVE",
"301 171 CURVE",
"302 173 OFFCURVE",
"302 175 OFFCURVE",
"302 177 CURVE SMOOTH",
"302 191 OFFCURVE",
"285 218 OFFCURVE",
"270 218 CURVE SMOOTH",
"265 218 OFFCURVE",
"263 215 OFFCURVE",
"260 211 CURVE SMOOTH",
"250 197 OFFCURVE",
"242 182 OFFCURVE",
"231 168 CURVE SMOOTH",
"189 111 OFFCURVE",
"131 54 OFFCURVE",
"69 20 CURVE SMOOTH",
"67 19 OFFCURVE",
"64 18 OFFCURVE",
"62 18 CURVE SMOOTH",
"58 18 OFFCURVE",
"58 24 OFFCURVE",
"58 27 CURVE SMOOTH",
"58 38 OFFCURVE",
"62 49 OFFCURVE",
"66 58 CURVE SMOOTH",
"94 123 OFFCURVE",
"189 252 OFFCURVE",
"264 252 CURVE SMOOTH",
"298 252 OFFCURVE",
"312 216 OFFCURVE",
"319 216 CURVE SMOOTH",
"327 216 OFFCURVE",
"328 236 OFFCURVE",
"328 242 CURVE SMOOTH",
"328 275 OFFCURVE",
"303 292 OFFCURVE",
"267 292 CURVE SMOOTH",
"184 292 OFFCURVE",
"25 143 OFFCURVE",
"25 42 CURVE SMOOTH",
"25 13 OFFCURVE",
"44 -11 OFFCURVE",
"74 -11 CURVE SMOOTH",
"116 -11 OFFCURVE",
"204 124 OFFCURVE",
"241 155 CURVE",
"224 130 OFFCURVE",
"182 57 OFFCURVE",
"182 27 CURVE SMOOTH",
"182 9 OFFCURVE",
"212 -19 OFFCURVE",
"230 -19 CURVE SMOOTH",
"236 -19 OFFCURVE",
"261 3 OFFCURVE",
"290 31 CURVE",
"298 10 OFFCURVE",
"318 -1 OFFCURVE",
"346 -1 CURVE SMOOTH"
);
},
{
closed = 1;
nodes = (
"490 248 OFFCURVE",
"490 247 OFFCURVE",
"490 245 CURVE SMOOTH",
"490 214 OFFCURVE",
"390 152 OFFCURVE",
"364 137 CURVE",
"382 163 OFFCURVE",
"449 251 OFFCURVE",
"485 251 CURVE SMOOTH",
"486 251 OFFCURVE",
"488 251 OFFCURVE",
"489 250 CURVE SMOOTH"
);
}
);
width = 466;
}
);
note = ae;
unicode = 00E6;
},
{
glyphname = b;
lastChange = "2021-08-24 17:12:24 +0000";
layers = (
{
hints = (
{
horizontal = 1;
place = "{-34, 30}";
type = Stem;
},
{
horizontal = 1;
place = "{245, 54}";
type = Stem;
},
{
place = "{32, 46}";
type = Stem;
},
{
place = "{329, 57}";
type = Stem;
}
);
layerId = "5B3E1226-E0D0-4C23-AF14-DEF1E2C801D3";
paths = (
{
closed = 1;
nodes = (
"418 457 OFFCURVE",
"433 467 OFFCURVE",
"449 480 CURVE",
"455 483 OFFCURVE",
"458 488 OFFCURVE",
"458 495 CURVE SMOOTH",
"458 511 OFFCURVE",
"441 532 OFFCURVE",
"428 524 CURVE SMOOTH",
"285 437 OFFCURVE",
"139 214 OFFCURVE",
"68 82 CURVE SMOOTH",
"58 63 OFFCURVE",
"32 25 OFFCURVE",
"32 -5 CURVE SMOOTH",
"32 -29 OFFCURVE",
"74 -34 OFFCURVE",
"92 -34 CURVE SMOOTH",
"166 -34 OFFCURVE",
"257 26 OFFCURVE",
"303 82 CURVE SMOOTH",
"347 134 OFFCURVE",
"386 197 OFFCURVE",
"386 241 CURVE SMOOTH",
"386 253 OFFCURVE",
"385 264 OFFCURVE",
"378 275 CURVE SMOOTH",
"368 291 OFFCURVE",
"353 299 OFFCURVE",
"344 299 CURVE SMOOTH",
"319 299 OFFCURVE",
"184 176 OFFCURVE",
"132 125 CURVE",
"202 249 OFFCURVE",
"309 364 OFFCURVE",
"403 444 CURVE SMOOTH"
);
},
{
closed = 1;
nodes = (
"246 74 OFFCURVE",
"181 -4 OFFCURVE",
"119 -4 CURVE SMOOTH",
"105 -4 OFFCURVE",
"78 0 OFFCURVE",
"78 18 CURVE SMOOTH",
"78 30 OFFCURVE",
"100 60 OFFCURVE",
"144 103 CURVE SMOOTH",
"171 130 OFFCURVE",
"280 245 OFFCURVE",
"319 245 CURVE SMOOTH",
"347 245 OFFCURVE",
"310 163 OFFCURVE",
"279 120 CURVE SMOOTH"
);
}
);
width = 323;
}
);
note = b;
unicode = 0062;
},
{
glyphname = c;
lastChange = "2021-08-24 17:12:24 +0000";
layers = (
{
hints = (
{
horizontal = 1;
place = "{19, -20}";
target = down;
type = TopGhost;
}
);
layerId = "5B3E1226-E0D0-4C23-AF14-DEF1E2C801D3";
paths = (
{
closed = 1;
nodes = (
"143 -24 OFFCURVE",
"197 16 OFFCURVE",
"230 44 CURVE SMOOTH",
"245 57 OFFCURVE",
"350 157 OFFCURVE",
"350 168 CURVE SMOOTH",
"350 173 OFFCURVE",
"345 176 OFFCURVE",
"341 176 CURVE SMOOTH",
"338 176 OFFCURVE",
"336 175 OFFCURVE",
"334 173 CURVE SMOOTH",
"299 138 OFFCURVE",
"264 104 OFFCURVE",
"227 71 CURVE SMOOTH",
"197 44 OFFCURVE",
"134 0 OFFCURVE",
"92 0 CURVE SMOOTH",
"74 0 OFFCURVE",
"66 13 OFFCURVE",
"66 30 CURVE SMOOTH",
"66 89 OFFCURVE",
"201 258 OFFCURVE",
"259 258 CURVE SMOOTH",
"264 258 OFFCURVE",
"268 255 OFFCURVE",
"268 249 CURVE SMOOTH",
"268 231 OFFCURVE",
"240 211 OFFCURVE",
"240 198 CURVE SMOOTH",
"240 190 OFFCURVE",
"246 187 OFFCURVE",
"253 187 CURVE SMOOTH",
"281 187 OFFCURVE",
"298 229 OFFCURVE",
"298 252 CURVE SMOOTH",
"298 262 OFFCURVE",
"296 268 OFFCURVE",
"287 273 CURVE SMOOTH",
"274 280 OFFCURVE",
"281 303 OFFCURVE",
"255 303 CURVE SMOOTH",
"247 303 OFFCURVE",
"239 301 OFFCURVE",
"231 298 CURVE SMOOTH",
"155 272 OFFCURVE",
"27 139 OFFCURVE",
"27 54 CURVE SMOOTH",
"27 9 OFFCURVE",
"55 -24 OFFCURVE",
"99 -24 CURVE SMOOTH"
);
}
);
width = 249;
}
);
note = c;
unicode = 0063;
},
{
glyphname = d;
lastChange = "2021-08-24 17:12:24 +0000";
layers = (
{
hints = (
{
horizontal = 1;
place = "{-9, 20}";
type = Stem;
},
{
horizontal = 1;
place = "{256, 50}";
type = Stem;
},
{
place = "{28, 41}";
type = Stem;
},
{
place = "{172, 43}";
type = Stem;
},
{
horizontal = 1;
place = "{-19, 21}";
target = up;
type = BottomGhost;
},
{
horizontal = 1;
place = "{-9, 35}";
type = Stem;
}
);
layerId = "5B3E1226-E0D0-4C23-AF14-DEF1E2C801D3";
paths = (
{
closed = 1;
nodes = (
"570 475 OFFCURVE",
"530 495 OFFCURVE",
"521 491 CURVE SMOOTH",
"488 479 OFFCURVE",
"419 397 OFFCURVE",
"405 382 CURVE SMOOTH",
"350 322 OFFCURVE",
"326 291 OFFCURVE",
"297 253 CURVE",
"293 293 OFFCURVE",
"266 306 OFFCURVE",
"242 306 CURVE SMOOTH",
"164 306 OFFCURVE",
"28 123 OFFCURVE",
"28 46 CURVE SMOOTH",
"28 21 OFFCURVE",
"40 1 OFFCURVE",
"64 -8 CURVE",
"65 -8 OFFCURVE",
"67 -9 OFFCURVE",
"68 -9 CURVE SMOOTH",
"105 -9 OFFCURVE",
"213 131 OFFCURVE",
"241 165 CURVE",
"224 139 OFFCURVE",
"172 57 OFFCURVE",
"172 26 CURVE SMOOTH",
"172 7 OFFCURVE",
"204 -19 OFFCURVE",
"222 -19 CURVE SMOOTH",
"238 -19 OFFCURVE",
"394 142 OFFCURVE",
"394 157 CURVE SMOOTH",
"394 161 OFFCURVE",
"391 164 OFFCURVE",
"387 164 CURVE SMOOTH",
"383 164 OFFCURVE",
"380 160 OFFCURVE",
"377 157 CURVE SMOOTH",
"357 134 OFFCURVE",
"246 19 OFFCURVE",
"219 11 CURVE SMOOTH",
"212 9 OFFCURVE",
"214 27 OFFCURVE",
"215 31 CURVE SMOOTH",
"246 127 OFFCURVE",
"331 235 OFFCURVE",
"443 354 CURVE SMOOTH",
"460 374 OFFCURVE",
"536 437 OFFCURVE",
"551 456 CURVE"
);
},
{
closed = 1;
nodes = (
"217 161 OFFCURVE",
"155 90 OFFCURVE",
"87 31 CURVE SMOOTH",
"85 29 OFFCURVE",
"81 26 OFFCURVE",
"78 26 CURVE SMOOTH",
"70 26 OFFCURVE",
"69 40 OFFCURVE",
"69 45 CURVE SMOOTH",
"69 83 OFFCURVE",
"96 136 OFFCURVE",
"120 165 CURVE SMOOTH",
"143 193 OFFCURVE",
"198 256 OFFCURVE",
"239 256 CURVE SMOOTH",
"254 256 OFFCURVE",
"265 246 OFFCURVE",
"272 233 CURVE"
);
}
);
width = 306;
}
);
note = d;
unicode = 0064;
},
